<?xml version="1.0" encoding="UTF-8"?>
<svg id="Ebene_2" data-name="Ebene 2" xmlns="http://www.w3.org/2000/svg" viewBox="0 0 127.35 8.66">
  <defs>
    <style>
      .cls-1 {
        fill: #231a1a;
      }
    </style>
  </defs>
  <g id="_Слой_1" data-name="Слой 1">
    <g>
      <path class="cls-1" d="M111.3,4.05c-7.4-.18-18.37-.45-27.98-.69.21.32.41.66.6,1.02.05.1.02.46-.07.49-.08.14-.17.28-.25.42l27.79-.69-.32-.32.23-.23Z"/>
      <path class="cls-1" d="M41.28,4.34c.17-.34.36-.66.56-.96l-25.79.63.24.24-.38.38c7.05.17,16.85.42,25.7.64-.09-.14-.18-.28-.26-.43-.08-.03-.12-.39-.07-.49Z"/>
      <path class="cls-1" d="M9.44,4.18s-.09-.07-.13-.1c-.28-.2-.58-.38-.88-.56-.49-.29-.97-.58-1.48-.85-.98-.52-2.04-.97-3.17-.98-1.85,0-2.95,1.02-3.76,2.6-.04.08-.01.35.05.37.82,1.46,2.14,2.51,3.93,2.23.97-.15,1.93-.52,2.83-.96.9-.44,1.77-.9,2.59-1.46.07-.05.14-.09.21-.14-.06-.05-.13-.1-.19-.15Z"/>
      <polygon class="cls-1" points="16.04 4.02 13.03 1.01 9.87 4.17 9.79 4.25 10.02 4.48 13.03 7.5 15.9 4.63 16.28 4.25 16.04 4.02"/>
      <path class="cls-1" d="M127.33,4.31c-.8-1.58-1.91-2.6-3.76-2.6-1.13,0-2.2.46-3.17.98-.5.27-.99.56-1.48.85-.3.18-.6.36-.88.56-.06.04-.12.09-.18.14-.05.04-.1.07-.15.11.05.03.09.06.14.09.84.58,1.75,1.06,2.67,1.51.89.44,1.85.8,2.83.96,1.8.28,3.11-.77,3.93-2.23.06-.02.09-.29.05-.37Z"/>
      <polygon class="cls-1" points="117.48 4.21 114.31 1.04 111.3 4.05 111.07 4.28 111.39 4.61 114.31 7.53 117.39 4.46 117.56 4.28 117.48 4.21"/>
      <path class="cls-1" d="M53.61,4.07c-.37-.27-.77-.51-1.17-.74-.11-.07-.22-.13-.33-.2-.54-.32-1.07-.64-1.63-.93-1.3-.69-2.71-1.29-4.21-1.3-2.05,0-3.42.95-4.43,2.48-.2.3-.38.62-.56.96-.05.1-.02.46.07.49.08.15.17.29.26.43,1.1,1.71,2.76,2.88,4.96,2.53,1.29-.2,2.57-.69,3.75-1.27.65-.32,1.3-.65,1.93-1,.62-.34,1.22-.71,1.79-1.12-.14-.12-.28-.23-.43-.33Z"/>
      <path class="cls-1" d="M83.92,4.38c-.18-.36-.38-.71-.6-1.02-1.01-1.5-2.36-2.43-4.39-2.42-1.5,0-2.92.61-4.21,1.3-.52.28-1.02.57-1.53.87-.15.09-.29.17-.44.26-.4.24-.8.48-1.17.74-.15.11-.29.21-.43.33.57.41,1.16.77,1.77,1.11.64.36,1.29.69,1.96,1.02,1.19.58,2.46,1.07,3.75,1.27,2.21.35,3.87-.83,4.97-2.55.09-.14.17-.27.25-.42.08-.03.12-.39.07-.49Z"/>
      <polygon class="cls-1" points="69.63 3.02 66.64 .04 63.8 2.88 62.62 4.07 61.45 2.9 58.55 0 55.5 3.05 54.24 4.31 55.54 5.61 58.55 8.62 61.41 5.76 62.57 4.6 63.76 5.78 66.64 8.66 69.67 5.64 70.95 4.35 69.63 3.02"/>
    </g>
  </g>
</svg>
