<?xml version="1.0" encoding="UTF-8"?>
<svg xmlns="http://www.w3.org/2000/svg" viewBox="0 0 1600 420" width="1600" height="420" role="img" aria-label="Junker der Provinz">
  <rect width="1600" height="420" fill="#0d1117"/>
  <path d="M295.15 194.58Q292.94 213.69 269.54 213.69Q257.32 213.69 247.70 208.23L247.70 185.48L260.96 184.57L260.96 194.84Q260.96 196.79 261.48 197.70Q262 198.61 264.21 199.46Q266.42 200.30 271.03 200.30Q275.65 200.30 277.73 197.50Q279.81 194.71 279.81 188.47L279.81 137.12L269.67 136.60L269.67 125.55L303.73 125.55L303.73 136.08L299.44 136.47Q295.67 136.86 295.67 140.50L295.67 180.93Q295.67 190.16 295.15 194.58M373.02 201.34L377.57 201.73L377.57 212L356.51 212L356.51 203.55Q349.36 213.69 335.45 213.69Q315.30 213.69 315.30 191.20L315.30 161.17Q315.30 157.66 312.05 157.53L307.89 157.27L307.89 146.61L330.77 146.61L330.77 187.82Q330.77 194.71 332.72 198.22Q334.67 201.73 340.78 201.73Q346.89 201.73 350.59 197.96Q354.30 194.19 354.30 188.86L354.30 161.43Q354.30 159.35 353.58 158.50Q352.87 157.66 351.05 157.53L346.89 157.27L346.89 146.61L369.77 146.61L369.77 197.57Q369.77 199.65 370.42 200.37Q371.07 201.08 373.02 201.34M390.18 157.40L384.72 157.01L384.72 146.61L406.69 146.61L406.69 155.06Q410.07 150.25 415.66 147.45Q421.25 144.66 427.75 144.66Q437.63 144.66 443.02 150.31Q448.42 155.97 448.42 167.28L448.42 201.21L455.83 201.60L455.83 212L424.89 212L424.89 202.12L429.18 201.73Q431.13 201.47 432.04 200.63Q432.95 199.78 432.95 197.44L432.95 170.66Q432.95 163.51 430.74 160.06Q428.53 156.62 422.35 156.62Q416.18 156.62 412.54 160.52Q408.90 164.42 408.90 169.75L408.90 201.21L416.31 201.60L416.31 212L385.37 212L385.37 202.12L389.66 201.73Q391.61 201.47 392.52 200.63Q393.43 199.78 393.43 197.44L393.43 161.43Q393.43 157.53 390.18 157.40M471.56 197.44L471.56 134.13Q471.56 132.05 470.84 131.27Q470.13 130.49 468.31 130.36L463.76 130.10L463.76 119.31L486.90 119.31L486.90 175.60Q494.05 174.95 499.38 171.18Q504.71 167.41 506.66 161.30Q507.05 160 507.05 159.22Q507.05 157.01 504.58 157.01L499.64 156.75L499.64 146.61L526.55 146.61L526.55 157.14L520.31 157.40Q518.62 170.66 508.87 178.33L521.61 201.21L529.54 201.60L529.54 212L510.56 212L495.74 184.96Q491.45 186.13 486.90 186.78L486.90 201.21L487.03 201.21L494.44 201.60L494.44 212L463.50 212L463.50 202.12L467.79 201.73Q469.74 201.47 470.65 200.63Q471.56 199.78 471.56 197.44M568.40 144.66Q578.15 144.66 583.88 149.41Q589.60 154.15 589.60 162.73Q589.60 168.45 587.13 172.81Q584.65 177.16 581.01 179.63Q577.38 182.10 572.18 183.66Q563.47 186.26 552.55 186.26Q552.94 193.15 556.84 197.38Q560.74 201.60 568.80 201.60Q576.86 201.60 584.91 195.88L589.86 206.41Q587.25 208.75 581.08 211.22Q574.90 213.69 566.98 213.69Q551.12 213.69 543.71 204.91Q536.29 196.14 536.29 180.80Q536.29 165.46 544.75 155.06Q553.20 144.66 568.40 144.66M562.49 174.37Q567.24 173.52 571.26 170.59Q575.30 167.67 575.30 163.64Q575.30 155.71 567.50 155.71Q560.22 155.71 556.32 161.50Q552.41 167.28 552.02 175.34Q557.75 175.21 562.49 174.37M606.75 197.44L606.75 161.43Q606.75 159.35 606.04 158.50Q605.32 157.66 603.50 157.53L598.04 157.14L598.04 146.61L620.01 146.61L620.01 156.36Q622.36 151.29 627.29 147.97Q632.24 144.66 638.67 144.66Q645.11 144.66 650.95 147.52L650.95 166.89L638.87 167.80L638.87 161.82Q638.87 159.22 637.56 158.57Q636.13 157.92 634.05 157.92Q628.86 157.92 625.54 161.63Q622.23 165.33 622.23 171.05L622.23 201.21L633.53 201.73L633.53 212L598.69 212L598.69 202.12L602.99 201.73Q604.93 201.47 605.85 200.63Q606.75 199.78 606.75 197.44M717.38 144.66Q722.97 144.66 728.04 146.22L728.04 133.09Q728.04 130.23 724.66 129.97L719.07 129.58L719.07 119.31L743.25 119.31L743.25 198.35Q743.38 201.34 746.50 201.34L751.05 201.60L751.05 212L729.99 212L729.99 204.33L729.60 204.20Q723.75 213.69 711.92 213.69Q697.10 213.69 691.12 203.81Q685.66 194.84 685.66 181.84Q685.66 164.94 694.05 154.80Q702.43 144.66 717.38 144.66M728.04 191.72L728.04 158.05Q723.36 155.97 718.16 155.97Q709.58 155.97 705.62 162.86Q701.65 169.75 701.65 180.41Q701.65 202.25 715.69 202.25Q721.02 202.25 724.53 199.19Q728.04 196.14 728.04 191.72M791.22 144.66Q800.97 144.66 806.69 149.41Q812.41 154.15 812.41 162.73Q812.41 168.45 809.94 172.81Q807.47 177.16 803.83 179.63Q800.19 182.10 795 183.66Q786.28 186.26 775.37 186.26Q775.75 193.15 779.65 197.38Q783.55 201.60 791.62 201.60Q799.67 201.60 807.73 195.88L812.67 206.41Q810.07 208.75 803.90 211.22Q797.72 213.69 789.79 213.69Q773.93 213.69 766.52 204.91Q759.11 196.14 759.11 180.80Q759.11 165.46 767.56 155.06Q776.01 144.66 791.22 144.66M785.31 174.37Q790.05 173.52 794.08 170.59Q798.12 167.67 798.12 163.64Q798.12 155.71 790.31 155.71Q783.03 155.71 779.13 161.50Q775.23 167.28 774.84 175.34Q780.56 175.21 785.31 174.37M829.57 197.44L829.57 161.43Q829.57 159.35 828.86 158.50Q828.14 157.66 826.32 157.53L820.86 157.14L820.86 146.61L842.83 146.61L842.83 156.36Q845.17 151.29 850.11 147.97Q855.05 144.66 861.49 144.66Q867.92 144.66 873.77 147.52L873.77 166.89L861.68 167.80L861.68 161.82Q861.68 159.22 860.38 158.57Q858.95 157.92 856.87 157.92Q851.67 157.92 848.36 161.63Q845.04 165.33 845.04 171.05L845.04 201.21L856.35 201.73L856.35 212L821.51 212L821.51 202.12L825.80 201.73Q827.75 201.47 828.66 200.63Q829.57 199.78 829.57 197.44M943.84 212L907.44 212L907.44 201.47L911.73 201.08Q915.50 200.69 915.50 197.44L915.50 136.99L908.09 136.60L908.09 125.55L945.27 125.55Q959.83 125.55 967.96 132.38Q976.08 139.20 976.08 152.85Q976.08 166.50 966.85 174.10Q957.62 181.71 942.41 181.71L931.36 181.71L931.36 200.56L943.84 200.95L943.84 212M931.36 138.16L931.36 169.10L940.72 169.10Q959.70 169.10 959.70 153.63Q959.70 144.27 954.83 141.22Q949.95 138.16 939.29 138.16L931.36 138.16M992.33 197.44L992.33 161.43Q992.33 159.35 991.62 158.50Q990.90 157.66 989.08 157.53L983.62 157.14L983.62 146.61L1005.59 146.61L1005.59 156.36Q1007.93 151.29 1012.87 147.97Q1017.81 144.66 1024.25 144.66Q1030.68 144.66 1036.53 147.52L1036.53 166.89L1024.44 167.80L1024.44 161.82Q1024.44 159.22 1023.14 158.57Q1021.71 157.92 1019.63 157.92Q1014.43 157.92 1011.12 161.63Q1007.80 165.33 1007.80 171.05L1007.80 201.21L1019.11 201.73L1019.11 212L984.27 212L984.27 202.12L988.56 201.73Q990.51 201.47 991.42 200.63Q992.33 199.78 992.33 197.44M1071.63 202.51Q1085.80 202.51 1085.80 179.63Q1085.80 168.06 1082.62 162.08Q1079.43 156.10 1071.96 156.10Q1064.48 156.10 1060.97 161.82Q1057.46 167.54 1057.46 177.42Q1057.46 195.75 1064.22 200.43Q1067.21 202.51 1071.63 202.51M1041.73 179.24Q1041.73 169.62 1044.60 162.53Q1047.45 155.45 1052.26 151.68Q1061.49 144.66 1072.67 144.66Q1080.47 144.66 1085.87 147.19Q1091.26 149.73 1094.32 153.04Q1097.38 156.36 1099.52 162.66Q1101.66 168.97 1101.66 177.55Q1101.66 195.49 1092.95 204.72Q1084.24 213.95 1070.66 213.95Q1057.08 213.95 1049.40 205.18Q1041.73 196.40 1041.73 179.24M1147.94 157.01L1147.94 146.61L1175.38 146.61L1175.38 156.75L1171.35 157.01Q1168.74 157.27 1167.84 160.13L1151.07 212L1131.17 212L1112.97 160.26Q1112.33 158.44 1111.61 157.79Q1110.89 157.14 1109.20 157.01L1105.43 156.75L1105.43 146.61L1135.98 146.61L1135.98 157.01L1128.06 157.40L1141.44 200.17L1141.70 200.17L1154.70 157.40L1147.94 157.01M1181.22 146.61L1204.49 146.61L1204.49 201.21L1211.90 201.60L1211.90 212L1180.96 212L1180.96 202.12L1185.25 201.73Q1189.02 201.34 1189.02 197.57L1189.02 161.43Q1189.02 159.22 1188.31 158.44Q1187.60 157.66 1185.77 157.66L1181.22 157.40L1181.22 146.61M1188.12 135.37Q1185.38 132.70 1185.38 128.54Q1185.38 124.38 1188.12 121.58Q1190.85 118.79 1195.26 118.79Q1199.68 118.79 1202.48 121.58Q1205.27 124.38 1205.27 128.54Q1205.27 132.70 1202.48 135.37Q1199.68 138.03 1195.26 138.03Q1190.85 138.03 1188.12 135.37M1224.13 157.40L1218.66 157.01L1218.66 146.61L1240.63 146.61L1240.63 155.06Q1244.01 150.25 1249.61 147.45Q1255.19 144.66 1261.69 144.66Q1271.58 144.66 1276.97 150.31Q1282.37 155.97 1282.37 167.28L1282.37 201.21L1289.78 201.60L1289.78 212L1258.84 212L1258.84 202.12L1263.13 201.73Q1265.08 201.47 1265.98 200.63Q1266.89 199.78 1266.89 197.44L1266.89 170.66Q1266.89 163.51 1264.68 160.06Q1262.47 156.62 1256.30 156.62Q1250.13 156.62 1246.48 160.52Q1242.85 164.42 1242.85 169.75L1242.85 201.21L1250.25 201.60L1250.25 212L1219.32 212L1219.32 202.12L1223.61 201.73Q1225.56 201.47 1226.46 200.63Q1227.38 199.78 1227.38 197.44L1227.38 161.43Q1227.38 157.53 1224.13 157.40M1351.39 191.33L1351.39 212L1298.36 212L1298.36 202.12L1331.76 158.18L1315.38 158.18Q1312.65 158.18 1311.94 159.22Q1311.22 160.26 1311.22 162.60L1311.22 167.15L1299 166.24L1299 146.61L1350.74 146.61L1350.74 155.45L1316.94 200.30L1335.40 200.30Q1339.17 200.30 1339.17 195.88L1339.17 190.42" fill="#f0f6fc"/>
  <g transform="translate(540,242) scale(4.0832)" fill="#f0f6fc"><path d="M111.3,4.05c-7.4-.18-18.37-.45-27.98-.69.21.32.41.66.6,1.02.05.1.02.46-.07.49-.08.14-.17.28-.25.42l27.79-.69-.32-.32.23-.23Z"/><path d="M41.28,4.34c.17-.34.36-.66.56-.96l-25.79.63.24.24-.38.38c7.05.17,16.85.42,25.7.64-.09-.14-.18-.28-.26-.43-.08-.03-.12-.39-.07-.49Z"/><path d="M9.44,4.18s-.09-.07-.13-.1c-.28-.2-.58-.38-.88-.56-.49-.29-.97-.58-1.48-.85-.98-.52-2.04-.97-3.17-.98-1.85,0-2.95,1.02-3.76,2.6-.04.08-.01.35.05.37.82,1.46,2.14,2.51,3.93,2.23.97-.15,1.93-.52,2.83-.96.9-.44,1.77-.9,2.59-1.46.07-.05.14-.09.21-.14-.06-.05-.13-.1-.19-.15Z"/><polygon points="16.04 4.02 13.03 1.01 9.87 4.17 9.79 4.25 10.02 4.48 13.03 7.5 15.9 4.63 16.28 4.25 16.04 4.02"/><path d="M127.33,4.31c-.8-1.58-1.91-2.6-3.76-2.6-1.13,0-2.2.46-3.17.98-.5.27-.99.56-1.48.85-.3.18-.6.36-.88.56-.06.04-.12.09-.18.14-.05.04-.1.07-.15.11.05.03.09.06.14.09.84.58,1.75,1.06,2.67,1.51.89.44,1.85.8,2.83.96,1.8.28,3.11-.77,3.93-2.23.06-.02.09-.29.05-.37Z"/><polygon points="117.48 4.21 114.31 1.04 111.3 4.05 111.07 4.28 111.39 4.61 114.31 7.53 117.39 4.46 117.56 4.28 117.48 4.21"/><path d="M53.61,4.07c-.37-.27-.77-.51-1.17-.74-.11-.07-.22-.13-.33-.2-.54-.32-1.07-.64-1.63-.93-1.3-.69-2.71-1.29-4.21-1.3-2.05,0-3.42.95-4.43,2.48-.2.3-.38.62-.56.96-.05.1-.02.46.07.49.08.15.17.29.26.43,1.1,1.71,2.76,2.88,4.96,2.53,1.29-.2,2.57-.69,3.75-1.27.65-.32,1.3-.65,1.93-1,.62-.34,1.22-.71,1.79-1.12-.14-.12-.28-.23-.43-.33Z"/><path d="M83.92,4.38c-.18-.36-.38-.71-.6-1.02-1.01-1.5-2.36-2.43-4.39-2.42-1.5,0-2.92.61-4.21,1.3-.52.28-1.02.57-1.53.87-.15.09-.29.17-.44.26-.4.24-.8.48-1.17.74-.15.11-.29.21-.43.33.57.41,1.16.77,1.77,1.11.64.36,1.29.69,1.96,1.02,1.19.58,2.46,1.07,3.75,1.27,2.21.35,3.87-.83,4.97-2.55.09-.14.17-.27.25-.42.08-.03.12-.39.07-.49Z"/><polygon points="69.63 3.02 66.64 .04 63.8 2.88 62.62 4.07 61.45 2.9 58.55 0 55.5 3.05 54.24 4.31 55.54 5.61 58.55 8.62 61.41 5.76 62.57 4.6 63.76 5.78 66.64 8.66 69.67 5.64 70.95 4.35 69.63 3.02"/></g>
  <path d="M335.38 319.32L323.67 319.32L323.67 327.84L333.68 327.84L333.68 330.53L323.67 330.53L323.67 341L320.37 341L320.37 316.64L335.38 316.64L335.38 319.32M341.55 324.61L341.76 327.23Q342.57 325.46 343.76 324.47Q344.95 323.47 346.67 323.47Q347.21 323.47 347.72 323.59Q348.22 323.71 348.61 323.97L348.39 326.23Q348.28 326.65 347.88 326.65Q347.64 326.65 347.18 326.55Q346.72 326.45 346.14 326.45Q345.33 326.45 344.69 326.69Q344.05 326.92 343.55 327.39Q343.05 327.86 342.65 328.55Q342.25 329.24 341.93 330.12L341.93 341L338.88 341L338.88 323.78L340.62 323.78Q341.11 323.78 341.30 323.97Q341.48 324.15 341.55 324.61M353.37 330.51L362.79 330.51Q362.79 329.46 362.49 328.58Q362.19 327.71 361.62 327.07Q361.05 326.43 360.24 326.08Q359.42 325.73 358.38 325.73Q356.21 325.73 354.94 327Q353.67 328.27 353.37 330.51M364.38 337.48L365.23 338.59Q364.67 339.27 363.89 339.77Q363.11 340.27 362.22 340.59Q361.32 340.92 360.37 341.08Q359.42 341.24 358.48 341.24Q356.70 341.24 355.20 340.63Q353.69 340.03 352.59 338.87Q351.50 337.70 350.89 335.99Q350.27 334.27 350.27 332.04Q350.27 330.24 350.83 328.68Q351.38 327.11 352.42 325.96Q353.45 324.82 354.95 324.16Q356.44 323.51 358.31 323.51Q359.86 323.51 361.18 324.03Q362.50 324.54 363.46 325.52Q364.42 326.50 364.96 327.94Q365.51 329.37 365.51 331.21Q365.51 331.92 365.35 332.16Q365.20 332.40 364.77 332.40L353.27 332.40Q353.32 334.03 353.72 335.24Q354.12 336.44 354.83 337.25Q355.54 338.06 356.53 338.46Q357.52 338.86 358.74 338.86Q359.88 338.86 360.70 338.59Q361.53 338.33 362.12 338.02Q362.72 337.72 363.12 337.46Q363.52 337.19 363.81 337.19Q364.18 337.19 364.38 337.48M371.32 330.51L380.74 330.51Q380.74 329.46 380.44 328.58Q380.14 327.71 379.57 327.07Q379 326.43 378.19 326.08Q377.37 325.73 376.33 325.73Q374.16 325.73 372.89 327Q371.63 328.27 371.32 330.51M382.34 337.48L383.19 338.59Q382.62 339.27 381.84 339.77Q381.06 340.27 380.17 340.59Q379.28 340.92 378.32 341.08Q377.37 341.24 376.44 341.24Q374.65 341.24 373.15 340.63Q371.64 340.03 370.55 338.87Q369.45 337.70 368.84 335.99Q368.23 334.27 368.23 332.04Q368.23 330.24 368.78 328.68Q369.33 327.11 370.37 325.96Q371.40 324.82 372.90 324.16Q374.40 323.51 376.27 323.51Q377.81 323.51 379.13 324.03Q380.45 324.54 381.41 325.52Q382.37 326.50 382.91 327.94Q383.46 329.37 383.46 331.21Q383.46 331.92 383.30 332.16Q383.15 332.40 382.73 332.40L371.22 332.40Q371.27 334.03 371.67 335.24Q372.07 336.44 372.78 337.25Q373.50 338.06 374.48 338.46Q375.47 338.86 376.69 338.86Q377.83 338.86 378.66 338.59Q379.48 338.33 380.07 338.02Q380.67 337.72 381.07 337.46Q381.47 337.19 381.76 337.19Q382.13 337.19 382.34 337.48M387.49 345.61L386.98 345.11Q386.84 345 386.79 344.89Q386.74 344.79 386.74 344.64Q386.74 344.52 386.82 344.40Q386.89 344.28 386.99 344.18Q387.16 343.99 387.43 343.69Q387.69 343.38 387.96 342.96Q388.23 342.55 388.46 342.05Q388.69 341.54 388.80 340.98Q388.74 341 388.69 341Q388.63 341 388.57 341Q387.69 341 387.14 340.41Q386.59 339.83 386.59 338.91Q386.59 338.11 387.14 337.55Q387.69 336.99 388.61 336.99Q389.12 336.99 389.51 337.18Q389.90 337.36 390.16 337.69Q390.43 338.02 390.56 338.46Q390.70 338.89 390.70 339.40Q390.70 340.17 390.49 340.99Q390.27 341.82 389.86 342.62Q389.44 343.43 388.85 344.20Q388.25 344.96 387.49 345.61M406.63 328.52L406.63 336.85Q407.46 337.97 408.45 338.43Q409.43 338.89 410.66 338.89Q413.07 338.89 414.36 337.18Q415.66 335.46 415.66 332.28Q415.66 330.60 415.36 329.39Q415.06 328.18 414.50 327.41Q413.94 326.63 413.12 326.28Q412.31 325.92 411.27 325.92Q409.79 325.92 408.68 326.60Q407.56 327.28 406.63 328.52M406.20 324.41L406.48 326.45Q407.56 325.11 408.99 324.29Q410.42 323.47 412.26 323.47Q413.75 323.47 414.96 324.04Q416.17 324.61 417.02 325.73Q417.87 326.84 418.32 328.49Q418.78 330.14 418.78 332.28Q418.78 334.18 418.27 335.82Q417.76 337.46 416.80 338.66Q415.84 339.86 414.46 340.55Q413.07 341.24 411.34 341.24Q409.76 341.24 408.63 340.70Q407.50 340.17 406.63 339.21L406.63 346.83L403.59 346.83L403.59 323.78L405.40 323.78Q406.05 323.78 406.20 324.41M425.31 324.61L425.52 327.23Q426.33 325.46 427.52 324.47Q428.71 323.47 430.43 323.47Q430.97 323.47 431.47 323.59Q431.98 323.71 432.37 323.97L432.15 326.23Q432.04 326.65 431.64 326.65Q431.40 326.65 430.94 326.55Q430.48 326.45 429.90 326.45Q429.09 326.45 428.45 326.69Q427.81 326.92 427.31 327.39Q426.81 327.86 426.41 328.55Q426.01 329.24 425.69 330.12L425.69 341L422.64 341L422.64 323.78L424.38 323.78Q424.87 323.78 425.06 323.97Q425.24 324.15 425.31 324.61M435.19 323.78L438.21 323.78L438.21 341L435.19 341L435.19 323.78M438.86 318.37Q438.86 318.81 438.68 319.20Q438.50 319.58 438.21 319.88Q437.91 320.18 437.51 320.35Q437.11 320.51 436.67 320.51Q436.23 320.51 435.84 320.35Q435.46 320.18 435.17 319.88Q434.88 319.58 434.71 319.20Q434.54 318.81 434.54 318.37Q434.54 317.93 434.71 317.53Q434.88 317.13 435.17 316.83Q435.46 316.54 435.84 316.37Q436.23 316.20 436.67 316.20Q437.11 316.20 437.51 316.37Q437.91 316.54 438.21 316.83Q438.50 317.13 438.68 317.53Q438.86 317.93 438.86 318.37M455.57 323.78L457.93 323.78L450.91 341L448.19 341L441.17 323.78L443.64 323.78Q444.01 323.78 444.25 323.97Q444.49 324.15 444.57 324.41L448.94 335.49Q449.15 336.12 449.30 336.72Q449.45 337.31 449.59 337.91Q449.72 337.31 449.88 336.72Q450.03 336.12 450.25 335.49L454.67 324.41Q454.77 324.14 455.01 323.96Q455.25 323.78 455.57 323.78M470.06 336.82L470.06 333.25Q467.96 333.32 466.49 333.58Q465.02 333.84 464.10 334.27Q463.17 334.69 462.75 335.27Q462.34 335.85 462.34 336.56Q462.34 337.24 462.56 337.74Q462.78 338.23 463.16 338.54Q463.54 338.86 464.06 339Q464.58 339.15 465.18 339.15Q465.98 339.15 466.64 338.99Q467.30 338.82 467.89 338.52Q468.47 338.21 469.01 337.79Q469.55 337.36 470.06 336.82M460.82 327.18L460.28 326.21Q461.71 324.83 463.36 324.15Q465.01 323.47 467.01 323.47Q468.46 323.47 469.58 323.95Q470.70 324.43 471.47 325.27Q472.23 326.13 472.62 327.33Q473.01 328.54 473.01 329.98L473.01 341L471.67 341Q471.23 341 470.99 340.86Q470.75 340.71 470.62 340.29L470.28 338.65Q469.60 339.28 468.95 339.77Q468.30 340.25 467.59 340.58Q466.88 340.92 466.07 341.09Q465.26 341.27 464.28 341.27Q463.27 341.27 462.39 340.99Q461.50 340.71 460.85 340.15Q460.20 339.59 459.81 338.73Q459.43 337.87 459.43 336.70Q459.43 335.68 459.99 334.74Q460.55 333.79 461.81 333.06Q463.07 332.33 465.09 331.86Q467.11 331.39 470.06 331.33L470.06 329.98Q470.06 327.98 469.19 326.95Q468.32 325.92 466.66 325.92Q465.53 325.92 464.78 326.20Q464.02 326.48 463.47 326.83Q462.92 327.18 462.52 327.46Q462.12 327.74 461.73 327.74Q461.42 327.74 461.20 327.58Q460.98 327.42 460.82 327.18M482.91 341.27Q480.87 341.27 479.77 340.13Q478.67 338.99 478.67 336.85L478.67 326.31L476.60 326.31Q476.33 326.31 476.14 326.15Q475.95 325.99 475.95 325.65L475.95 324.44L478.78 324.08L479.47 318.76Q479.52 318.51 479.70 318.35Q479.88 318.19 480.17 318.19L481.70 318.19L481.70 324.12L486.68 324.12L486.68 326.31L481.70 326.31L481.70 336.65Q481.70 337.74 482.23 338.26Q482.75 338.79 483.59 338.79Q484.06 338.79 484.41 338.66Q484.76 338.54 485.02 338.38Q485.27 338.23 485.45 338.10Q485.63 337.97 485.76 337.97Q486 337.97 486.19 338.26L487.07 339.71Q486.29 340.44 485.19 340.86Q484.08 341.27 482.91 341.27M491.92 330.51L501.34 330.51Q501.34 329.46 501.04 328.58Q500.74 327.71 500.17 327.07Q499.60 326.43 498.79 326.08Q497.97 325.73 496.93 325.73Q494.76 325.73 493.49 327Q492.22 328.27 491.92 330.51M502.93 337.48L503.78 338.59Q503.22 339.27 502.44 339.77Q501.66 340.27 500.77 340.59Q499.87 340.92 498.92 341.08Q497.97 341.24 497.03 341.24Q495.25 341.24 493.75 340.63Q492.24 340.03 491.14 338.87Q490.05 337.70 489.44 335.99Q488.82 334.27 488.82 332.04Q488.82 330.24 489.38 328.68Q489.93 327.11 490.97 325.96Q492 324.82 493.50 324.16Q494.99 323.51 496.86 323.51Q498.41 323.51 499.73 324.03Q501.05 324.54 502.01 325.52Q502.97 326.50 503.51 327.94Q504.06 329.37 504.06 331.21Q504.06 331.92 503.90 332.16Q503.75 332.40 503.32 332.40L491.82 332.40Q491.87 334.03 492.27 335.24Q492.67 336.44 493.38 337.25Q494.09 338.06 495.08 338.46Q496.07 338.86 497.29 338.86Q498.43 338.86 499.25 338.59Q500.08 338.33 500.67 338.02Q501.27 337.72 501.67 337.46Q502.07 337.19 502.36 337.19Q502.73 337.19 502.93 337.48M508.08 345.61L507.57 345.11Q507.44 345 507.39 344.89Q507.34 344.79 507.34 344.64Q507.34 344.52 507.41 344.40Q507.49 344.28 507.59 344.18Q507.76 343.99 508.03 343.69Q508.29 343.38 508.56 342.96Q508.83 342.55 509.06 342.05Q509.29 341.54 509.39 340.98Q509.34 341 509.28 341Q509.22 341 509.17 341Q508.29 341 507.74 340.41Q507.18 339.83 507.18 338.91Q507.18 338.11 507.74 337.55Q508.29 336.99 509.21 336.99Q509.72 336.99 510.11 337.18Q510.50 337.36 510.76 337.69Q511.03 338.02 511.16 338.46Q511.30 338.89 511.30 339.40Q511.30 340.17 511.09 340.99Q510.87 341.82 510.46 342.62Q510.04 343.43 509.44 344.20Q508.85 344.96 508.08 345.61M526.80 324.41L527.04 326.28Q527.60 325.65 528.23 325.14Q528.86 324.63 529.56 324.26Q530.27 323.90 531.06 323.70Q531.85 323.51 532.77 323.51Q534.18 323.51 535.26 323.97Q536.34 324.44 537.06 325.30Q537.78 326.16 538.16 327.37Q538.53 328.57 538.53 330.04L538.53 341L535.49 341L535.49 330.04Q535.49 328.08 534.60 327Q533.70 325.92 531.88 325.92Q530.54 325.92 529.38 326.57Q528.21 327.21 527.23 328.32L527.23 341L524.18 341L524.18 323.78L526 323.78Q526.65 323.78 526.80 324.41M543.33 323.78L546.35 323.78L546.35 341L543.33 341L543.33 323.78M547 318.37Q547 318.81 546.82 319.20Q546.64 319.58 546.34 319.88Q546.05 320.18 545.65 320.35Q545.25 320.51 544.80 320.51Q544.36 320.51 543.98 320.35Q543.60 320.18 543.31 319.88Q543.02 319.58 542.85 319.20Q542.68 318.81 542.68 318.37Q542.68 317.93 542.85 317.53Q543.02 317.13 543.31 316.83Q543.60 316.54 543.98 316.37Q544.36 316.20 544.80 316.20Q545.25 316.20 545.65 316.37Q546.05 316.54 546.34 316.83Q546.64 317.13 546.82 317.53Q547 317.93 547 318.37M564.10 325.75L563.30 326.84Q563.16 327.03 563.03 327.13Q562.89 327.23 562.65 327.23Q562.40 327.23 562.09 327.02Q561.79 326.81 561.34 326.55Q560.89 326.30 560.23 326.08Q559.58 325.87 558.63 325.87Q557.35 325.87 556.38 326.32Q555.41 326.77 554.76 327.62Q554.10 328.47 553.77 329.68Q553.44 330.88 553.44 332.38Q553.44 333.94 553.80 335.16Q554.15 336.38 554.81 337.20Q555.46 338.02 556.39 338.46Q557.32 338.89 558.47 338.89Q559.58 338.89 560.29 338.63Q561.01 338.37 561.47 338.04Q561.94 337.72 562.26 337.46Q562.57 337.19 562.88 337.19Q563.25 337.19 563.45 337.48L564.30 338.59Q563.74 339.28 563.03 339.78Q562.31 340.27 561.49 340.60Q560.67 340.93 559.76 341.08Q558.86 341.24 557.93 341.24Q556.31 341.24 554.93 340.64Q553.54 340.05 552.52 338.92Q551.50 337.79 550.92 336.14Q550.35 334.49 550.35 332.38Q550.35 330.46 550.88 328.83Q551.42 327.20 552.45 326.01Q553.47 324.83 554.98 324.17Q556.48 323.51 558.44 323.51Q560.26 323.51 561.64 324.09Q563.03 324.68 564.10 325.75M569.66 330.51L579.08 330.51Q579.08 329.46 578.78 328.58Q578.48 327.71 577.91 327.07Q577.34 326.43 576.53 326.08Q575.71 325.73 574.67 325.73Q572.50 325.73 571.23 327Q569.96 328.27 569.66 330.51M580.67 337.48L581.52 338.59Q580.96 339.27 580.18 339.77Q579.40 340.27 578.51 340.59Q577.61 340.92 576.66 341.08Q575.71 341.24 574.78 341.24Q572.99 341.24 571.49 340.63Q569.98 340.03 568.89 338.87Q567.79 337.70 567.18 335.99Q566.56 334.27 566.56 332.04Q566.56 330.24 567.12 328.68Q567.67 327.11 568.71 325.96Q569.74 324.82 571.24 324.16Q572.74 323.51 574.61 323.51Q576.15 323.51 577.47 324.03Q578.79 324.54 579.75 325.52Q580.71 326.50 581.25 327.94Q581.80 329.37 581.80 331.21Q581.80 331.92 581.64 332.16Q581.49 332.40 581.07 332.40L569.56 332.40Q569.61 334.03 570.01 335.24Q570.41 336.44 571.12 337.25Q571.83 338.06 572.82 338.46Q573.81 338.86 575.03 338.86Q576.17 338.86 576.99 338.59Q577.82 338.33 578.41 338.02Q579.01 337.72 579.41 337.46Q579.81 337.19 580.10 337.19Q580.47 337.19 580.67 337.48M585.23 332.09L585.23 329.52L593.63 329.52L593.63 332.09L585.23 332.09M598.24 315.96L601.26 315.96L601.26 341L598.24 341L598.24 315.96M613.42 323.51Q615.30 323.51 616.82 324.14Q618.33 324.76 619.40 325.92Q620.47 327.08 621.04 328.72Q621.61 330.36 621.61 332.38Q621.61 334.42 621.04 336.05Q620.47 337.69 619.40 338.84Q618.33 340 616.82 340.62Q615.30 341.24 613.42 341.24Q611.51 341.24 609.99 340.62Q608.47 340 607.40 338.84Q606.33 337.69 605.76 336.05Q605.19 334.42 605.19 332.38Q605.19 330.36 605.76 328.72Q606.33 327.08 607.40 325.92Q608.47 324.76 609.99 324.14Q611.51 323.51 613.42 323.51M613.42 338.88Q615.97 338.88 617.22 337.17Q618.48 335.46 618.48 332.40Q618.48 329.32 617.22 327.60Q615.97 325.89 613.42 325.89Q612.12 325.89 611.16 326.33Q610.20 326.77 609.57 327.60Q608.93 328.44 608.61 329.65Q608.30 330.87 608.30 332.40Q608.30 335.46 609.57 337.17Q610.83 338.88 613.42 338.88M632.69 323.51Q634.58 323.51 636.09 324.14Q637.61 324.76 638.68 325.92Q639.75 327.08 640.32 328.72Q640.89 330.36 640.89 332.38Q640.89 334.42 640.32 336.05Q639.75 337.69 638.68 338.84Q637.61 340 636.09 340.62Q634.58 341.24 632.69 341.24Q630.79 341.24 629.27 340.62Q627.75 340 626.68 338.84Q625.61 337.69 625.04 336.05Q624.47 334.42 624.47 332.38Q624.47 330.36 625.04 328.72Q625.61 327.08 626.68 325.92Q627.75 324.76 629.27 324.14Q630.79 323.51 632.69 323.51M632.69 338.88Q635.24 338.88 636.50 337.17Q637.76 335.46 637.76 332.40Q637.76 329.32 636.50 327.60Q635.24 325.89 632.69 325.89Q631.40 325.89 630.44 326.33Q629.48 326.77 628.84 327.60Q628.21 328.44 627.89 329.65Q627.58 330.87 627.58 332.40Q627.58 335.46 628.84 337.17Q630.11 338.88 632.69 338.88M644.71 315.96L647.76 315.96L647.76 330.70L648.54 330.70Q648.88 330.70 649.11 330.60Q649.34 330.51 649.59 330.22L655.03 324.39Q655.27 324.10 655.53 323.94Q655.80 323.78 656.24 323.78L658.98 323.78L652.64 330.53Q652.18 331.11 651.65 331.43Q651.96 331.63 652.20 331.90Q652.45 332.16 652.67 332.50L659.40 341L656.70 341Q656.31 341 656.03 340.87Q655.75 340.75 655.54 340.40L649.88 333.35Q649.63 332.99 649.38 332.88Q649.13 332.77 648.62 332.77L647.76 332.77L647.76 341L644.71 341L644.71 315.96M662.16 323.78L665.18 323.78L665.18 341L662.16 341L662.16 323.78M665.83 318.37Q665.83 318.81 665.65 319.20Q665.47 319.58 665.17 319.88Q664.88 320.18 664.48 320.35Q664.08 320.51 663.63 320.51Q663.19 320.51 662.81 320.35Q662.43 320.18 662.14 319.88Q661.85 319.58 661.68 319.20Q661.51 318.81 661.51 318.37Q661.51 317.93 661.68 317.53Q661.85 317.13 662.14 316.83Q662.43 316.54 662.81 316.37Q663.19 316.20 663.63 316.20Q664.08 316.20 664.48 316.37Q664.88 316.54 665.17 316.83Q665.47 317.13 665.65 317.53Q665.83 317.93 665.83 318.37M672.76 324.41L673 326.28Q673.56 325.65 674.19 325.14Q674.82 324.63 675.53 324.26Q676.23 323.90 677.02 323.70Q677.81 323.51 678.73 323.51Q680.14 323.51 681.22 323.97Q682.30 324.44 683.02 325.30Q683.75 326.16 684.12 327.37Q684.49 328.57 684.49 330.04L684.49 341L681.45 341L681.45 330.04Q681.45 328.08 680.56 327Q679.67 325.92 677.85 325.92Q676.50 325.92 675.34 326.57Q674.17 327.21 673.19 328.32L673.19 341L670.15 341L670.15 323.78L671.96 323.78Q672.61 323.78 672.76 324.41M695.12 332.58Q696.04 332.58 696.73 332.33Q697.43 332.07 697.91 331.62Q698.38 331.16 698.62 330.52Q698.86 329.88 698.86 329.12Q698.86 327.54 697.90 326.60Q696.94 325.67 695.12 325.67Q693.28 325.67 692.32 326.60Q691.36 327.54 691.36 329.12Q691.36 329.88 691.61 330.52Q691.85 331.16 692.33 331.62Q692.81 332.07 693.50 332.33Q694.20 332.58 695.12 332.58M700.58 341.94Q700.58 341.31 700.22 340.92Q699.86 340.52 699.26 340.30Q698.65 340.08 697.86 339.99Q697.06 339.89 696.16 339.84Q695.27 339.79 694.35 339.74Q693.44 339.69 692.59 339.57Q691.63 340.01 691.03 340.69Q690.43 341.36 690.43 342.26Q690.43 342.84 690.72 343.34Q691.02 343.84 691.63 344.20Q692.25 344.57 693.17 344.78Q694.10 345 695.36 345Q696.58 345 697.55 344.77Q698.52 344.55 699.19 344.14Q699.86 343.74 700.22 343.18Q700.58 342.62 700.58 341.94M698.98 324.46L703.65 324.46L703.65 325.58Q703.65 326.14 702.94 326.30L700.98 326.55Q701.56 327.67 701.56 329.03Q701.56 330.29 701.08 331.32Q700.59 332.35 699.74 333.08Q698.89 333.81 697.70 334.20Q696.51 334.59 695.12 334.59Q693.91 334.59 692.84 334.30Q692.30 334.64 692.01 335.02Q691.72 335.41 691.72 335.80Q691.72 336.41 692.22 336.72Q692.72 337.04 693.54 337.18Q694.35 337.31 695.40 337.35Q696.44 337.38 697.54 337.46Q698.64 337.53 699.68 337.72Q700.73 337.91 701.54 338.33Q702.36 338.76 702.86 339.50Q703.36 340.25 703.36 341.44Q703.36 342.55 702.81 343.58Q702.26 344.62 701.22 345.43Q700.18 346.24 698.68 346.72Q697.18 347.20 695.29 347.20Q693.40 347.20 691.99 346.83Q690.58 346.46 689.64 345.83Q688.71 345.20 688.24 344.37Q687.77 343.55 687.77 342.65Q687.77 341.37 688.57 340.49Q689.37 339.61 690.77 339.08Q690 338.74 689.55 338.17Q689.10 337.60 689.10 336.63Q689.10 336.26 689.24 335.86Q689.37 335.46 689.65 335.06Q689.93 334.66 690.34 334.30Q690.75 333.94 691.29 333.67Q690.02 332.96 689.30 331.78Q688.59 330.60 688.59 329.03Q688.59 327.77 689.08 326.75Q689.56 325.72 690.43 324.99Q691.29 324.27 692.49 323.88Q693.69 323.49 695.12 323.49Q696.24 323.49 697.21 323.74Q698.18 323.98 698.98 324.46M726.21 325.51L725.53 326.62Q725.33 326.99 724.90 326.99Q724.65 326.99 724.32 326.81Q724 326.62 723.53 326.39Q723.07 326.16 722.42 325.96Q721.77 325.77 720.89 325.77Q720.13 325.77 719.51 325.96Q718.90 326.16 718.47 326.50Q718.03 326.84 717.81 327.29Q717.58 327.74 717.58 328.27Q717.58 328.93 717.96 329.37Q718.34 329.81 718.97 330.14Q719.60 330.46 720.40 330.71Q721.20 330.95 722.04 331.23Q722.88 331.51 723.68 331.85Q724.48 332.19 725.11 332.70Q725.74 333.21 726.12 333.95Q726.50 334.69 726.50 335.73Q726.50 336.92 726.08 337.93Q725.65 338.94 724.82 339.68Q723.98 340.42 722.78 340.85Q721.57 341.27 719.99 341.27Q718.19 341.27 716.73 340.69Q715.26 340.10 714.24 339.18L714.96 338.02Q715.09 337.80 715.28 337.69Q715.47 337.57 715.76 337.57Q716.06 337.57 716.40 337.80Q716.74 338.04 717.23 338.33Q717.71 338.62 718.41 338.86Q719.11 339.10 720.14 339.10Q721.03 339.10 721.69 338.87Q722.35 338.64 722.79 338.25Q723.24 337.86 723.45 337.35Q723.66 336.83 723.66 336.26Q723.66 335.54 723.28 335.08Q722.90 334.61 722.27 334.28Q721.64 333.94 720.83 333.70Q720.02 333.45 719.18 333.18Q718.34 332.91 717.53 332.56Q716.73 332.21 716.10 331.68Q715.47 331.16 715.09 330.38Q714.70 329.61 714.70 328.50Q714.70 327.52 715.11 326.61Q715.52 325.70 716.30 325.01Q717.08 324.32 718.22 323.92Q719.36 323.51 720.82 323.51Q722.52 323.51 723.87 324.04Q725.23 324.58 726.21 325.51M732.33 330.51L741.75 330.51Q741.75 329.46 741.45 328.58Q741.15 327.71 740.59 327.07Q740.02 326.43 739.20 326.08Q738.38 325.73 737.35 325.73Q735.17 325.73 733.90 327Q732.64 328.27 732.33 330.51M743.35 337.48L744.20 338.59Q743.64 339.27 742.85 339.77Q742.07 340.27 741.18 340.59Q740.29 340.92 739.34 341.08Q738.38 341.24 737.45 341.24Q735.66 341.24 734.16 340.63Q732.65 340.03 731.56 338.87Q730.46 337.70 729.85 335.99Q729.24 334.27 729.24 332.04Q729.24 330.24 729.79 328.68Q730.34 327.11 731.38 325.96Q732.42 324.82 733.91 324.16Q735.41 323.51 737.28 323.51Q738.83 323.51 740.14 324.03Q741.46 324.54 742.42 325.52Q743.38 326.50 743.93 327.94Q744.47 329.37 744.47 331.21Q744.47 331.92 744.32 332.16Q744.16 332.40 743.74 332.40L732.23 332.40Q732.28 334.03 732.68 335.24Q733.08 336.44 733.79 337.25Q734.51 338.06 735.49 338.46Q736.48 338.86 737.70 338.86Q738.84 338.86 739.67 338.59Q740.49 338.33 741.09 338.02Q741.68 337.72 742.08 337.46Q742.48 337.19 742.77 337.19Q743.14 337.19 743.35 337.48M748.28 315.96L751.30 315.96L751.30 341L748.28 341L748.28 315.96M760.36 341L757.32 341L757.32 326.36L755.42 326.14Q755.06 326.06 754.83 325.88Q754.60 325.70 754.60 325.36L754.60 324.12L757.32 324.12L757.32 322.45Q757.32 320.97 757.74 319.83Q758.15 318.68 758.93 317.89Q759.70 317.10 760.79 316.69Q761.88 316.28 763.24 316.28Q764.39 316.28 765.36 316.62L765.29 318.13Q765.26 318.54 764.84 318.58Q764.43 318.61 763.73 318.61Q762.95 318.61 762.31 318.81Q761.67 319.02 761.21 319.48Q760.76 319.94 760.51 320.69Q760.26 321.43 760.26 322.54L760.26 324.12L765.23 324.12L765.23 326.31L760.36 326.31L760.36 341M767.84 332.09L767.84 329.52L776.24 329.52L776.24 332.09L767.84 332.09M783.79 315.96L783.79 326.07Q784.90 324.90 786.24 324.20Q787.58 323.51 789.33 323.51Q790.74 323.51 791.82 323.97Q792.90 324.44 793.63 325.30Q794.35 326.16 794.72 327.37Q795.10 328.57 795.10 330.04L795.10 341L792.05 341L792.05 330.04Q792.05 328.08 791.16 327Q790.27 325.92 788.45 325.92Q787.11 325.92 785.94 326.57Q784.78 327.21 783.79 328.32L783.79 341L780.75 341L780.75 315.96L783.79 315.96M806.98 323.51Q808.87 323.51 810.38 324.14Q811.89 324.76 812.96 325.92Q814.03 327.08 814.60 328.72Q815.17 330.36 815.17 332.38Q815.17 334.42 814.60 336.05Q814.03 337.69 812.96 338.84Q811.89 340 810.38 340.62Q808.87 341.24 806.98 341.24Q805.07 341.24 803.55 340.62Q802.03 340 800.96 338.84Q799.89 337.69 799.32 336.05Q798.75 334.42 798.75 332.38Q798.75 330.36 799.32 328.72Q799.89 327.08 800.96 325.92Q802.03 324.76 803.55 324.14Q805.07 323.51 806.98 323.51M806.98 338.88Q809.53 338.88 810.79 337.17Q812.04 335.46 812.04 332.40Q812.04 329.32 810.79 327.60Q809.53 325.89 806.98 325.89Q805.69 325.89 804.73 326.33Q803.77 326.77 803.13 327.60Q802.49 328.44 802.18 329.65Q801.86 330.87 801.86 332.40Q801.86 335.46 803.13 337.17Q804.39 338.88 806.98 338.88M829.71 325.51L829.03 326.62Q828.82 326.99 828.40 326.99Q828.14 326.99 827.82 326.81Q827.50 326.62 827.03 326.39Q826.56 326.16 825.92 325.96Q825.27 325.77 824.39 325.77Q823.62 325.77 823.01 325.96Q822.40 326.16 821.96 326.50Q821.53 326.84 821.30 327.29Q821.07 327.74 821.07 328.27Q821.07 328.93 821.45 329.37Q821.84 329.81 822.47 330.14Q823.09 330.46 823.89 330.71Q824.69 330.95 825.53 331.23Q826.38 331.51 827.17 331.85Q827.97 332.19 828.60 332.70Q829.23 333.21 829.61 333.95Q830 334.69 830 335.73Q830 336.92 829.57 337.93Q829.15 338.94 828.31 339.68Q827.48 340.42 826.27 340.85Q825.07 341.27 823.49 341.27Q821.68 341.27 820.22 340.69Q818.76 340.10 817.74 339.18L818.45 338.02Q818.59 337.80 818.78 337.69Q818.96 337.57 819.25 337.57Q819.56 337.57 819.90 337.80Q820.24 338.04 820.72 338.33Q821.21 338.62 821.90 338.86Q822.60 339.10 823.64 339.10Q824.52 339.10 825.19 338.87Q825.85 338.64 826.29 338.25Q826.73 337.86 826.95 337.35Q827.16 336.83 827.16 336.26Q827.16 335.54 826.77 335.08Q826.39 334.61 825.76 334.28Q825.13 333.94 824.33 333.70Q823.52 333.45 822.68 333.18Q821.84 332.91 821.03 332.56Q820.22 332.21 819.59 331.68Q818.96 331.16 818.58 330.38Q818.20 329.61 818.20 328.50Q818.20 327.52 818.61 326.61Q819.01 325.70 819.80 325.01Q820.58 324.32 821.72 323.92Q822.86 323.51 824.32 323.51Q826.02 323.51 827.37 324.04Q828.72 324.58 829.71 325.51M839.01 341.27Q836.97 341.27 835.87 340.13Q834.77 338.99 834.77 336.85L834.77 326.31L832.70 326.31Q832.43 326.31 832.24 326.15Q832.05 325.99 832.05 325.65L832.05 324.44L834.88 324.08L835.57 318.76Q835.62 318.51 835.80 318.35Q835.98 318.19 836.27 318.19L837.80 318.19L837.80 324.12L842.78 324.12L842.78 326.31L837.80 326.31L837.80 336.65Q837.80 337.74 838.33 338.26Q838.85 338.79 839.69 338.79Q840.16 338.79 840.51 338.66Q840.86 338.54 841.11 338.38Q841.37 338.23 841.55 338.10Q841.73 337.97 841.86 337.97Q842.10 337.97 842.29 338.26L843.17 339.71Q842.39 340.44 841.28 340.86Q840.18 341.27 839.01 341.27M848.02 330.51L857.43 330.51Q857.43 329.46 857.14 328.58Q856.84 327.71 856.27 327.07Q855.70 326.43 854.88 326.08Q854.07 325.73 853.03 325.73Q850.86 325.73 849.59 327Q848.32 328.27 848.02 330.51M859.03 337.48L859.88 338.59Q859.32 339.27 858.54 339.77Q857.76 340.27 856.87 340.59Q855.97 340.92 855.02 341.08Q854.07 341.24 853.13 341.24Q851.35 341.24 849.84 340.63Q848.34 340.03 847.24 338.87Q846.15 337.70 845.53 335.99Q844.92 334.27 844.92 332.04Q844.92 330.24 845.47 328.68Q846.03 327.11 847.06 325.96Q848.10 324.82 849.60 324.16Q851.09 323.51 852.96 323.51Q854.51 323.51 855.83 324.03Q857.15 324.54 858.11 325.52Q859.07 326.50 859.61 327.94Q860.15 329.37 860.15 331.21Q860.15 331.92 860 332.16Q859.85 332.40 859.42 332.40L847.91 332.40Q847.97 334.03 848.37 335.24Q848.76 336.44 849.48 337.25Q850.19 338.06 851.18 338.46Q852.16 338.86 853.39 338.86Q854.53 338.86 855.35 338.59Q856.18 338.33 856.77 338.02Q857.37 337.72 857.77 337.46Q858.17 337.19 858.45 337.19Q858.83 337.19 859.03 337.48M875.08 336.19L875.08 327.88Q874.23 326.74 873.24 326.29Q872.26 325.84 871.03 325.84Q868.64 325.84 867.35 327.55Q866.05 329.27 866.05 332.45Q866.05 334.13 866.34 335.33Q866.63 336.53 867.19 337.30Q867.75 338.08 868.57 338.43Q869.39 338.79 870.42 338.79Q871.92 338.79 873.03 338.11Q874.15 337.43 875.08 336.19M875.08 315.96L878.11 315.96L878.11 341L876.30 341Q875.66 341 875.49 340.37L875.22 338.28Q874.11 339.61 872.70 340.42Q871.29 341.24 869.44 341.24Q867.96 341.24 866.75 340.67Q865.54 340.10 864.69 338.99Q863.84 337.89 863.38 336.24Q862.93 334.59 862.93 332.45Q862.93 330.55 863.44 328.90Q863.95 327.26 864.90 326.06Q865.85 324.85 867.23 324.16Q868.62 323.47 870.35 323.47Q871.94 323.47 873.07 324.01Q874.20 324.54 875.08 325.50L875.08 315.96M896.89 341.27Q894.85 341.27 893.75 340.13Q892.66 338.99 892.66 336.85L892.66 326.31L890.58 326.31Q890.31 326.31 890.13 326.15Q889.94 325.99 889.94 325.65L889.94 324.44L892.76 324.08L893.46 318.76Q893.51 318.51 893.69 318.35Q893.87 318.19 894.15 318.19L895.68 318.19L895.68 324.12L900.67 324.12L900.67 326.31L895.68 326.31L895.68 336.65Q895.68 337.74 896.21 338.26Q896.74 338.79 897.57 338.79Q898.05 338.79 898.40 338.66Q898.74 338.54 899 338.38Q899.25 338.23 899.43 338.10Q899.61 337.97 899.75 337.97Q899.99 337.97 900.17 338.26L901.06 339.71Q900.27 340.44 899.17 340.86Q898.06 341.27 896.89 341.27M911.05 323.51Q912.94 323.51 914.45 324.14Q915.97 324.76 917.04 325.92Q918.11 327.08 918.68 328.72Q919.25 330.36 919.25 332.38Q919.25 334.42 918.68 336.05Q918.11 337.69 917.04 338.84Q915.97 340 914.45 340.62Q912.94 341.24 911.05 341.24Q909.15 341.24 907.63 340.62Q906.11 340 905.03 338.84Q903.96 337.69 903.39 336.05Q902.82 334.42 902.82 332.38Q902.82 330.36 903.39 328.72Q903.96 327.08 905.03 325.92Q906.11 324.76 907.63 324.14Q909.15 323.51 911.05 323.51M911.05 338.88Q913.60 338.88 914.86 337.17Q916.12 335.46 916.12 332.40Q916.12 329.32 914.86 327.60Q913.60 325.89 911.05 325.89Q909.76 325.89 908.80 326.33Q907.84 326.77 907.20 327.60Q906.56 328.44 906.25 329.65Q905.94 330.87 905.94 332.40Q905.94 335.46 907.20 337.17Q908.47 338.88 911.05 338.88M930.33 323.51Q932.22 323.51 933.73 324.14Q935.24 324.76 936.31 325.92Q937.39 327.08 937.95 328.72Q938.52 330.36 938.52 332.38Q938.52 334.42 937.95 336.05Q937.39 337.69 936.31 338.84Q935.24 340 933.73 340.62Q932.22 341.24 930.33 341.24Q928.43 341.24 926.90 340.62Q925.38 340 924.31 338.84Q923.24 337.69 922.67 336.05Q922.10 334.42 922.10 332.38Q922.10 330.36 922.67 328.72Q923.24 327.08 924.31 325.92Q925.38 324.76 926.90 324.14Q928.43 323.51 930.33 323.51M930.33 338.88Q932.88 338.88 934.14 337.17Q935.40 335.46 935.40 332.40Q935.40 329.32 934.14 327.60Q932.88 325.89 930.33 325.89Q929.04 325.89 928.08 326.33Q927.12 326.77 926.48 327.60Q925.84 328.44 925.53 329.65Q925.21 330.87 925.21 332.40Q925.21 335.46 926.48 337.17Q927.75 338.88 930.33 338.88M942.45 315.96L945.48 315.96L945.48 341L942.45 341L942.45 315.96M961.08 325.51L960.40 326.62Q960.20 326.99 959.77 326.99Q959.52 326.99 959.20 326.81Q958.87 326.62 958.41 326.39Q957.94 326.16 957.29 325.96Q956.65 325.77 955.76 325.77Q955 325.77 954.39 325.96Q953.77 326.16 953.34 326.50Q952.91 326.84 952.68 327.29Q952.45 327.74 952.45 328.27Q952.45 328.93 952.83 329.37Q953.21 329.81 953.84 330.14Q954.47 330.46 955.27 330.71Q956.07 330.95 956.91 331.23Q957.75 331.51 958.55 331.85Q959.35 332.19 959.98 332.70Q960.61 333.21 960.99 333.95Q961.37 334.69 961.37 335.73Q961.37 336.92 960.95 337.93Q960.52 338.94 959.69 339.68Q958.86 340.42 957.65 340.85Q956.44 341.27 954.86 341.27Q953.06 341.27 951.60 340.69Q950.14 340.10 949.12 339.18L949.83 338.02Q949.97 337.80 950.15 337.69Q950.34 337.57 950.63 337.57Q950.93 337.57 951.27 337.80Q951.61 338.04 952.10 338.33Q952.58 338.62 953.28 338.86Q953.98 339.10 955.01 339.10Q955.90 339.10 956.56 338.87Q957.22 338.64 957.67 338.25Q958.11 337.86 958.32 337.35Q958.53 336.83 958.53 336.26Q958.53 335.54 958.15 335.08Q957.77 334.61 957.14 334.28Q956.51 333.94 955.70 333.70Q954.90 333.45 954.05 333.18Q953.21 332.91 952.40 332.56Q951.60 332.21 950.97 331.68Q950.34 331.16 949.96 330.38Q949.57 329.61 949.57 328.50Q949.57 327.52 949.98 326.61Q950.39 325.70 951.17 325.01Q951.95 324.32 953.09 323.92Q954.23 323.51 955.69 323.51Q957.39 323.51 958.75 324.04Q960.10 324.58 961.08 325.51M977.96 341L974.92 341L974.92 326.36L973.02 326.14Q972.66 326.06 972.43 325.88Q972.20 325.70 972.20 325.36L972.20 324.12L974.92 324.12L974.92 322.45Q974.92 320.97 975.34 319.83Q975.75 318.68 976.53 317.89Q977.30 317.10 978.39 316.69Q979.48 316.28 980.84 316.28Q981.99 316.28 982.96 316.62L982.89 318.13Q982.86 318.54 982.44 318.58Q982.03 318.61 981.33 318.61Q980.55 318.61 979.91 318.81Q979.27 319.02 978.81 319.48Q978.36 319.94 978.11 320.69Q977.86 321.43 977.86 322.54L977.86 324.12L982.83 324.12L982.83 326.31L977.96 326.31L977.96 341M992.98 323.51Q994.86 323.51 996.38 324.14Q997.89 324.76 998.96 325.92Q1000.03 327.08 1000.60 328.72Q1001.17 330.36 1001.17 332.38Q1001.17 334.42 1000.60 336.05Q1000.03 337.69 998.96 338.84Q997.89 340 996.38 340.62Q994.86 341.24 992.98 341.24Q991.07 341.24 989.55 340.62Q988.03 340 986.96 338.84Q985.89 337.69 985.32 336.05Q984.75 334.42 984.75 332.38Q984.75 330.36 985.32 328.72Q985.89 327.08 986.96 325.92Q988.03 324.76 989.55 324.14Q991.07 323.51 992.98 323.51M992.98 338.88Q995.53 338.88 996.78 337.17Q998.04 335.46 998.04 332.40Q998.04 329.32 996.78 327.60Q995.53 325.89 992.98 325.89Q991.68 325.89 990.72 326.33Q989.76 326.77 989.12 327.60Q988.49 328.44 988.17 329.65Q987.86 330.87 987.86 332.40Q987.86 335.46 989.12 337.17Q990.39 338.88 992.98 338.88M1007.66 324.61L1007.87 327.23Q1008.68 325.46 1009.87 324.47Q1011.06 323.47 1012.78 323.47Q1013.32 323.47 1013.83 323.59Q1014.33 323.71 1014.72 323.97L1014.50 326.23Q1014.40 326.65 1013.99 326.65Q1013.75 326.65 1013.29 326.55Q1012.83 326.45 1012.25 326.45Q1011.44 326.45 1010.80 326.69Q1010.16 326.92 1009.66 327.39Q1009.16 327.86 1008.76 328.55Q1008.36 329.24 1008.04 330.12L1008.04 341L1004.99 341L1004.99 323.78L1006.73 323.78Q1007.22 323.78 1007.41 323.97Q1007.60 324.15 1007.66 324.61M1036.19 338.38Q1037.70 338.38 1038.89 337.87Q1040.08 337.36 1040.91 336.44Q1041.73 335.53 1042.16 334.25Q1042.60 332.98 1042.60 331.45L1042.60 316.64L1045.88 316.64L1045.88 331.45Q1045.88 333.55 1045.21 335.36Q1044.54 337.16 1043.29 338.48Q1042.04 339.79 1040.24 340.54Q1038.43 341.29 1036.19 341.29Q1033.95 341.29 1032.14 340.54Q1030.34 339.79 1029.08 338.48Q1027.83 337.16 1027.15 335.36Q1026.48 333.55 1026.48 331.45L1026.48 316.64L1029.76 316.64L1029.76 331.43Q1029.76 332.96 1030.20 334.23Q1030.63 335.51 1031.45 336.43Q1032.28 337.35 1033.48 337.86Q1034.68 338.38 1036.19 338.38M1053.70 324.41L1053.94 326.28Q1054.50 325.65 1055.13 325.14Q1055.76 324.63 1056.46 324.26Q1057.17 323.90 1057.96 323.70Q1058.75 323.51 1059.67 323.51Q1061.08 323.51 1062.16 323.97Q1063.24 324.44 1063.96 325.30Q1064.68 326.16 1065.06 327.37Q1065.43 328.57 1065.43 330.04L1065.43 341L1062.39 341L1062.39 330.04Q1062.39 328.08 1061.49 327Q1060.60 325.92 1058.78 325.92Q1057.44 325.92 1056.27 326.57Q1055.11 327.21 1054.12 328.32L1054.12 341L1051.08 341L1051.08 323.78L1052.90 323.78Q1053.55 323.78 1053.70 324.41M1072.72 324.61L1072.93 327.23Q1073.74 325.46 1074.93 324.47Q1076.12 323.47 1077.84 323.47Q1078.38 323.47 1078.88 323.59Q1079.39 323.71 1079.78 323.97L1079.56 326.23Q1079.45 326.65 1079.05 326.65Q1078.81 326.65 1078.35 326.55Q1077.89 326.45 1077.31 326.45Q1076.50 326.45 1075.86 326.69Q1075.22 326.92 1074.72 327.39Q1074.22 327.86 1073.82 328.55Q1073.42 329.24 1073.10 330.12L1073.10 341L1070.05 341L1070.05 323.78L1071.79 323.78Q1072.28 323.78 1072.47 323.97Q1072.65 324.15 1072.72 324.61M1091.76 336.82L1091.76 333.25Q1089.67 333.32 1088.20 333.58Q1086.73 333.84 1085.80 334.27Q1084.88 334.69 1084.46 335.27Q1084.04 335.85 1084.04 336.56Q1084.04 337.24 1084.27 337.74Q1084.49 338.23 1084.87 338.54Q1085.25 338.86 1085.77 339Q1086.29 339.15 1086.88 339.15Q1087.68 339.15 1088.35 338.99Q1089.01 338.82 1089.59 338.52Q1090.18 338.21 1090.72 337.79Q1091.25 337.36 1091.76 336.82M1082.53 327.18L1081.99 326.21Q1083.42 324.83 1085.06 324.15Q1086.71 323.47 1088.72 323.47Q1090.16 323.47 1091.29 323.95Q1092.41 324.43 1093.17 325.27Q1093.94 326.13 1094.33 327.33Q1094.72 328.54 1094.72 329.98L1094.72 341L1093.38 341Q1092.94 341 1092.70 340.86Q1092.46 340.71 1092.32 340.29L1091.98 338.65Q1091.30 339.28 1090.66 339.77Q1090.01 340.25 1089.30 340.58Q1088.58 340.92 1087.78 341.09Q1086.97 341.27 1085.98 341.27Q1084.98 341.27 1084.10 340.99Q1083.21 340.71 1082.56 340.15Q1081.90 339.59 1081.52 338.73Q1081.14 337.87 1081.14 336.70Q1081.14 335.68 1081.70 334.74Q1082.26 333.79 1083.52 333.06Q1084.78 332.33 1086.80 331.86Q1088.82 331.39 1091.76 331.33L1091.76 329.98Q1091.76 327.98 1090.90 326.95Q1090.03 325.92 1088.36 325.92Q1087.24 325.92 1086.48 326.20Q1085.73 326.48 1085.17 326.83Q1084.62 327.18 1084.22 327.46Q1083.82 327.74 1083.43 327.74Q1083.13 327.74 1082.91 327.58Q1082.68 327.42 1082.53 327.18M1099.50 323.78L1102.52 323.78L1102.52 341L1099.50 341L1099.50 323.78M1103.17 318.37Q1103.17 318.81 1102.99 319.20Q1102.81 319.58 1102.51 319.88Q1102.22 320.18 1101.82 320.35Q1101.42 320.51 1100.98 320.51Q1100.53 320.51 1100.15 320.35Q1099.77 320.18 1099.48 319.88Q1099.19 319.58 1099.02 319.20Q1098.85 318.81 1098.85 318.37Q1098.85 317.93 1099.02 317.53Q1099.19 317.13 1099.48 316.83Q1099.77 316.54 1100.15 316.37Q1100.53 316.20 1100.98 316.20Q1101.42 316.20 1101.82 316.37Q1102.22 316.54 1102.51 316.83Q1102.81 317.13 1102.99 317.53Q1103.17 317.93 1103.17 318.37M1118.71 336.19L1118.71 327.88Q1117.86 326.74 1116.87 326.29Q1115.89 325.84 1114.66 325.84Q1112.26 325.84 1110.97 327.55Q1109.68 329.27 1109.68 332.45Q1109.68 334.13 1109.97 335.33Q1110.26 336.53 1110.82 337.30Q1111.38 338.08 1112.20 338.43Q1113.01 338.79 1114.05 338.79Q1115.55 338.79 1116.66 338.11Q1117.77 337.43 1118.71 336.19M1118.71 315.96L1121.73 315.96L1121.73 341L1119.93 341Q1119.29 341 1119.12 340.37L1118.84 338.28Q1117.74 339.61 1116.33 340.42Q1114.92 341.24 1113.06 341.24Q1111.58 341.24 1110.38 340.67Q1109.17 340.10 1108.32 338.99Q1107.47 337.89 1107.01 336.24Q1106.55 334.59 1106.55 332.45Q1106.55 330.55 1107.06 328.90Q1107.57 327.26 1108.52 326.06Q1109.48 324.85 1110.86 324.16Q1112.25 323.47 1113.98 323.47Q1115.56 323.47 1116.69 324.01Q1117.82 324.54 1118.71 325.50L1118.71 315.96M1148.24 336.24L1141.05 329Q1139.24 329.95 1138.33 331.31Q1137.42 332.67 1137.42 334.27Q1137.42 335.37 1137.83 336.21Q1138.24 337.06 1138.90 337.63Q1139.57 338.21 1140.42 338.51Q1141.27 338.81 1142.15 338.81Q1144.05 338.81 1145.58 338.11Q1147.10 337.41 1148.24 336.24M1151.65 335.81L1156.75 341L1153.81 341Q1153.32 341 1153.01 340.88Q1152.71 340.76 1152.35 340.39L1149.89 337.91Q1148.29 339.45 1146.20 340.36Q1144.12 341.27 1141.62 341.27Q1140.26 341.27 1138.96 340.81Q1137.66 340.35 1136.63 339.48Q1135.59 338.60 1134.96 337.35Q1134.33 336.09 1134.33 334.51Q1134.33 333.32 1134.73 332.25Q1135.13 331.19 1135.84 330.29Q1136.56 329.39 1137.53 328.68Q1138.50 327.96 1139.65 327.45Q1138.61 326.13 1138.12 324.89Q1137.63 323.66 1137.63 322.33Q1137.63 321.09 1138.08 320Q1138.53 318.92 1139.38 318.11Q1140.23 317.30 1141.44 316.83Q1142.66 316.37 1144.17 316.37Q1145.52 316.37 1146.62 316.80Q1147.73 317.23 1148.53 317.95Q1149.32 318.66 1149.79 319.61Q1150.26 320.55 1150.33 321.57L1148.44 321.94Q1147.88 322.08 1147.61 321.42Q1147.49 320.97 1147.22 320.50Q1146.96 320.02 1146.54 319.63Q1146.13 319.24 1145.54 318.99Q1144.96 318.73 1144.17 318.73Q1143.32 318.73 1142.63 319Q1141.95 319.27 1141.46 319.76Q1140.98 320.24 1140.72 320.90Q1140.47 321.55 1140.47 322.32Q1140.47 322.91 1140.60 323.46Q1140.74 324 1141.04 324.56Q1141.33 325.12 1141.79 325.70Q1142.25 326.28 1142.90 326.92L1149.90 334.05Q1150.55 332.89 1150.94 331.64Q1151.33 330.39 1151.45 329.15Q1151.48 328.83 1151.65 328.64Q1151.82 328.45 1152.13 328.45L1153.98 328.45Q1153.97 330.41 1153.37 332.29Q1152.78 334.17 1151.65 335.81M1189.97 328.83Q1189.97 331.56 1189.10 333.81Q1188.24 336.05 1186.66 337.65Q1185.08 339.25 1182.86 340.12Q1180.64 341 1177.95 341L1168.86 341L1168.86 316.64L1177.95 316.64Q1180.64 316.64 1182.86 317.51Q1185.08 318.39 1186.66 320Q1188.24 321.60 1189.10 323.85Q1189.97 326.09 1189.97 328.83M1186.59 328.83Q1186.59 326.58 1185.98 324.82Q1185.36 323.05 1184.24 321.82Q1183.12 320.60 1181.52 319.95Q1179.92 319.31 1177.95 319.31L1172.16 319.31L1172.16 338.33L1177.95 338.33Q1179.92 338.33 1181.52 337.69Q1183.12 337.04 1184.24 335.82Q1185.36 334.61 1185.98 332.84Q1186.59 331.07 1186.59 328.83M1201.26 323.51Q1203.15 323.51 1204.66 324.14Q1206.17 324.76 1207.24 325.92Q1208.31 327.08 1208.88 328.72Q1209.45 330.36 1209.45 332.38Q1209.45 334.42 1208.88 336.05Q1208.31 337.69 1207.24 338.84Q1206.17 340 1204.66 340.62Q1203.15 341.24 1201.26 341.24Q1199.36 341.24 1197.83 340.62Q1196.31 340 1195.24 338.84Q1194.17 337.69 1193.60 336.05Q1193.03 334.42 1193.03 332.38Q1193.03 330.36 1193.60 328.72Q1194.17 327.08 1195.24 325.92Q1196.31 324.76 1197.83 324.14Q1199.36 323.51 1201.26 323.51M1201.26 338.88Q1203.81 338.88 1205.07 337.17Q1206.33 335.46 1206.33 332.40Q1206.33 329.32 1205.07 327.60Q1203.81 325.89 1201.26 325.89Q1199.97 325.89 1199.01 326.33Q1198.05 326.77 1197.41 327.60Q1196.77 328.44 1196.46 329.65Q1196.14 330.87 1196.14 332.40Q1196.14 335.46 1197.41 337.17Q1198.68 338.88 1201.26 338.88M1226.06 325.75L1225.26 326.84Q1225.13 327.03 1224.99 327.13Q1224.86 327.23 1224.62 327.23Q1224.36 327.23 1224.06 327.02Q1223.75 326.81 1223.30 326.55Q1222.85 326.30 1222.19 326.08Q1221.54 325.87 1220.59 325.87Q1219.31 325.87 1218.34 326.32Q1217.38 326.77 1216.72 327.62Q1216.07 328.47 1215.73 329.68Q1215.40 330.88 1215.40 332.38Q1215.40 333.94 1215.76 335.16Q1216.12 336.38 1216.77 337.20Q1217.43 338.02 1218.35 338.46Q1219.28 338.89 1220.44 338.89Q1221.54 338.89 1222.25 338.63Q1222.97 338.37 1223.44 338.04Q1223.90 337.72 1224.22 337.46Q1224.53 337.19 1224.84 337.19Q1225.21 337.19 1225.42 337.48L1226.27 338.59Q1225.71 339.28 1224.99 339.78Q1224.28 340.27 1223.45 340.60Q1222.63 340.93 1221.73 341.08Q1220.83 341.24 1219.89 341.24Q1218.28 341.24 1216.89 340.64Q1215.51 340.05 1214.49 338.92Q1213.47 337.79 1212.89 336.14Q1212.31 334.49 1212.31 332.38Q1212.31 330.46 1212.84 328.83Q1213.38 327.20 1214.41 326.01Q1215.44 324.83 1216.94 324.17Q1218.45 323.51 1220.40 323.51Q1222.22 323.51 1223.61 324.09Q1224.99 324.68 1226.06 325.75M1229.51 315.96L1232.56 315.96L1232.56 330.70L1233.34 330.70Q1233.68 330.70 1233.91 330.60Q1234.14 330.51 1234.39 330.22L1239.83 324.39Q1240.07 324.10 1240.33 323.94Q1240.60 323.78 1241.04 323.78L1243.78 323.78L1237.44 330.53Q1236.98 331.11 1236.45 331.43Q1236.76 331.63 1237 331.90Q1237.25 332.16 1237.47 332.50L1244.20 341L1241.50 341Q1241.11 341 1240.83 340.87Q1240.55 340.75 1240.34 340.40L1234.68 333.35Q1234.43 332.99 1234.18 332.88Q1233.93 332.77 1233.42 332.77L1232.56 332.77L1232.56 341L1229.51 341L1229.51 315.96M1248.89 330.51L1258.31 330.51Q1258.31 329.46 1258.01 328.58Q1257.72 327.71 1257.15 327.07Q1256.58 326.43 1255.76 326.08Q1254.95 325.73 1253.91 325.73Q1251.73 325.73 1250.47 327Q1249.20 328.27 1248.89 330.51M1259.91 337.48L1260.76 338.59Q1260.20 339.27 1259.42 339.77Q1258.63 340.27 1257.74 340.59Q1256.85 340.92 1255.90 341.08Q1254.95 341.24 1254.01 341.24Q1252.23 341.24 1250.72 340.63Q1249.22 340.03 1248.12 338.87Q1247.02 337.70 1246.41 335.99Q1245.80 334.27 1245.80 332.04Q1245.80 330.24 1246.35 328.68Q1246.90 327.11 1247.94 325.96Q1248.98 324.82 1250.47 324.16Q1251.97 323.51 1253.84 323.51Q1255.39 323.51 1256.70 324.03Q1258.02 324.54 1258.98 325.52Q1259.94 326.50 1260.49 327.94Q1261.03 329.37 1261.03 331.21Q1261.03 331.92 1260.88 332.16Q1260.73 332.40 1260.30 332.40L1248.79 332.40Q1248.84 334.03 1249.24 335.24Q1249.64 336.44 1250.36 337.25Q1251.07 338.06 1252.06 338.46Q1253.04 338.86 1254.27 338.86Q1255.40 338.86 1256.23 338.59Q1257.05 338.33 1257.65 338.02Q1258.24 337.72 1258.64 337.46Q1259.04 337.19 1259.33 337.19Q1259.71 337.19 1259.91 337.48M1267.41 324.61L1267.61 327.23Q1268.43 325.46 1269.62 324.47Q1270.81 323.47 1272.52 323.47Q1273.07 323.47 1273.57 323.59Q1274.07 323.71 1274.46 323.97L1274.24 326.23Q1274.14 326.65 1273.73 326.65Q1273.49 326.65 1273.03 326.55Q1272.57 326.45 1272 326.45Q1271.18 326.45 1270.54 326.69Q1269.91 326.92 1269.40 327.39Q1268.90 327.86 1268.50 328.55Q1268.10 329.24 1267.78 330.12L1267.78 341L1264.74 341L1264.74 323.78L1266.47 323.78Q1266.96 323.78 1267.15 323.97Q1267.34 324.15 1267.41 324.61M1276.60 339.13Q1276.60 338.69 1276.76 338.30Q1276.93 337.91 1277.21 337.62Q1277.49 337.33 1277.88 337.16Q1278.27 336.99 1278.71 336.99Q1279.15 336.99 1279.54 337.16Q1279.94 337.33 1280.22 337.62Q1280.51 337.91 1280.68 338.30Q1280.85 338.69 1280.85 339.13Q1280.85 339.59 1280.68 339.97Q1280.51 340.35 1280.22 340.64Q1279.94 340.93 1279.54 341.09Q1279.15 341.25 1278.71 341.25Q1278.27 341.25 1277.88 341.09Q1277.49 340.93 1277.21 340.64Q1276.93 340.35 1276.76 339.97Q1276.60 339.59 1276.60 339.13" fill="#9198a1"/>
</svg>
