<?xml version="1.0" encoding="UTF-8"?>
<svg xmlns="http://www.w3.org/2000/svg" viewBox="0 0 1600 132" width="1600" height="132" role="img" aria-label="Templates">
  <rect width="1600" height="132" fill="#ffffff"/>
  <rect x="37" y="24" width="6" height="84" rx="4" fill="#8b949e"/>
  <path d="M79.52 84.06L79.52 55.91L74.68 55.91Q73.25 55.91 73.25 57.83L73.25 60.74L66.93 60.31L66.93 49.77L99.36 49.77L99.36 60.31L93.03 60.74L93.03 57.83Q93.03 56.78 92.72 56.34Q92.41 55.91 91.23 55.91L87.02 55.91L87.02 85.54L91.92 85.73L91.92 91L74.43 91L74.43 85.98L77.72 85.79Q79.52 85.61 79.52 84.06M117.89 58.88Q122.54 58.88 125.27 61.15Q128 63.41 128 67.50Q128 70.23 126.82 72.31Q125.64 74.38 123.91 75.56Q122.17 76.74 119.69 77.48Q115.54 78.72 110.33 78.72Q110.52 82.01 112.38 84.03Q114.24 86.04 118.08 86.04Q121.92 86.04 125.77 83.31L128.12 88.33Q126.88 89.45 123.94 90.63Q120.99 91.81 117.21 91.81Q109.65 91.81 106.11 87.62Q102.58 83.44 102.58 76.12Q102.58 68.80 106.61 63.84Q110.64 58.88 117.89 58.88M115.07 73.05Q117.34 72.65 119.26 71.25Q121.18 69.86 121.18 67.94Q121.18 64.15 117.46 64.15Q113.99 64.15 112.13 66.91Q110.27 69.67 110.08 73.52Q112.81 73.45 115.07 73.05M134.57 65.02L131.97 64.84L131.97 59.81L142.45 59.81L142.45 63.84Q145.92 58.88 151.96 58.88Q158.01 58.88 160.12 63.84Q163.59 58.88 169.54 58.88Q174 58.88 176.42 61.58Q178.84 64.28 178.84 69.67L178.84 85.85L182.37 86.04L182.37 91L167.62 91L167.62 86.29L169.66 86.10Q170.59 85.98 171 85.58Q171.40 85.17 171.46 84.12L171.46 71.28Q171.46 67.87 170.69 66.23Q169.91 64.59 167.06 64.59Q164.21 64.59 162.69 66.32Q161.17 68.06 161.17 70.97L161.17 85.85L164.58 86.04L164.58 91L149.95 91L149.95 86.29L151.99 86.10Q152.92 85.98 153.36 85.58Q153.79 85.17 153.79 84.06L153.79 71.28Q153.79 67.87 153.02 66.23Q152.24 64.59 149.36 64.59Q146.48 64.59 144.99 66.39Q143.50 68.18 143.50 70.85L143.50 85.85L146.85 86.04L146.85 91L132.22 91L132.22 86.29L134.26 86.10Q135.19 85.98 135.63 85.58Q136.06 85.17 136.06 84.06L136.12 84.06L136.12 66.94Q136.12 65.89 135.78 65.49Q135.44 65.08 134.57 65.02M189.50 96.89L189.50 66.88Q189.50 65.83 189.16 65.42Q188.82 65.02 187.95 65.02L185.35 64.84L185.35 59.81L195.83 59.81L195.83 63.84Q196.82 61.98 199.42 60.43Q202.03 58.88 205.62 58.88Q216.85 58.88 216.85 74.63Q216.85 83 213.19 87.47Q209.53 91.93 203.27 91.93Q199.55 91.93 196.63 90.13L196.63 98.69L201.66 98.94L201.66 103.83L185.66 103.83L185.66 99.12L187.71 98.94Q188.64 98.81 189.07 98.41Q189.50 98.01 189.50 96.89M209.16 75.25Q209.16 64.90 202.90 64.90Q200.29 64.90 198.46 66.48Q196.63 68.06 196.63 70.23L196.63 84.49Q198.99 86.04 202.37 86.04Q205.75 86.04 207.45 82.94Q209.16 79.84 209.16 75.25M221.25 46.79L232.35 46.79L232.35 85.85L235.88 86.04L235.88 91L221.12 91L221.12 86.29L223.17 86.10Q224.97 85.92 224.97 84.12L224.97 53.55Q224.97 52.19 223.42 52.06L221.25 51.94L221.25 46.79M267.56 61.05L267.56 84.12Q267.56 85.11 267.90 85.48Q268.24 85.85 269.11 85.92L271.10 86.04L271.10 91L261.24 91L261.24 87.40L261.05 87.34Q257.95 91.81 252.56 91.81Q246.23 91.81 243.20 87.78Q240.16 83.75 240.16 76.74Q240.16 68.31 244.25 63.60Q248.34 58.88 256.53 58.88Q261.80 58.88 267.56 61.05M260.37 81.14L260.37 65.08Q258.63 64.28 255.60 64.28Q251.44 64.28 249.58 67.63Q247.72 70.97 247.72 76.49Q247.72 86.54 254.17 86.54Q256.90 86.54 258.63 84.89Q260.37 83.25 260.37 81.14M280.52 53.24L284.55 53.24L284.55 59.81L292.80 59.81L292.18 65.02L284.55 65.02L284.55 81.33Q284.55 84.06 285.54 85.14Q286.53 86.23 288.61 86.23Q290.69 86.23 292.80 84.92L294.66 89.70Q291.56 91.87 286.78 91.87Q283.99 91.87 282.07 91.16Q280.15 90.44 279.22 89.57Q278.29 88.71 277.79 87.03Q277.30 85.36 277.23 84.40Q277.17 83.44 277.17 81.58L277.17 65.02L272.77 65.02L273.39 60.50Q276.30 60.25 277.79 58.42Q279.28 56.59 280.52 53.24M312.57 58.88Q317.22 58.88 319.95 61.15Q322.68 63.41 322.68 67.50Q322.68 70.23 321.50 72.31Q320.32 74.38 318.59 75.56Q316.85 76.74 314.37 77.48Q310.22 78.72 305.01 78.72Q305.20 82.01 307.06 84.03Q308.92 86.04 312.76 86.04Q316.60 86.04 320.45 83.31L322.80 88.33Q321.56 89.45 318.62 90.63Q315.67 91.81 311.89 91.81Q304.33 91.81 300.79 87.62Q297.26 83.44 297.26 76.12Q297.26 68.80 301.29 63.84Q305.32 58.88 312.57 58.88M309.75 73.05Q312.02 72.65 313.94 71.25Q315.86 69.86 315.86 67.94Q315.86 64.15 312.14 64.15Q308.67 64.15 306.81 66.91Q304.95 69.67 304.76 73.52Q307.49 73.45 309.75 73.05M343.26 64.53Q341.78 63.97 339.67 63.97Q337.56 63.97 336.29 64.93Q335.02 65.89 335.02 67.28Q335.02 68.68 335.48 69.45Q335.95 70.23 336.94 70.79Q338.49 71.59 340.66 72.18Q342.83 72.77 343.88 73.11Q344.94 73.45 346.52 74.26Q348.10 75.07 348.91 76Q351.08 78.29 351.08 81.89Q351.08 86.54 347.70 89.17Q344.32 91.81 339.11 91.81Q331.55 91.81 327.70 89.88L327.70 81.27L333.28 80.83L333.28 83.81Q333.28 86.54 338.49 86.54Q343.70 86.54 343.70 82.75Q343.70 81.39 342.80 80.52Q341.90 79.65 341.03 79.34Q340.16 79.03 338.95 78.72Q337.75 78.41 336.60 78.10Q335.45 77.79 334.12 77.27Q332.79 76.74 331.17 75.75Q328.01 73.70 328.01 68.90Q328.01 64.09 331.42 61.49Q334.83 58.88 340.01 58.88Q345.19 58.88 350.27 61.36L350.27 68.80L344.69 69.24L344.69 66.63Q344.69 65.08 343.26 64.53" fill="#1f2328"/>
</svg>
