<?xml version="1.0" encoding="UTF-8"?>
<svg xmlns="http://www.w3.org/2000/svg" viewBox="0 0 1600 132" width="1600" height="132" role="img" aria-label="Containers">
  <rect width="1600" height="132" fill="#0d1117"/>
  <rect x="37" y="24" width="6" height="84" rx="4" fill="#6e7681"/>
  <path d="M93.03 56.34Q92.35 55.16 87.95 55.16Q82.18 55.16 79.21 59.07Q76.23 62.98 76.23 70.35Q76.23 85.67 87.70 85.67Q87.89 85.67 89.34 85.67Q90.80 85.67 92.10 85.27Q93.40 84.86 93.65 84.43Q93.90 83.99 93.90 83.06L93.90 78.10L100.22 78.54L100.22 89.26Q95.39 91.81 87.95 91.81Q78.46 91.81 73.47 86.47Q68.48 81.14 68.48 70.60Q68.48 64.77 70.15 60.43Q71.83 56.09 74.68 53.68Q80.26 49.03 87.95 49.03Q94.15 49.03 99.60 51.57L99.60 62.11L93.28 62.54L93.28 57.71Q93.28 56.78 93.03 56.34M119.63 86.47Q126.39 86.47 126.39 75.56Q126.39 70.04 124.87 67.19Q123.35 64.34 119.78 64.34Q116.22 64.34 114.55 67.07Q112.87 69.80 112.87 74.51Q112.87 83.25 116.10 85.48Q117.52 86.47 119.63 86.47M105.37 75.38Q105.37 70.79 106.73 67.41Q108.10 64.03 110.39 62.23Q114.79 58.88 120.13 58.88Q123.85 58.88 126.42 60.09Q128.99 61.30 130.45 62.88Q131.91 64.46 132.93 67.47Q133.95 70.48 133.95 74.57Q133.95 83.13 129.80 87.53Q125.64 91.93 119.16 91.93Q112.69 91.93 109.03 87.75Q105.37 83.56 105.37 75.38M140.34 64.96L137.73 64.77L137.73 59.81L148.21 59.81L148.21 63.84Q149.82 61.55 152.49 60.22Q155.16 58.88 158.26 58.88Q162.97 58.88 165.54 61.58Q168.11 64.28 168.11 69.67L168.11 85.85L171.65 86.04L171.65 91L156.89 91L156.89 86.29L158.94 86.10Q159.87 85.98 160.30 85.58Q160.74 85.17 160.74 84.06L160.74 71.28Q160.74 67.87 159.68 66.23Q158.63 64.59 155.68 64.59Q152.74 64.59 151 66.45Q149.27 68.31 149.27 70.85L149.27 85.85L152.80 86.04L152.80 91L138.04 91L138.04 86.29L140.09 86.10Q141.02 85.98 141.45 85.58Q141.89 85.17 141.89 84.06L141.89 66.88Q141.89 65.02 140.34 64.96M179.71 53.24L183.74 53.24L183.74 59.81L191.98 59.81L191.36 65.02L183.74 65.02L183.74 81.33Q183.74 84.06 184.73 85.14Q185.72 86.23 187.80 86.23Q189.88 86.23 191.98 84.92L193.84 89.70Q190.74 91.87 185.97 91.87Q183.18 91.87 181.26 91.16Q179.34 90.44 178.41 89.57Q177.48 88.71 176.98 87.03Q176.48 85.36 176.42 84.40Q176.36 83.44 176.36 81.58L176.36 65.02L171.96 65.02L172.58 60.50Q175.49 60.25 176.98 58.42Q178.47 56.59 179.71 53.24M224.04 61.05L224.04 84.12Q224.04 85.11 224.38 85.48Q224.72 85.85 225.59 85.92L227.57 86.04L227.57 91L217.71 91L217.71 87.40L217.53 87.34Q214.43 91.81 209.03 91.81Q202.71 91.81 199.67 87.78Q196.63 83.75 196.63 76.74Q196.63 68.31 200.73 63.60Q204.82 58.88 213 58.88Q218.27 58.88 224.04 61.05M216.85 81.14L216.85 65.08Q215.11 64.28 212.07 64.28Q207.92 64.28 206.06 67.63Q204.20 70.97 204.20 76.49Q204.20 86.54 210.65 86.54Q213.37 86.54 215.11 84.89Q216.85 83.25 216.85 81.14M231.48 59.81L242.58 59.81L242.58 85.85L246.11 86.04L246.11 91L231.35 91L231.35 86.29L233.40 86.10Q235.20 85.92 235.20 84.12L235.20 66.88Q235.20 65.83 234.86 65.46Q234.52 65.08 233.65 65.08L231.48 64.96L231.48 59.81M234.76 54.45Q233.46 53.18 233.46 51.20Q233.46 49.21 234.76 47.88Q236.07 46.55 238.17 46.55Q240.28 46.55 241.61 47.88Q242.95 49.21 242.95 51.20Q242.95 53.18 241.61 54.45Q240.28 55.72 238.17 55.72Q236.07 55.72 234.76 54.45M251.94 64.96L249.33 64.77L249.33 59.81L259.81 59.81L259.81 63.84Q261.42 61.55 264.09 60.22Q266.76 58.88 269.86 58.88Q274.57 58.88 277.14 61.58Q279.71 64.28 279.71 69.67L279.71 85.85L283.25 86.04L283.25 91L268.49 91L268.49 86.29L270.54 86.10Q271.47 85.98 271.90 85.58Q272.34 85.17 272.34 84.06L272.34 71.28Q272.34 67.87 271.28 66.23Q270.23 64.59 267.28 64.59Q264.34 64.59 262.60 66.45Q260.87 68.31 260.87 70.85L260.87 85.85L264.40 86.04L264.40 91L249.64 91L249.64 86.29L251.69 86.10Q252.62 85.98 253.05 85.58Q253.49 85.17 253.49 84.06L253.49 66.88Q253.49 65.02 251.94 64.96M302.47 58.88Q307.12 58.88 309.85 61.15Q312.57 63.41 312.57 67.50Q312.57 70.23 311.40 72.31Q310.22 74.38 308.48 75.56Q306.75 76.74 304.27 77.48Q300.11 78.72 294.90 78.72Q295.09 82.01 296.95 84.03Q298.81 86.04 302.65 86.04Q306.50 86.04 310.34 83.31L312.70 88.33Q311.46 89.45 308.51 90.63Q305.57 91.81 301.79 91.81Q294.22 91.81 290.69 87.62Q287.15 83.44 287.15 76.12Q287.15 68.80 291.18 63.84Q295.21 58.88 302.47 58.88M299.65 73.05Q301.91 72.65 303.83 71.25Q305.75 69.86 305.75 67.94Q305.75 64.15 302.03 64.15Q298.56 64.15 296.70 66.91Q294.84 69.67 294.66 73.52Q297.38 73.45 299.65 73.05M320.76 84.06L320.76 66.88Q320.76 65.89 320.42 65.49Q320.08 65.08 319.21 65.02L316.60 64.84L316.60 59.81L327.08 59.81L327.08 64.46Q328.20 62.05 330.55 60.47Q332.91 58.88 335.98 58.88Q339.05 58.88 341.84 60.25L341.84 69.49L336.07 69.92L336.07 67.07Q336.07 65.83 335.45 65.52Q334.77 65.21 333.78 65.21Q331.30 65.21 329.72 66.97Q328.14 68.74 328.14 71.47L328.14 85.85L333.53 86.10L333.53 91L316.91 91L316.91 86.29L318.96 86.10Q319.89 85.98 320.32 85.58Q320.76 85.17 320.76 84.06M360.87 64.53Q359.38 63.97 357.28 63.97Q355.17 63.97 353.90 64.93Q352.63 65.89 352.63 67.28Q352.63 68.68 353.09 69.45Q353.56 70.23 354.55 70.79Q356.10 71.59 358.27 72.18Q360.44 72.77 361.49 73.11Q362.55 73.45 364.13 74.26Q365.71 75.07 366.51 76Q368.68 78.29 368.68 81.89Q368.68 86.54 365.31 89.17Q361.93 91.81 356.72 91.81Q349.15 91.81 345.31 89.88L345.31 81.27L350.89 80.83L350.89 83.81Q350.89 86.54 356.10 86.54Q361.31 86.54 361.31 82.75Q361.31 81.39 360.41 80.52Q359.51 79.65 358.64 79.34Q357.77 79.03 356.56 78.72Q355.35 78.41 354.21 78.10Q353.06 77.79 351.73 77.27Q350.39 76.74 348.78 75.75Q345.62 73.70 345.62 68.90Q345.62 64.09 349.03 61.49Q352.44 58.88 357.62 58.88Q362.79 58.88 367.88 61.36L367.88 68.80L362.30 69.24L362.30 66.63Q362.30 65.08 360.87 64.53" fill="#f0f6fc"/>
</svg>
