<?xml version="1.0" encoding="UTF-8"?>
<svg xmlns="http://www.w3.org/2000/svg" viewBox="0 0 1600 132" width="1600" height="132" role="img" aria-label="Support">
  <rect width="1600" height="132" fill="#ffffff"/>
  <rect x="37" y="24" width="6" height="84" rx="4" fill="#8b949e"/>
  <path d="M80.94 85.42Q88.38 85.42 88.38 79.47Q88.38 76.37 85.10 74.88Q83.36 74.01 80.60 73.27Q77.84 72.52 76.01 71.75Q74.18 70.97 72.32 69.61Q68.67 66.88 68.67 61.21Q68.67 55.54 72.60 52.28Q76.54 49.03 82.89 49.03Q89.25 49.03 94.71 51.57L94.71 60.87L88.38 61.30L88.38 57.71Q88.38 56.78 88.13 56.34Q87.45 55.16 83.76 55.16Q80.07 55.16 78.31 56.47Q76.54 57.77 76.54 60.50Q76.54 62.48 78.03 63.97Q79.02 64.96 80.97 65.61Q82.93 66.26 85.13 66.94Q87.33 67.63 89.03 68.43Q90.74 69.24 92.60 70.66Q96.38 73.45 96.38 79.28Q96.38 85.11 92.19 88.46Q88.01 91.81 81.16 91.81Q74.31 91.81 68.85 89.26L68.85 79.47L75.18 79.03L75.18 82.82Q75.18 83.75 75.42 84.18Q75.67 84.61 76.94 85.02Q78.21 85.42 80.94 85.42M129.86 85.92L132.03 86.10L132.03 91L121.99 91L121.99 86.97Q118.58 91.81 111.94 91.81Q102.33 91.81 102.33 81.08L102.33 66.76Q102.33 65.08 100.78 65.02L98.80 64.90L98.80 59.81L109.71 59.81L109.71 79.47Q109.71 82.75 110.64 84.43Q111.57 86.10 114.48 86.10Q117.40 86.10 119.17 84.30Q120.93 82.51 120.93 79.96L120.93 66.88Q120.93 65.89 120.59 65.49Q120.25 65.08 119.38 65.02L117.40 64.90L117.40 59.81L128.31 59.81L128.31 84.12Q128.31 85.11 128.62 85.45Q128.93 85.79 129.86 85.92M138.66 96.89L138.66 66.88Q138.66 65.83 138.32 65.42Q137.98 65.02 137.11 65.02L134.51 64.84L134.51 59.81L144.99 59.81L144.99 63.84Q145.98 61.98 148.58 60.43Q151.19 58.88 154.78 58.88Q166.01 58.88 166.01 74.63Q166.01 83 162.35 87.47Q158.69 91.93 152.43 91.93Q148.71 91.93 145.79 90.13L145.79 98.69L150.82 98.94L150.82 103.83L134.82 103.83L134.82 99.12L136.87 98.94Q137.80 98.81 138.23 98.41Q138.66 98.01 138.66 96.89M158.32 75.25Q158.32 64.90 152.06 64.90Q149.45 64.90 147.62 66.48Q145.79 68.06 145.79 70.23L145.79 84.49Q148.15 86.04 151.53 86.04Q154.91 86.04 156.61 82.94Q158.32 79.84 158.32 75.25M173.88 96.89L173.88 66.88Q173.88 65.83 173.54 65.42Q173.20 65.02 172.33 65.02L169.73 64.84L169.73 59.81L180.20 59.81L180.20 63.84Q181.20 61.98 183.80 60.43Q186.40 58.88 NaN 58.88Q201.22 58.88 201.22 74.63Q201.22 83 197.56 87.47Q193.91 91.93 187.64 91.93Q183.92 91.93 181.01 90.13L181.01 98.69L186.03 98.94L186.03 103.83L170.04 103.83L170.04 99.12L172.08 98.94Q173.01 98.81 173.45 98.41Q173.88 98.01 173.88 96.89M193.53 75.25Q193.53 64.90 187.27 64.90Q184.67 64.90 182.84 66.48Q181.01 68.06 181.01 70.23L181.01 84.49Q183.37 86.04 186.75 86.04Q190.12 86.04 191.83 82.94Q193.53 79.84 193.53 75.25M219.88 86.47Q226.64 86.47 226.64 75.56Q226.64 70.04 225.12 67.19Q223.60 64.34 220.04 64.34Q216.47 64.34 214.80 67.07Q213.13 69.80 213.13 74.51Q213.13 83.25 216.35 85.48Q217.78 86.47 219.88 86.47M205.62 75.38Q205.62 70.79 206.99 67.41Q208.35 64.03 210.65 62.23Q215.05 58.88 220.38 58.88Q224.10 58.88 226.67 60.09Q229.25 61.30 230.70 62.88Q232.16 64.46 233.18 67.47Q234.21 70.48 234.21 74.57Q234.21 83.13 230.05 87.53Q225.90 91.93 219.42 91.93Q212.94 91.93 209.28 87.75Q205.62 83.56 205.62 75.38M242.20 84.06L242.20 66.88Q242.20 65.89 241.86 65.49Q241.52 65.08 240.65 65.02L238.05 64.84L238.05 59.81L248.53 59.81L248.53 64.46Q249.64 62.05 NaN 60.47Q254.36 58.88 257.43 58.88Q260.49 58.88 263.28 60.25L263.28 69.49L257.52 69.92L257.52 67.07Q257.52 65.83 256.90 65.52Q256.22 65.21 255.22 65.21Q252.74 65.21 251.16 66.97Q249.58 68.74 249.58 71.47L249.58 85.85L254.98 86.10L254.98 91L238.36 91L238.36 86.29L240.41 86.10Q241.34 85.98 241.77 85.58Q242.20 85.17 242.20 84.06M273.89 53.24L277.92 53.24L277.92 59.81L286.16 59.81L285.54 65.02L277.92 65.02L277.92 81.33Q277.92 84.06 278.91 85.14Q279.90 86.23 281.98 86.23Q284.05 86.23 286.16 84.92L288.02 89.70Q284.92 91.87 280.15 91.87Q277.36 91.87 275.44 91.16Q273.51 90.44 272.58 89.57Q271.65 88.71 271.16 87.03Q270.66 85.36 270.60 84.40Q270.54 83.44 270.54 81.58L270.54 65.02L266.14 65.02L266.76 60.50Q269.67 60.25 271.16 58.42Q272.65 56.59 273.89 53.24" fill="#1f2328"/>
</svg>
