<?xml version="1.0" encoding="UTF-8"?>
<svg xmlns="http://www.w3.org/2000/svg" viewBox="0 0 960 112" width="960" height="112" role="img" aria-label="Feed &amp; extras">
  <rect width="960" height="112" fill="#ffffff"/>
  <rect x="30" y="15" width="8" height="81" rx="4" fill="#8b949e"/>
  <path d="M82.42 80L66.04 80L66.04 75.14L68.02 74.96Q69.76 74.78 69.76 73.28L69.76 45.38L66.34 45.20L66.34 40.10L95.32 40.10L95.32 50.06L89.20 50.48L89.20 48.08Q89.20 47.06 88.90 46.64Q88.60 46.22 87.46 46.22L77.08 46.22L77.08 56.84L91.84 56.84L91.84 62.96L77.08 62.96L77.08 74.72L82.42 74.90L82.42 80M113.62 48.92Q118.12 48.92 120.76 51.11Q123.40 53.30 123.40 57.26Q123.40 59.90 122.26 61.91Q121.12 63.92 119.44 65.06Q117.76 66.20 115.36 66.92Q111.34 68.12 106.30 68.12Q106.48 71.30 108.28 73.25Q110.08 75.20 113.80 75.20Q117.52 75.20 121.24 72.56L123.52 77.42Q122.32 78.50 119.47 79.64Q116.62 80.78 112.96 80.78Q105.64 80.78 102.22 76.73Q98.80 72.68 98.80 65.60Q98.80 58.52 102.70 53.72Q106.60 48.92 113.62 48.92M110.89 62.63Q113.08 62.24 114.94 60.89Q116.80 59.54 116.80 57.68Q116.80 54.02 113.20 54.02Q109.84 54.02 108.04 56.69Q106.24 59.36 106.06 63.08Q108.70 63.02 110.89 62.63M142.66 48.92Q147.16 48.92 149.80 51.11Q152.44 53.30 152.44 57.26Q152.44 59.90 151.30 61.91Q150.16 63.92 148.48 65.06Q146.80 66.20 144.40 66.92Q140.38 68.12 135.34 68.12Q135.52 71.30 137.32 73.25Q139.12 75.20 142.84 75.20Q146.56 75.20 150.28 72.56L152.56 77.42Q151.36 78.50 148.51 79.64Q145.66 80.78 142 80.78Q134.68 80.78 131.26 76.73Q127.84 72.68 127.84 65.60Q127.84 58.52 131.74 53.72Q135.64 48.92 142.66 48.92M139.93 62.63Q142.12 62.24 143.98 60.89Q145.84 59.54 145.84 57.68Q145.84 54.02 142.24 54.02Q138.88 54.02 137.08 56.69Q135.28 59.36 135.10 63.08Q137.74 63.02 139.93 62.63M171.70 48.92Q174.28 48.92 176.62 49.64L176.62 43.58Q176.62 42.26 175.06 42.14L172.48 41.96L172.48 37.22L183.64 37.22L183.64 73.70Q183.70 75.08 185.14 75.08L187.24 75.20L187.24 80L177.52 80L177.52 76.46L177.34 76.40Q174.64 80.78 169.18 80.78Q162.34 80.78 159.58 76.22Q157.06 72.08 157.06 66.08Q157.06 58.28 160.93 53.60Q164.80 48.92 171.70 48.92M176.62 70.64L176.62 55.10Q174.46 54.14 172.06 54.14Q168.10 54.14 166.27 57.32Q164.44 60.50 164.44 65.42Q164.44 75.50 170.92 75.50Q173.38 75.50 175 74.09Q176.62 72.68 176.62 70.64M229.24 66.80Q230.38 63.92 230.38 61.28Q230.38 60.44 229.30 60.32L227.38 60.20L227.38 55.52L240.04 55.52L240.04 60.38L236.74 60.50Q236.74 66.26 234.22 71.06Q236.92 73.34 241.78 76.82L237.82 82.04Q234.22 79.64 230.26 76.40Q225.82 80.84 218.26 80.84Q210.70 80.84 207.22 77.30Q203.74 73.76 203.74 68.66Q203.74 60.74 211.06 56.18Q209.20 53.12 209.20 49.58Q209.20 45.02 212.26 42.20Q215.32 39.38 220.87 39.38Q226.42 39.38 231.70 41.84L231.70 50.90L225.58 51.32L225.58 47.66Q225.58 45.98 224.32 45.56Q222.70 45.08 221.14 45.08Q216.28 45.08 216.28 49.70Q216.28 55.82 229.24 66.80M225.22 72.20Q218.02 66.08 214.36 61.16Q210.70 63.74 210.70 68.18Q210.70 71.24 212.59 73.13Q214.48 75.02 218.59 75.02Q222.70 75.02 225.22 72.20M272.62 48.92Q277.12 48.92 279.76 51.11Q282.40 53.30 282.40 57.26Q282.40 59.90 281.26 61.91Q280.12 63.92 278.44 65.06Q276.76 66.20 274.36 66.92Q270.34 68.12 265.30 68.12Q265.48 71.30 267.28 73.25Q269.08 75.20 272.80 75.20Q276.52 75.20 280.24 72.56L282.52 77.42Q281.32 78.50 278.47 79.64Q275.62 80.78 271.96 80.78Q264.64 80.78 261.22 76.73Q257.80 72.68 257.80 65.60Q257.80 58.52 261.70 53.72Q265.60 48.92 272.62 48.92M269.89 62.63Q272.08 62.24 273.94 60.89Q275.80 59.54 275.80 57.68Q275.80 54.02 272.20 54.02Q268.84 54.02 267.04 56.69Q265.24 59.36 265.06 63.08Q267.70 63.02 269.89 62.63M303.76 73.64L300.10 68.84L295.12 75.02L297.94 75.20L297.94 80L285.46 80L285.46 75.26L287.32 75.08Q288.70 74.90 289.72 73.64L296.62 65L289.24 54.80L286.18 54.44L286.18 49.82L300.16 49.82L300.16 54.56L298.42 54.68Q297.70 54.74 297.49 55.22Q297.28 55.70 297.70 56.24L301.12 60.80L305.74 54.80L303.28 54.62L303.28 49.82L315.46 49.82L315.46 54.50L313.66 54.62Q312.40 54.68 311.26 56.12L304.66 64.46L312.52 74.90L315.58 75.26L315.58 80L301.30 80L301.30 75.26L303.16 75.14Q303.94 75.08 304.09 74.63Q304.24 74.18 303.76 73.64M325.30 43.46L329.20 43.46L329.20 49.82L337.18 49.82L336.58 54.86L329.20 54.86L329.20 70.64Q329.20 73.28 330.16 74.33Q331.12 75.38 333.13 75.38Q335.14 75.38 337.18 74.12L338.98 78.74Q335.98 80.84 331.36 80.84Q328.66 80.84 326.80 80.15Q324.94 79.46 324.04 78.62Q323.14 77.78 322.66 76.16Q322.18 74.54 322.12 73.61Q322.06 72.68 322.06 70.88L322.06 54.86L317.80 54.86L318.40 50.48Q321.22 50.24 322.66 48.47Q324.10 46.70 325.30 43.46M344.98 73.28L344.98 56.66Q344.98 55.70 344.65 55.31Q344.32 54.92 343.48 54.86L340.96 54.68L340.96 49.82L351.10 49.82L351.10 54.32Q352.18 51.98 354.46 50.45Q356.74 48.92 359.71 48.92Q362.68 48.92 365.38 50.24L365.38 59.18L359.80 59.60L359.80 56.84Q359.80 55.64 359.20 55.34Q358.54 55.04 357.58 55.04Q355.18 55.04 353.65 56.75Q352.12 58.46 352.12 61.10L352.12 75.02L357.34 75.26L357.34 80L341.26 80L341.26 75.44L343.24 75.26Q344.14 75.14 344.56 74.75Q344.98 74.36 344.98 73.28M395.92 51.02L395.92 73.34Q395.92 74.30 396.25 74.66Q396.58 75.02 397.42 75.08L399.34 75.20L399.34 80L389.80 80L389.80 76.52L389.62 76.46Q386.62 80.78 381.40 80.78Q375.28 80.78 372.34 76.88Q369.40 72.98 369.40 66.20Q369.40 58.04 373.36 53.48Q377.32 48.92 385.24 48.92Q390.34 48.92 395.92 51.02M388.96 70.46L388.96 54.92Q387.28 54.14 384.34 54.14Q380.32 54.14 378.52 57.38Q376.72 60.62 376.72 65.96Q376.72 75.68 382.96 75.68Q385.60 75.68 387.28 74.09Q388.96 72.50 388.96 70.46M418.72 54.38Q417.28 53.84 415.24 53.84Q413.20 53.84 411.97 54.77Q410.74 55.70 410.74 57.05Q410.74 58.40 411.19 59.15Q411.64 59.90 412.60 60.44Q414.10 61.22 416.20 61.79Q418.30 62.36 419.32 62.69Q420.34 63.02 421.87 63.80Q423.40 64.58 424.18 65.48Q426.28 67.70 426.28 71.18Q426.28 75.68 423.01 78.23Q419.74 80.78 414.70 80.78Q407.38 80.78 403.66 78.92L403.66 70.58L409.06 70.16L409.06 73.04Q409.06 75.68 414.10 75.68Q419.14 75.68 419.14 72.02Q419.14 70.70 418.27 69.86Q417.40 69.02 416.56 68.72Q415.72 68.42 414.55 68.12Q413.38 67.82 412.27 67.52Q411.16 67.22 409.87 66.71Q408.58 66.20 407.02 65.24Q403.96 63.26 403.96 58.61Q403.96 53.96 407.26 51.44Q410.56 48.92 415.57 48.92Q420.58 48.92 425.50 51.32L425.50 58.52L420.10 58.94L420.10 56.42Q420.10 54.92 418.72 54.38" fill="#1f2328"/>
</svg>
