<?xml version="1.0" encoding="UTF-8"?>
<svg xmlns="http://www.w3.org/2000/svg" viewBox="0 0 960 112" width="960" height="112" role="img" aria-label="Templates">
  <rect width="960" height="112" fill="#ffffff"/>
  <rect x="30" y="15" width="8" height="81" rx="4" fill="#8b949e"/>
  <path d="M77.08 73.28L77.08 46.04L72.40 46.04Q71.02 46.04 71.02 47.90L71.02 50.72L64.90 50.30L64.90 40.10L96.28 40.10L96.28 50.30L90.16 50.72L90.16 47.90Q90.16 46.88 89.86 46.46Q89.56 46.04 88.42 46.04L84.34 46.04L84.34 74.72L89.08 74.90L89.08 80L72.16 80L72.16 75.14L75.34 74.96Q77.08 74.78 77.08 73.28M114.22 48.92Q118.72 48.92 121.36 51.11Q124 53.30 124 57.26Q124 59.90 122.86 61.91Q121.72 63.92 120.04 65.06Q118.36 66.20 115.96 66.92Q111.94 68.12 106.90 68.12Q107.08 71.30 108.88 73.25Q110.68 75.20 114.40 75.20Q118.12 75.20 121.84 72.56L124.12 77.42Q122.92 78.50 120.07 79.64Q117.22 80.78 113.56 80.78Q106.24 80.78 102.82 76.73Q99.40 72.68 99.40 65.60Q99.40 58.52 103.30 53.72Q107.20 48.92 114.22 48.92M111.49 62.63Q113.68 62.24 115.54 60.89Q117.40 59.54 117.40 57.68Q117.40 54.02 113.80 54.02Q110.44 54.02 108.64 56.69Q106.84 59.36 106.66 63.08Q109.30 63.02 111.49 62.63M130.36 54.86L127.84 54.68L127.84 49.82L137.98 49.82L137.98 53.72Q141.34 48.92 147.19 48.92Q153.04 48.92 155.08 53.72Q158.44 48.92 164.20 48.92Q168.52 48.92 170.86 51.53Q173.20 54.14 173.20 59.36L173.20 75.02L176.62 75.20L176.62 80L162.34 80L162.34 75.44L164.32 75.26Q165.22 75.14 165.61 74.75Q166 74.36 166.06 73.34L166.06 60.92Q166.06 57.62 165.31 56.03Q164.56 54.44 161.80 54.44Q159.04 54.44 157.57 56.12Q156.10 57.80 156.10 60.62L156.10 75.02L159.40 75.20L159.40 80L145.24 80L145.24 75.44L147.22 75.26Q148.12 75.14 148.54 74.75Q148.96 74.36 148.96 73.28L148.96 60.92Q148.96 57.62 148.21 56.03Q147.46 54.44 144.67 54.44Q141.88 54.44 140.44 56.18Q139 57.92 139 60.50L139 75.02L142.24 75.20L142.24 80L128.08 80L128.08 75.44L130.06 75.26Q130.96 75.14 131.38 74.75Q131.80 74.36 131.80 73.28L131.86 73.28L131.86 56.72Q131.86 55.70 131.53 55.31Q131.20 54.92 130.36 54.86M183.52 85.70L183.52 56.66Q183.52 55.64 183.19 55.25Q182.86 54.86 182.02 54.86L179.50 54.68L179.50 49.82L189.64 49.82L189.64 53.72Q190.60 51.92 193.12 50.42Q195.64 48.92 199.12 48.92Q209.98 48.92 209.98 64.16Q209.98 72.26 206.44 76.58Q202.90 80.90 196.84 80.90Q193.24 80.90 190.42 79.16L190.42 87.44L195.28 87.68L195.28 92.42L179.80 92.42L179.80 87.86L181.78 87.68Q182.68 87.56 183.10 87.17Q183.52 86.78 183.52 85.70M202.54 64.76Q202.54 54.74 196.48 54.74Q193.96 54.74 192.19 56.27Q190.42 57.80 190.42 59.90L190.42 73.70Q192.70 75.20 195.97 75.20Q199.24 75.20 200.89 72.20Q202.54 69.20 202.54 64.76M214.24 37.22L224.98 37.22L224.98 75.02L228.40 75.20L228.40 80L214.12 80L214.12 75.44L216.10 75.26Q217.84 75.08 217.84 73.34L217.84 43.76Q217.84 42.44 216.34 42.32L214.24 42.20L214.24 37.22M259.06 51.02L259.06 73.34Q259.06 74.30 259.39 74.66Q259.72 75.02 260.56 75.08L262.48 75.20L262.48 80L252.94 80L252.94 76.52L252.76 76.46Q249.76 80.78 244.54 80.78Q238.42 80.78 235.48 76.88Q232.54 72.98 232.54 66.20Q232.54 58.04 236.50 53.48Q240.46 48.92 248.38 48.92Q253.48 48.92 259.06 51.02M252.10 70.46L252.10 54.92Q250.42 54.14 247.48 54.14Q243.46 54.14 241.66 57.38Q239.86 60.62 239.86 65.96Q239.86 75.68 246.10 75.68Q248.74 75.68 250.42 74.09Q252.10 72.50 252.10 70.46M271.60 43.46L275.50 43.46L275.50 49.82L283.48 49.82L282.88 54.86L275.50 54.86L275.50 70.64Q275.50 73.28 276.46 74.33Q277.42 75.38 279.43 75.38Q281.44 75.38 283.48 74.12L285.28 78.74Q282.28 80.84 277.66 80.84Q274.96 80.84 273.10 80.15Q271.24 79.46 270.34 78.62Q269.44 77.78 268.96 76.16Q268.48 74.54 268.42 73.61Q268.36 72.68 268.36 70.88L268.36 54.86L264.10 54.86L264.70 50.48Q267.52 50.24 268.96 48.47Q270.40 46.70 271.60 43.46M302.62 48.92Q307.12 48.92 309.76 51.11Q312.40 53.30 312.40 57.26Q312.40 59.90 311.26 61.91Q310.12 63.92 308.44 65.06Q306.76 66.20 304.36 66.92Q300.34 68.12 295.30 68.12Q295.48 71.30 297.28 73.25Q299.08 75.20 302.80 75.20Q306.52 75.20 310.24 72.56L312.52 77.42Q311.32 78.50 308.47 79.64Q305.62 80.78 301.96 80.78Q294.64 80.78 291.22 76.73Q287.80 72.68 287.80 65.60Q287.80 58.52 291.70 53.72Q295.60 48.92 302.62 48.92M299.89 62.63Q302.08 62.24 303.94 60.89Q305.80 59.54 305.80 57.68Q305.80 54.02 302.20 54.02Q298.84 54.02 297.04 56.69Q295.24 59.36 295.06 63.08Q297.70 63.02 299.89 62.63M332.32 54.38Q330.88 53.84 328.84 53.84Q326.80 53.84 325.57 54.77Q324.34 55.70 324.34 57.05Q324.34 58.40 324.79 59.15Q325.24 59.90 326.20 60.44Q327.70 61.22 329.80 61.79Q331.90 62.36 332.92 62.69Q333.94 63.02 335.47 63.80Q337 64.58 337.78 65.48Q339.88 67.70 339.88 71.18Q339.88 75.68 336.61 78.23Q333.34 80.78 328.30 80.78Q320.98 80.78 317.26 78.92L317.26 70.58L322.66 70.16L322.66 73.04Q322.66 75.68 327.70 75.68Q332.74 75.68 332.74 72.02Q332.74 70.70 331.87 69.86Q331 69.02 330.16 68.72Q329.32 68.42 328.15 68.12Q326.98 67.82 325.87 67.52Q324.76 67.22 323.47 66.71Q322.18 66.20 320.62 65.24Q317.56 63.26 317.56 58.61Q317.56 53.96 320.86 51.44Q324.16 48.92 329.17 48.92Q334.18 48.92 339.10 51.32L339.10 58.52L333.70 58.94L333.70 56.42Q333.70 54.92 332.32 54.38" fill="#1f2328"/>
</svg>
