<?xml version="1.0" encoding="UTF-8"?>
<svg xmlns="http://www.w3.org/2000/svg" viewBox="0 0 960 112" width="960" height="112" role="img" aria-label="Templates">
  <rect width="960" height="112" fill="#ffffff"/>
  <rect x="30" y="16" width="8" height="80" rx="4" fill="#8b949e"/>
  <path d="M76.86 72.39L76.86 45.61L72.26 45.61Q70.90 45.61 70.90 47.44L70.90 50.21L64.89 49.80L64.89 39.77L95.74 39.77L95.74 49.80L89.72 50.21L89.72 47.44Q89.72 46.43 89.43 46.02Q89.13 45.61 88.01 45.61L84 45.61L84 73.81L88.66 73.98L88.66 79L72.02 79L72.02 74.22L75.15 74.04Q76.86 73.87 76.86 72.39M113.38 48.44Q117.81 48.44 120.40 50.59QNaN 52.74 NaN 56.64QNaN 59.23 121.88 61.21Q120.76 63.19 119.11 64.31Q117.45 65.43 115.09 66.14Q111.14 67.32 106.19 67.32Q106.36 70.44 108.13 72.36Q109.90 74.28 113.56 74.28Q117.22 74.28 120.88 71.68L123.12 76.46Q121.94 77.53 119.14 78.65Q116.33 79.77 112.73 79.77Q105.54 79.77 102.17 75.78Q98.81 71.80 98.81 64.84Q98.81 57.88 102.65 53.16Q106.48 48.44 113.38 48.44M110.70 61.92Q112.85 61.54 114.68 60.21Q116.51 58.88 116.51 57.05Q116.51 53.45 112.97 53.45Q109.67 53.45 107.90 56.08Q106.13 58.70 105.95 62.36Q108.55 62.30 110.70 61.92M129.25 54.28L126.78 54.10L126.78 49.32L136.75 49.32L136.75 53.16Q140.05 48.44 145.80 48.44Q151.56 48.44 153.56 53.16Q156.87 48.44 162.53 48.44Q166.78 48.44 169.08 51Q171.38 53.57 171.38 58.70L171.38 74.10L174.74 74.28L174.74 79L160.70 79L160.70 74.52L162.65 74.34Q163.53 74.22 163.92 73.84Q164.30 73.45 164.36 72.45L164.36 60.24Q164.36 56.99 163.62 55.43Q162.88 53.87 160.17 53.87Q157.46 53.87 156.01 55.52Q154.56 57.17 154.56 59.94L154.56 74.10L157.81 74.28L157.81 79L143.89 79L143.89 74.52L145.83 74.34Q146.72 74.22 147.13 73.84Q147.54 73.45 147.54 72.39L147.54 60.24Q147.54 56.99 146.81 55.43Q146.07 53.87 143.33 53.87Q140.58 53.87 139.17 55.58Q137.75 57.29 137.75 59.83L137.75 74.10L140.94 74.28L140.94 79L127.01 79L127.01 74.52L128.96 74.34Q129.84 74.22 130.26 73.84Q130.67 73.45 130.67 72.39L130.73 72.39L130.73 56.11Q130.73 55.10 130.40 54.72Q130.08 54.34 129.25 54.28M181.53 84.61L181.53 56.05Q181.53 55.05 181.20 54.66Q180.88 54.28 180.05 54.28L177.58 54.10L177.58 49.32L187.55 49.32L187.55 53.16Q188.49 51.39 190.97 49.91Q193.45 48.44 196.87 48.44Q207.55 48.44 207.55 63.42Q207.55 71.39 204.07 75.64Q200.59 79.89 194.63 79.89Q191.09 79.89 188.31 78.17L188.31 86.32L193.09 86.55L193.09 91.21L177.87 91.21L177.87 86.73L179.82 86.55Q180.70 86.43 181.12 86.05Q181.53 85.67 181.53 84.61M200.23 64.01Q200.23 54.16 194.27 54.16Q191.79 54.16 190.05 55.67Q188.31 57.17 188.31 59.23L188.31 72.81Q190.56 74.28 193.77 74.28Q196.99 74.28 198.61 71.33Q200.23 68.38 200.23 64.01M211.74 36.93L222.30 36.93L222.30 74.10L225.66 74.28L225.66 79L211.62 79L211.62 74.52L213.57 74.34Q215.28 74.16 215.28 72.45L215.28 43.36Q215.28 42.07 213.80 41.95L211.74 41.83L211.74 36.93M255.81 50.50L255.81 72.45Q255.81 73.39 256.13 73.75Q256.46 74.10 257.28 74.16L259.17 74.28L259.17 79L249.79 79L249.79 75.58L249.61 75.52Q246.66 79.77 241.53 79.77Q235.51 79.77 232.62 75.93Q229.73 72.10 229.73 65.43Q229.73 57.41 233.63 52.92Q237.52 48.44 245.31 48.44Q250.32 48.44 255.81 50.50M248.97 69.62L248.97 54.34Q247.31 53.57 244.42 53.57Q240.47 53.57 238.70 56.76Q236.93 59.94 236.93 65.19Q236.93 74.75 243.06 74.75Q245.66 74.75 247.31 73.19Q248.97 71.63 248.97 69.62M268.14 43.07L271.98 43.07L271.98 49.32L279.82 49.32L279.23 54.28L271.98 54.28L271.98 69.80Q271.98 72.39 272.92 73.42Q273.86 74.46 275.84 74.46Q277.82 74.46 279.82 73.22L281.59 77.76Q278.64 79.83 274.10 79.83Q271.44 79.83 269.62 79.15Q267.79 78.47 266.90 77.64Q266.02 76.82 265.54 75.22Q265.07 73.63 265.01 72.72Q264.95 71.80 264.95 70.03L264.95 54.28L260.76 54.28L261.36 49.97Q264.13 49.74 265.54 48Q266.96 46.25 268.14 43.07M298.64 48.44Q303.07 48.44 305.66 50.59Q308.26 52.74 308.26 56.64Q308.26 59.23 307.14 61.21Q306.02 63.19 304.37 64.31Q302.71 65.43 300.35 66.14Q296.40 67.32 291.44 67.32Q291.62 70.44 293.39 72.36Q295.16 74.28 298.82 74.28Q302.48 74.28 306.14 71.68L308.38 76.46Q307.20 77.53 304.40 78.65Q301.59 79.77 297.99 79.77Q290.80 79.77 287.43 75.78Q284.07 71.80 284.07 64.84Q284.07 57.88 287.90 53.16Q291.74 48.44 298.64 48.44M295.96 61.92Q298.11 61.54 299.94 60.21Q301.77 58.88 301.77 57.05Q301.77 53.45 298.23 53.45Q294.93 53.45 293.16 56.08Q291.39 58.70 291.21 62.36Q293.81 62.30 295.96 61.92M327.85 53.81Q326.43 53.28 324.43 53.28Q322.42 53.28 321.21 54.19Q320 55.10 320 56.43Q320 57.76 320.44 58.50Q320.89 59.23 321.83 59.77Q323.31 60.53 325.37 61.09Q327.44 61.65 328.44 61.98Q329.44 62.30 330.95 63.07Q332.45 63.84 333.22 64.72Q335.28 66.91 335.28 70.33Q335.28 74.75 332.07 77.26Q328.85 79.77 323.89 79.77Q316.70 79.77 313.04 77.94L313.04 69.74L318.35 69.32L318.35 72.16Q318.35 74.75 323.31 74.75Q328.26 74.75 328.26 71.15Q328.26 69.86 327.41 69.03Q326.55 68.20 325.72 67.91Q324.90 67.61 323.75 67.32Q322.60 67.02 321.51 66.73Q320.41 66.43 319.15 65.93Q317.88 65.43 316.34 64.49Q313.33 62.54 313.33 57.97Q313.33 53.39 316.58 50.92Q319.82 48.44 324.75 48.44Q329.68 48.44 334.51 50.80L334.51 57.88L329.20 58.29L329.20 55.81Q329.20 54.34 327.85 53.81" fill="#1f2328"/>
</svg>
