<?xml version="1.0" encoding="UTF-8"?>
<svg xmlns="http://www.w3.org/2000/svg" viewBox="0 0 960 112" width="960" height="112" role="img" aria-label="Feed &amp; extras">
  <rect width="960" height="112" fill="#ffffff"/>
  <rect x="30" y="16" width="8" height="80" rx="4" fill="#8b949e"/>
  <path d="M82.11 79L66.01 79L66.01 74.22L67.95 74.04Q69.66 73.87 69.66 72.39L69.66 44.96L66.30 44.78L66.30 39.77L94.80 39.77L94.80 49.56L88.78 49.97L88.78 47.61Q88.78 46.61 88.48 46.20Q88.19 45.78 87.07 45.78L76.86 45.78L76.86 56.23L91.38 56.23L91.38 62.24L76.86 62.24L76.86 73.81L82.11 73.98L82.11 79M112.79 48.44Q117.22 48.44 119.81 50.59Q122.41 52.74 122.41 56.64Q122.41 59.23 121.29 61.21Q120.17 63.19 118.52 64.31Q116.86 65.43 114.50 66.14Q110.55 67.32 105.59 67.32Q105.77 70.44 107.54 72.36Q109.31 74.28 112.97 74.28Q116.63 74.28 120.29 71.68L122.53 76.46Q121.35 77.53 118.55 78.65Q115.74 79.77 112.14 79.77Q104.95 79.77 101.58 75.78Q98.22 71.80 98.22 64.84Q98.22 57.88 102.06 53.16Q105.89 48.44 112.79 48.44M110.11 61.92Q112.26 61.54 114.09 60.21Q115.92 58.88 115.92 57.05Q115.92 53.45 112.38 53.45Q109.08 53.45 107.31 56.08Q105.54 58.70 105.36 62.36Q107.96 62.30 110.11 61.92M141.35 48.44Q145.77 48.44 148.37 50.59Q150.97 52.74 150.97 56.64Q150.97 59.23 149.84 61.21Q148.72 63.19 147.07 64.31Q145.42 65.43 143.06 66.14Q139.11 67.32 134.15 67.32Q134.33 70.44 136.10 72.36Q137.87 74.28 141.53 74.28Q145.18 74.28 148.84 71.68L151.08 76.46Q149.90 77.53 147.10 78.65Q144.30 79.77 140.70 79.77Q133.50 79.77 130.14 75.78Q126.78 71.80 126.78 64.84Q126.78 57.88 130.61 53.16Q134.45 48.44 141.35 48.44M138.66 61.92Q140.82 61.54 142.65 60.21Q144.48 58.88 144.48 57.05Q144.48 53.45 140.94 53.45Q137.63 53.45 135.86 56.08Q134.09 58.70 133.91 62.36Q136.51 62.30 138.66 61.92M169.91 48.44Q172.44 48.44 174.74 49.15L174.74 43.19Q174.74 41.89 173.21 41.77L170.67 41.59L170.67 36.93L181.65 36.93L181.65 72.81Q181.71 74.16 183.12 74.16L185.19 74.28L185.19 79L175.63 79L175.63 75.52L175.45 75.46Q172.80 79.77 167.43 79.77Q160.70 79.77 157.99 75.28Q155.51 71.21 155.51 65.31Q155.51 57.64 159.31 53.04Q163.12 48.44 169.91 48.44M174.74 69.80L174.74 54.52Q172.62 53.57 170.26 53.57Q166.37 53.57 164.57 56.70Q162.77 59.83 162.77 64.66Q162.77 74.58 169.14 74.58Q171.56 74.58 173.15 73.19Q174.74 71.80 174.74 69.80M226.49 66.02Q227.61 63.19 227.61 60.59Q227.61 59.77 226.55 59.65L224.66 59.53L224.66 54.93L237.11 54.93L237.11 59.71L233.86 59.83Q233.86 65.49 231.38 70.21Q234.04 72.45 238.82 75.87L234.92 81.01Q231.38 78.65 227.49 75.46Q223.12 79.83 215.69 79.83Q208.26 79.83 204.83 76.34Q201.41 72.86 201.41 67.85Q201.41 60.06 208.61 55.58Q206.78 52.57 206.78 49.09Q206.78 44.60 209.79 41.83Q212.80 39.06 218.26 39.06Q223.71 39.06 228.91 41.48L228.91 50.38L222.89 50.80L222.89 47.20Q222.89 45.55 221.65 45.13Q220.06 44.66 218.52 44.66Q213.74 44.66 213.74 49.20Q213.74 55.22 226.49 66.02M222.53 71.33Q215.45 65.31 211.85 60.47Q208.26 63.01 208.26 67.38Q208.26 70.39 210.11 72.24Q211.97 74.10 216.01 74.10Q220.06 74.10 222.53 71.33M269.14 48.44Q273.57 48.44 276.16 50.59Q278.76 52.74 278.76 56.64Q278.76 59.23 277.64 61.21Q276.52 63.19 274.87 64.31Q273.21 65.43 270.85 66.14Q266.90 67.32 261.95 67.32Q262.12 70.44 263.89 72.36Q265.66 74.28 269.32 74.28Q272.98 74.28 276.64 71.68L278.88 76.46Q277.70 77.53 274.90 78.65Q272.09 79.77 268.49 79.77Q261.30 79.77 257.93 75.78Q254.57 71.80 254.57 64.84Q254.57 57.88 258.41 53.16Q262.24 48.44 269.14 48.44M266.46 61.92Q268.61 61.54 270.44 60.21Q272.27 58.88 272.27 57.05Q272.27 53.45 268.73 53.45Q265.43 53.45 263.66 56.08Q261.89 58.70 261.71 62.36Q264.31 62.30 266.46 61.92M299.76 72.75L296.17 68.03L291.27 74.10L294.04 74.28L294.04 79L281.77 79L281.77 74.34L283.60 74.16Q284.96 73.98 285.96 72.75L292.74 64.25L285.49 54.22L282.48 53.87L282.48 49.32L296.22 49.32L296.22 53.98L294.51 54.10Q293.81 54.16 293.60 54.63Q293.39 55.10 293.81 55.64L297.17 60.12L301.71 54.22L299.29 54.04L299.29 49.32L311.27 49.32L311.27 53.92L309.50 54.04Q308.26 54.10 307.14 55.52L300.65 63.72L308.38 73.98L311.39 74.34L311.39 79L297.35 79L297.35 74.34L299.17 74.22Q299.94 74.16 300.09 73.72Q300.24 73.28 299.76 72.75M320.95 43.07L324.78 43.07L324.78 49.32L332.63 49.32L332.04 54.28L324.78 54.28L324.78 69.80Q324.78 72.39 325.72 73.42Q326.67 74.46 328.64 74.46Q330.62 74.46 332.63 73.22L334.40 77.76Q331.45 79.83 326.90 79.83Q324.25 79.83 322.42 79.15Q320.59 78.47 319.71 77.64Q318.82 76.82 318.35 75.22Q317.88 73.63 317.82 72.72Q317.76 71.80 317.76 70.03L317.76 54.28L313.57 54.28L314.16 49.97Q316.93 49.74 318.35 48Q319.77 46.25 320.95 43.07M340.30 72.39L340.30 56.05Q340.30 55.10 339.97 54.72Q339.65 54.34 338.82 54.28L336.34 54.10L336.34 49.32L346.32 49.32L346.32 53.75Q347.38 51.45 349.62 49.94Q351.86 48.44 354.78 48.44Q357.70 48.44 360.36 49.74L360.36 58.53L354.87 58.94L354.87 56.23Q354.87 55.05 354.28 54.75Q353.63 54.46 352.69 54.46Q350.33 54.46 348.82 56.14Q347.32 57.82 347.32 60.41L347.32 74.10L352.45 74.34L352.45 79L336.64 79L336.64 74.52L338.59 74.34Q339.47 74.22 339.88 73.84Q340.30 73.45 340.30 72.39M390.39 50.50L390.39 72.45Q390.39 73.39 390.71 73.75Q391.04 74.10 391.86 74.16L393.75 74.28L393.75 79L384.37 79L384.37 75.58L384.19 75.52Q381.24 79.77 376.11 79.77Q370.09 79.77 367.20 75.93Q364.31 72.10 364.31 65.43Q364.31 57.41 368.20 52.92Q372.10 48.44 379.89 48.44Q384.90 48.44 390.39 50.50M383.54 69.62L383.54 54.34Q381.89 53.57 379 53.57Q375.05 53.57 373.28 56.76Q371.51 59.94 371.51 65.19Q371.51 74.75 377.64 74.75Q380.24 74.75 381.89 73.19Q383.54 71.63 383.54 69.62M412.81 53.81Q411.39 53.28 409.39 53.28Q407.38 53.28 406.17 54.19Q404.96 55.10 404.96 56.43Q404.96 57.76 405.40 58.50Q405.85 59.23 406.79 59.77Q408.27 60.53 410.33 61.09Q412.40 61.65 413.40 61.98Q414.40 62.30 415.91 63.07Q417.41 63.84 418.18 64.72Q420.24 66.91 420.24 70.33Q420.24 74.75 417.03 77.26Q413.81 79.77 408.86 79.77Q401.66 79.77 398 77.94L398 69.74L403.31 69.32L403.31 72.16Q403.31 74.75 408.27 74.75Q413.22 74.75 413.22 71.15Q413.22 69.86 412.37 69.03Q411.51 68.20 410.68 67.91Q409.86 67.61 408.71 67.32Q407.56 67.02 406.47 66.73Q405.37 66.43 404.11 65.93Q402.84 65.43 401.30 64.49Q398.29 62.54 398.29 57.97Q398.29 53.39 401.54 50.92Q404.78 48.44 409.71 48.44Q414.64 48.44 419.48 50.80L419.48 57.88L414.17 58.29L414.17 55.81Q414.17 54.34 412.81 53.81" fill="#1f2328"/>
</svg>
