<?xml version="1.0" encoding="UTF-8"?>
<svg xmlns="http://www.w3.org/2000/svg" viewBox="0 0 960 112" width="960" height="112" role="img" aria-label="Focus">
  <rect width="960" height="112" fill="#ffffff"/>
  <rect x="30" y="15" width="8" height="81" rx="4" fill="#8b949e"/>
  <path d="M82.42 80L66.04 80L66.04 75.14L68.02 74.96Q69.76 74.78 69.76 73.28L69.76 45.38L66.34 45.20L66.34 40.10L95.32 40.10L95.32 50.06L89.20 50.48L89.20 48.08Q89.20 47.06 88.90 46.64Q88.60 46.22 87.46 46.22L77.08 46.22L77.08 56.84L91.84 56.84L91.84 62.96L77.08 62.96L77.08 74.72L82.42 74.90L82.42 80M109.96 75.62Q116.50 75.62 116.50 65.06Q116.50 59.72 115.03 56.96Q113.56 54.20 110.11 54.20Q106.66 54.20 105.04 56.84Q103.42 59.48 103.42 64.04Q103.42 72.50 106.54 74.66Q107.92 75.62 109.96 75.62M96.16 64.88Q96.16 60.44 97.48 57.17Q98.80 53.90 101.02 52.16Q105.28 48.92 110.44 48.92Q114.04 48.92 116.53 50.09Q119.02 51.26 120.43 52.79Q121.84 54.32 122.83 57.23Q123.82 60.14 123.82 64.10Q123.82 72.38 119.80 76.64Q115.78 80.90 109.51 80.90Q103.24 80.90 99.70 76.85Q96.16 72.80 96.16 64.88M135.10 64.58Q135.10 69.68 137.02 72.50Q138.94 75.32 142.57 75.32Q146.20 75.32 149.74 72.74L152.32 77.36Q148.06 80.84 141.64 80.84Q135.22 80.84 131.53 76.79Q127.84 72.74 127.84 64.82Q127.84 56.90 132.07 52.91Q136.30 48.92 141.61 48.92Q146.92 48.92 151.48 51.38L151.48 59.18L145.96 59.60L145.96 56.72Q145.96 55.10 144.79 54.71Q143.62 54.32 142.36 54.32Q135.10 54.32 135.10 64.58M185.20 75.08L187.30 75.26L187.30 80L177.58 80L177.58 76.10Q174.28 80.78 167.86 80.78Q158.56 80.78 158.56 70.40L158.56 56.54Q158.56 54.92 157.06 54.86L155.14 54.74L155.14 49.82L165.70 49.82L165.70 68.84Q165.70 72.02 166.60 73.64Q167.50 75.26 170.32 75.26Q173.14 75.26 174.85 73.52Q176.56 71.78 176.56 69.32L176.56 56.66Q176.56 55.70 176.23 55.31Q175.90 54.92 175.06 54.86L173.14 54.74L173.14 49.82L183.70 49.82L183.70 73.34Q183.70 74.30 184 74.63Q184.30 74.96 185.20 75.08M206.08 54.38Q204.64 53.84 202.60 53.84Q200.56 53.84 199.33 54.77Q198.10 55.70 198.10 57.05Q198.10 58.40 198.55 59.15Q199 59.90 199.96 60.44Q201.46 61.22 203.56 61.79Q205.66 62.36 206.68 62.69Q207.70 63.02 209.23 63.80Q210.76 64.58 211.54 65.48Q213.64 67.70 213.64 71.18Q213.64 75.68 210.37 78.23Q207.10 80.78 202.06 80.78Q194.74 80.78 191.02 78.92L191.02 70.58L196.42 70.16L196.42 73.04Q196.42 75.68 201.46 75.68Q206.50 75.68 206.50 72.02Q206.50 70.70 205.63 69.86Q204.76 69.02 203.92 68.72Q203.08 68.42 201.91 68.12Q200.74 67.82 199.63 67.52Q198.52 67.22 197.23 66.71Q195.94 66.20 194.38 65.24Q191.32 63.26 191.32 58.61Q191.32 53.96 194.62 51.44Q197.92 48.92 202.93 48.92Q207.94 48.92 212.86 51.32L212.86 58.52L207.46 58.94L207.46 56.42Q207.46 54.92 206.08 54.38" fill="#1f2328"/>
</svg>
