<?xml version="1.0" encoding="UTF-8"?>
<svg xmlns="http://www.w3.org/2000/svg" viewBox="0 0 960 112" width="960" height="112" role="img" aria-label="Templates">
  <rect width="960" height="112" fill="#ffffff"/>
  <rect x="30" y="16" width="8" height="80" rx="4" fill="#8b949e"/>
  <path d="M75.98 72.39L75.98 45.61L71.38 45.61Q70.02 45.61 70.02 47.44L70.02 50.21L64 49.80L64 39.77L94.86 39.77L94.86 49.80L88.84 50.21L88.84 47.44Q88.84 46.43 88.54 46.02Q88.25 45.61 87.13 45.61L83.12 45.61L83.12 73.81L87.78 73.98L87.78 79L71.14 79L71.14 74.22L74.27 74.04Q75.98 73.87 75.98 72.39M112.50 48.44Q116.92 48.44 119.52 50.59Q122.12 52.74 122.12 56.64Q122.12 59.23 120.99 61.21Q119.87 63.19 118.22 64.31Q116.57 65.43 114.21 66.14Q110.26 67.32 105.30 67.32Q105.48 70.44 107.25 72.36Q109.02 74.28 112.68 74.28Q116.33 74.28 119.99 71.68L122.23 76.46Q121.05 77.53 118.25 78.65Q115.45 79.77 111.85 79.77Q104.65 79.77 101.29 75.78Q97.93 71.80 97.93 64.84Q97.93 57.88 101.76 53.16Q105.59 48.44 112.50 48.44M109.81 61.92Q111.97 61.54 113.80 60.21Q115.63 58.88 115.63 57.05Q115.63 53.45 112.09 53.45Q108.78 53.45 107.01 56.08Q105.24 58.70 105.06 62.36Q107.66 62.30 109.81 61.92M128.37 54.28L125.89 54.10L125.89 49.32L135.86 49.32L135.86 53.16Q139.17 48.44 144.92 48.44Q150.67 48.44 152.68 53.16Q155.98 48.44 161.65 48.44Q165.89 48.44 168.19 51Q170.50 53.57 170.50 58.70L170.50 74.10L173.86 74.28L173.86 79L159.82 79L159.82 74.52L161.76 74.34Q162.65 74.22 163.03 73.84Q163.42 73.45 163.47 72.45L163.47 60.24Q163.47 56.99 162.74 55.43Q162 53.87 159.28 53.87Q156.57 53.87 155.13 55.52Q153.68 57.17 153.68 59.94L153.68 74.10L156.93 74.28L156.93 79L143 79L143 74.52L144.95 74.34Q145.83 74.22 146.25 73.84Q146.66 73.45 146.66 72.39L146.66 60.24Q146.66 56.99 145.92 55.43Q145.18 53.87 142.44 53.87Q139.70 53.87 138.28 55.58Q136.87 57.29 136.87 59.83L136.87 74.10L140.05 74.28L140.05 79L126.13 79L126.13 74.52L128.07 74.34Q128.96 74.22 129.37 73.84Q129.78 73.45 129.78 72.39L129.84 72.39L129.84 56.11Q129.84 55.10 129.52 54.72Q129.19 54.34 128.37 54.28M180.64 84.61L180.64 56.05Q180.64 55.05 180.32 54.66Q179.99 54.28 179.17 54.28L176.69 54.10L176.69 49.32L186.66 49.32L186.66 53.16Q187.60 51.39 190.08 49.91Q192.56 48.44 195.98 48.44Q206.66 48.44 206.66 63.42Q206.66 71.39 203.18 75.64Q199.70 79.89 193.74 79.89Q190.20 79.89 187.43 78.17L187.43 86.32L192.21 86.55L192.21 91.21L176.98 91.21L176.98 86.73L178.93 86.55Q179.82 86.43 180.23 86.05Q180.64 85.67 180.64 84.61M199.35 64.01Q199.35 54.16 193.39 54.16Q190.91 54.16 189.17 55.67Q187.43 57.17 187.43 59.23L187.43 72.81Q189.67 74.28 192.89 74.28Q196.10 74.28 197.72 71.33Q199.35 68.38 199.35 64.01M210.85 36.93L221.41 36.93L221.41 74.10L224.78 74.28L224.78 79L210.73 79L210.73 74.52L212.68 74.34Q214.39 74.16 214.39 72.45L214.39 43.36Q214.39 42.07 212.92 41.95L210.85 41.83L210.85 36.93M254.92 50.50L254.92 72.45Q254.92 73.39 255.25 73.75Q255.57 74.10 256.40 74.16L258.29 74.28L258.29 79L248.91 79L248.91 75.58L248.73 75.52Q245.78 79.77 240.65 79.77Q234.63 79.77 231.74 75.93Q228.85 72.10 228.85 65.43Q228.85 57.41 232.74 52.92Q236.63 48.44 244.42 48.44Q249.44 48.44 254.92 50.50M248.08 69.62L248.08 54.34Q246.43 53.57 243.54 53.57Q239.58 53.57 237.81 56.76Q236.04 59.94 236.04 65.19Q236.04 74.75 242.18 74.75Q244.78 74.75 246.43 73.19Q248.08 71.63 248.08 69.62M267.25 43.07L271.09 43.07L271.09 49.32L278.94 49.32L278.35 54.28L271.09 54.28L271.09 69.80Q271.09 72.39 272.03 73.42Q272.98 74.46 274.95 74.46Q276.93 74.46 278.94 73.22L280.71 77.76Q277.76 79.83 273.21 79.83Q270.56 79.83 268.73 79.15Q266.90 78.47 266.02 77.64Q265.13 76.82 264.66 75.22Q264.19 73.63 264.13 72.72Q264.07 71.80 264.07 70.03L264.07 54.28L259.88 54.28L260.47 49.97Q263.24 49.74 264.66 48Q266.07 46.25 267.25 43.07M297.76 48.44Q302.18 48.44 304.78 50.59Q307.37 52.74 307.37 56.64Q307.37 59.23 306.25 61.21Q305.13 63.19 303.48 64.31Q301.83 65.43 299.47 66.14Q295.52 67.32 290.56 67.32Q290.74 70.44 292.51 72.36Q294.28 74.28 297.93 74.28Q301.59 74.28 305.25 71.68L307.49 76.46Q306.31 77.53 303.51 78.65Q300.71 79.77 297.11 79.77Q289.91 79.77 286.55 75.78Q283.18 71.80 283.18 64.84Q283.18 57.88 287.02 53.16Q290.85 48.44 297.76 48.44M295.07 61.92Q297.23 61.54 299.06 60.21Q300.88 58.88 300.88 57.05Q300.88 53.45 297.34 53.45Q294.04 53.45 292.27 56.08Q290.50 58.70 290.32 62.36Q292.92 62.30 295.07 61.92M326.96 53.81Q325.55 53.28 323.54 53.28Q321.53 53.28 320.33 54.19Q319.12 55.10 319.12 56.43Q319.12 57.76 319.56 58.50Q320 59.23 320.94 59.77Q322.42 60.53 324.48 61.09Q326.55 61.65 327.55 61.98Q328.56 62.30 330.06 63.07Q331.56 63.84 332.33 64.72Q334.40 66.91 334.40 70.33Q334.40 74.75 331.18 77.26Q327.97 79.77 323.01 79.77Q315.81 79.77 312.15 77.94L312.15 69.74L317.46 69.32L317.46 72.16Q317.46 74.75 322.42 74.75Q327.38 74.75 327.38 71.15Q327.38 69.86 326.52 69.03Q325.66 68.20 324.84 67.91Q324.01 67.61 322.86 67.32Q321.71 67.02 320.62 66.73Q319.53 66.43 318.26 65.93Q316.99 65.43 315.46 64.49Q312.45 62.54 312.45 57.97Q312.45 53.39 315.69 50.92Q318.94 48.44 323.87 48.44Q328.79 48.44 333.63 50.80L333.63 57.88L328.32 58.29L328.32 55.81Q328.32 54.34 326.96 53.81" fill="#1f2328"/>
</svg>
