<?xml version="1.0" encoding="UTF-8"?>
<svg xmlns="http://www.w3.org/2000/svg" viewBox="0 0 960 112" width="960" height="112" role="img" aria-label="Plugins">
  <rect width="960" height="112" fill="#ffffff"/>
  <rect x="30" y="15" width="8" height="81" rx="4" fill="#8b949e"/>
  <path d="M82.72 80L65.92 80L65.92 75.14L67.90 74.96Q69.64 74.78 69.64 73.28L69.64 45.38L66.22 45.20L66.22 40.10L83.38 40.10Q90.10 40.10 93.85 43.25Q97.60 46.40 97.60 52.70Q97.60 59 93.34 62.51Q89.08 66.02 82.06 66.02L76.96 66.02L76.96 74.72L82.72 74.90L82.72 80M76.96 45.92L76.96 60.20L81.28 60.20Q90.04 60.20 90.04 53.06Q90.04 48.74 87.79 47.33Q85.54 45.92 80.62 45.92L76.96 45.92M101.38 37.22L112.12 37.22L112.12 75.02L115.54 75.20L115.54 80L101.26 80L101.26 75.44L103.24 75.26Q104.98 75.08 104.98 73.34L104.98 43.76Q104.98 42.44 103.48 42.32L101.38 42.20L101.38 37.22M148.36 75.08L150.46 75.26L150.46 80L140.74 80L140.74 76.10Q137.44 80.78 131.02 80.78Q121.72 80.78 121.72 70.40L121.72 56.54Q121.72 54.92 120.22 54.86L118.30 54.74L118.30 49.82L128.86 49.82L128.86 68.84Q128.86 72.02 129.76 73.64Q130.66 75.26 133.48 75.26Q136.30 75.26 138.01 73.52Q139.72 71.78 139.72 69.32L139.72 56.66Q139.72 55.70 139.39 55.31Q139.06 54.92 138.22 54.86L136.30 54.74L136.30 49.82L146.86 49.82L146.86 73.34Q146.86 74.30 147.16 74.63Q147.46 74.96 148.36 75.08M180.82 79.94Q180.28 86.60 176.98 89.72Q173.68 92.84 166.66 92.84Q159.64 92.84 155.68 90.86L155.68 82.52L161.38 82.04L161.38 84.92Q161.38 86.54 162.88 87.11Q164.38 87.68 167.02 87.68Q170.86 87.68 172.42 85.37Q173.98 83.06 173.98 78.86L173.98 75.56Q171.10 78.92 166 78.92Q162.88 78.92 160.51 77.72Q158.14 76.52 156.82 74.48Q154.24 70.40 154.24 64.88Q154.24 57.02 158.50 52.97Q162.76 48.92 169.84 48.92Q175.72 48.92 180.94 51.14L180.94 73.40Q180.94 78.50 180.82 79.94M173.98 67.76L173.98 54.86Q171.88 54.14 169.18 54.14Q165.52 54.14 163.57 56.84Q161.62 59.54 161.62 64.16Q161.62 73.64 167.86 73.64Q170.44 73.64 172.21 72.05Q173.98 70.46 173.98 67.76M186.88 49.82L197.62 49.82L197.62 75.02L201.04 75.20L201.04 80L186.76 80L186.76 75.44L188.74 75.26Q190.48 75.08 190.48 73.34L190.48 56.66Q190.48 55.64 190.15 55.28Q189.82 54.92 188.98 54.92L186.88 54.80L186.88 49.82M190.06 44.63Q188.80 43.40 188.80 41.48Q188.80 39.56 190.06 38.27Q191.32 36.98 193.36 36.98Q195.40 36.98 196.69 38.27Q197.98 39.56 197.98 41.48Q197.98 43.40 196.69 44.63Q195.40 45.86 193.36 45.86Q191.32 45.86 190.06 44.63M206.68 54.80L204.16 54.62L204.16 49.82L214.30 49.82L214.30 53.72Q215.86 51.50 218.44 50.21Q221.02 48.92 224.02 48.92Q228.58 48.92 231.07 51.53Q233.56 54.14 233.56 59.36L233.56 75.02L236.98 75.20L236.98 80L222.70 80L222.70 75.44L224.68 75.26Q225.58 75.14 NaN 74.75Q226.42 74.36 226.42 73.28L226.42 60.92Q226.42 57.62 225.40 56.03Q224.38 54.44 221.53 54.44Q218.68 54.44 NaN 56.24Q215.32 58.04 215.32 60.50L215.32 75.02L218.74 75.20L218.74 80L204.46 80L204.46 75.44L206.44 75.26Q207.34 75.14 207.76 74.75Q208.18 74.36 208.18 73.28L208.18 56.66Q208.18 54.86 206.68 54.80M256.24 54.38Q254.80 53.84 252.76 53.84Q250.72 53.84 249.49 54.77Q248.26 55.70 248.26 57.05Q248.26 58.40 248.71 59.15Q249.16 59.90 250.12 60.44Q251.62 61.22 253.72 61.79Q255.82 62.36 256.84 62.69Q257.86 63.02 259.39 63.80Q260.92 64.58 261.70 65.48Q263.80 67.70 263.80 71.18Q263.80 75.68 260.53 78.23Q257.26 80.78 252.22 80.78Q244.90 80.78 241.18 78.92L241.18 70.58L246.58 70.16L246.58 73.04Q246.58 75.68 251.62 75.68Q256.66 75.68 256.66 72.02Q256.66 70.70 255.79 69.86Q254.92 69.02 254.08 68.72Q253.24 68.42 252.07 68.12Q250.90 67.82 249.79 67.52Q248.68 67.22 247.39 66.71Q246.10 66.20 244.54 65.24Q241.48 63.26 241.48 58.61Q241.48 53.96 244.78 51.44Q248.08 48.92 253.09 48.92Q258.10 48.92 263.02 51.32L263.02 58.52L257.62 58.94L257.62 56.42Q257.62 54.92 256.24 54.38" fill="#1f2328"/>
</svg>
