<?xml version="1.0" encoding="UTF-8"?>
<svg xmlns="http://www.w3.org/2000/svg" viewBox="0 0 960 112" width="960" height="112" role="img" aria-label="Feed &amp; extras">
  <rect width="960" height="112" fill="#ffffff"/>
  <rect x="30" y="16" width="8" height="80" rx="4" fill="#8b949e"/>
  <path d="M80.11 79L64 79L64 74.22L65.95 74.04Q67.66 73.87 67.66 72.39L67.66 44.96L64.30 44.78L64.30 39.77L92.79 39.77L92.79 49.56L86.77 49.97L86.77 47.61Q86.77 46.61 86.48 46.20Q86.18 45.78 85.06 45.78L74.86 45.78L74.86 56.23L89.37 56.23L89.37 62.24L74.86 62.24L74.86 73.81L80.11 73.98L80.11 79M110.79 48.44Q115.21 48.44 117.81 50.59Q120.40 52.74 120.40 56.64Q120.40 59.23 119.28 61.21Q118.16 63.19 116.51 64.31Q114.86 65.43 112.50 66.14Q108.55 67.32 103.59 67.32Q103.77 70.44 105.54 72.36Q107.31 74.28 110.96 74.28Q114.62 74.28 118.28 71.68L120.52 76.46Q119.34 77.53 116.54 78.65Q113.74 79.77 110.14 79.77Q102.94 79.77 99.58 75.78Q96.21 71.80 96.21 64.84Q96.21 57.88 100.05 53.16Q103.88 48.44 110.79 48.44M108.10 61.92Q110.26 61.54 112.09 60.21Q113.91 58.88 113.91 57.05Q113.91 53.45 110.37 53.45Q107.07 53.45 105.30 56.08Q103.53 58.70 103.35 62.36Q105.95 62.30 108.10 61.92M139.34 48.44Q143.77 48.44 146.36 50.59Q148.96 52.74 148.96 56.64Q148.96 59.23 147.84 61.21Q146.72 63.19 145.07 64.31Q143.41 65.43 141.05 66.14Q137.10 67.32 132.15 67.32Q132.32 70.44 134.09 72.36Q135.86 74.28 139.52 74.28Q143.18 74.28 146.84 71.68L149.08 76.46Q147.90 77.53 145.10 78.65Q142.29 79.77 138.69 79.77Q131.50 79.77 128.13 75.78Q124.77 71.80 124.77 64.84Q124.77 57.88 128.61 53.16Q132.44 48.44 139.34 48.44M136.66 61.92Q138.81 61.54 140.64 60.21Q142.47 58.88 142.47 57.05Q142.47 53.45 138.93 53.45Q135.63 53.45 133.86 56.08Q132.09 58.70 131.91 62.36Q134.50 62.30 136.66 61.92M167.90 48.44Q170.44 48.44 172.74 49.15L172.74 43.19Q172.74 41.89 171.20 41.77L168.67 41.59L168.67 36.93L179.64 36.93L179.64 72.81Q179.70 74.16 181.12 74.16L183.18 74.28L183.18 79L173.62 79L173.62 75.52L173.44 75.46Q170.79 79.77 165.42 79.77Q158.69 79.77 155.98 75.28Q153.50 71.21 153.50 65.31Q153.50 57.64 157.31 53.04Q161.11 48.44 167.90 48.44M172.74 69.80L172.74 54.52Q170.61 53.57 168.25 53.57Q164.36 53.57 162.56 56.70Q160.76 59.83 160.76 64.66Q160.76 74.58 167.13 74.58Q169.55 74.58 171.14 73.19Q172.74 71.80 172.74 69.80M224.48 66.02Q225.60 63.19 225.60 60.59Q225.60 59.77 224.54 59.65L222.65 59.53L222.65 54.93L235.10 54.93L235.10 59.71L231.86 59.83Q231.86 65.49 229.38 70.21Q232.03 72.45 236.81 75.87L232.92 81.01Q229.38 78.65 225.48 75.46Q221.12 79.83 213.68 79.83Q206.25 79.83 202.83 76.34Q199.41 72.86 199.41 67.85Q199.41 60.06 206.60 55.58Q204.77 52.57 204.77 49.09Q204.77 44.60 207.78 41.83Q210.79 39.06 216.25 39.06Q221.71 39.06 226.90 41.48L226.90 50.38L220.88 50.80L220.88 47.20Q220.88 45.55 219.64 45.13Q218.05 44.66 216.52 44.66Q211.74 44.66 211.74 49.20Q211.74 55.22 224.48 66.02M220.53 71.33Q213.45 65.31 209.85 60.47Q206.25 63.01 206.25 67.38Q206.25 70.39 208.11 72.24Q209.97 74.10 214.01 74.10Q218.05 74.10 220.53 71.33M267.14 48.44Q271.56 48.44 274.16 50.59Q276.75 52.74 276.75 56.64Q276.75 59.23 275.63 61.21Q274.51 63.19 272.86 64.31Q271.21 65.43 268.85 66.14Q264.90 67.32 259.94 67.32Q260.12 70.44 261.89 72.36Q263.66 74.28 267.31 74.28Q270.97 74.28 274.63 71.68L276.87 76.46Q275.69 77.53 272.89 78.65Q270.09 79.77 266.49 79.77Q259.29 79.77 255.93 75.78Q252.56 71.80 252.56 64.84Q252.56 57.88 256.40 53.16Q260.23 48.44 267.14 48.44M264.45 61.92Q266.61 61.54 268.44 60.21Q270.26 58.88 270.26 57.05Q270.26 53.45 266.72 53.45Q263.42 53.45 261.65 56.08Q259.88 58.70 259.70 62.36Q262.30 62.30 264.45 61.92M297.76 72.75L294.16 68.03L289.26 74.10L292.04 74.28L292.04 79L279.76 79L279.76 74.34L281.59 74.16Q282.95 73.98 283.95 72.75L290.74 64.25L283.48 54.22L280.47 53.87L280.47 49.32L294.22 49.32L294.22 53.98L292.51 54.10Q291.80 54.16 291.59 54.63Q291.39 55.10 291.80 55.64L295.16 60.12L299.71 54.22L297.29 54.04L297.29 49.32L309.26 49.32L309.26 53.92L307.49 54.04Q306.25 54.10 305.13 55.52L298.64 63.72L306.37 73.98L309.38 74.34L309.38 79L295.34 79L295.34 74.34L297.17 74.22Q297.94 74.16 298.08 73.72Q298.23 73.28 297.76 72.75M318.94 43.07L322.77 43.07L322.77 49.32L330.62 49.32L330.03 54.28L322.77 54.28L322.77 69.80Q322.77 72.39 323.72 73.42Q324.66 74.46 326.64 74.46Q328.62 74.46 330.62 73.22L332.39 77.76Q329.44 79.83 324.90 79.83Q322.24 79.83 320.41 79.15Q318.59 78.47 317.70 77.64Q316.82 76.82 316.34 75.22Q315.87 73.63 315.81 72.72Q315.75 71.80 315.75 70.03L315.75 54.28L311.56 54.28L312.15 49.97Q314.93 49.74 316.34 48Q317.76 46.25 318.94 43.07M338.29 72.39L338.29 56.05Q338.29 55.10 337.97 54.72Q337.64 54.34 336.82 54.28L334.34 54.10L334.34 49.32L344.31 49.32L344.31 53.75Q345.37 51.45 347.61 49.94Q349.86 48.44 352.78 48.44Q355.70 48.44 358.35 49.74L358.35 58.53L352.86 58.94L352.86 56.23Q352.86 55.05 352.27 54.75Q351.63 54.46 350.68 54.46Q348.32 54.46 346.82 56.14Q345.31 57.82 345.31 60.41L345.31 74.10L350.45 74.34L350.45 79L334.63 79L334.63 74.52L336.58 74.34Q337.47 74.22 337.88 73.84Q338.29 73.45 338.29 72.39M388.38 50.50L388.38 72.45Q388.38 73.39 388.71 73.75Q389.03 74.10 389.86 74.16L391.75 74.28L391.75 79L382.36 79L382.36 75.58L382.19 75.52Q379.24 79.77 374.10 79.77Q368.09 79.77 365.19 75.93Q362.30 72.10 362.30 65.43Q362.30 57.41 366.20 52.92Q370.09 48.44 377.88 48.44Q382.90 48.44 388.38 50.50M381.54 69.62L381.54 54.34Q379.89 53.57 377 53.57Q373.04 53.57 371.27 56.76Q369.50 59.94 369.50 65.19Q369.50 74.75 375.64 74.75Q378.23 74.75 379.89 73.19Q381.54 71.63 381.54 69.62M410.80 53.81Q409.39 53.28 407.38 53.28Q405.37 53.28 404.16 54.19Q402.96 55.10 402.96 56.43Q402.96 57.76 403.40 58.50Q403.84 59.23 404.78 59.77Q406.26 60.53 408.32 61.09Q410.39 61.65 411.39 61.98Q412.40 62.30 413.90 63.07Q415.40 63.84 416.17 64.72Q418.24 66.91 418.24 70.33Q418.24 74.75 415.02 77.26Q411.81 79.77 406.85 79.77Q399.65 79.77 395.99 77.94L395.99 69.74L401.30 69.32L401.30 72.16Q401.30 74.75 406.26 74.75Q411.22 74.75 411.22 71.15Q411.22 69.86 410.36 69.03Q409.50 68.20 408.68 67.91Q407.85 67.61 406.70 67.32Q405.55 67.02 404.46 66.73Q403.37 66.43 402.10 65.93Q400.83 65.43 399.30 64.49Q396.29 62.54 396.29 57.97Q396.29 53.39 399.53 50.92Q402.78 48.44 407.70 48.44Q412.63 48.44 417.47 50.80L417.47 57.88L412.16 58.29L412.16 55.81Q412.16 54.34 410.80 53.81" fill="#1f2328"/>
</svg>
