<?xml version="1.0" encoding="UTF-8"?>
<svg xmlns="http://www.w3.org/2000/svg" viewBox="0 0 1600 132" width="1600" height="132" role="img" aria-label="Plugins">
  <rect width="1600" height="132" fill="#0d1117"/>
  <rect x="40" y="24" width="8" height="84" rx="4" fill="#6e7681"/>
  <path d="M95.34 91L77.98 91L77.98 85.98L80.03 85.79Q81.83 85.61 81.83 84.06L81.83 55.23L78.29 55.04L78.29 49.77L96.03 49.77Q102.97 49.77 106.84 53.02Q110.72 56.28 110.72 62.79Q110.72 69.30 106.32 72.93Q101.92 76.55 94.66 76.55L89.39 76.55L89.39 85.54L95.34 85.73L95.34 91M89.39 55.78L89.39 70.54L93.86 70.54Q102.91 70.54 102.91 63.16Q102.91 58.70 100.58 57.24Q98.26 55.78 93.17 55.78L89.39 55.78M114.63 46.79L125.72 46.79L125.72 85.85L129.26 86.04L129.26 91L114.50 91L114.50 86.29L116.55 86.10Q118.35 85.92 118.35 84.12L118.35 53.55Q118.35 52.19 116.80 52.06L114.63 51.94L114.63 46.79M163.17 85.92L165.34 86.10L165.34 91L155.30 91L155.30 86.97Q151.89 91.81 145.25 91.81Q135.64 91.81 135.64 81.08L135.64 66.76Q135.64 65.08 134.09 65.02L132.11 64.90L132.11 59.81L143.02 59.81L143.02 79.47Q143.02 82.75 143.95 84.43Q144.88 86.10 147.80 86.10Q150.71 86.10 152.48 84.30Q154.24 82.51 154.24 79.96L154.24 66.88Q154.24 65.89 153.90 65.49Q153.56 65.08 152.69 65.02L150.71 64.90L150.71 59.81L161.62 59.81L161.62 84.12Q161.62 85.11 161.93 85.45Q162.24 85.79 163.17 85.92M196.71 90.94Q196.16 97.82 192.75 101.04Q189.34 104.27 182.08 104.27Q174.83 104.27 170.74 102.22L170.74 93.60L176.63 93.11L176.63 96.08Q176.63 97.76 178.18 98.35Q179.73 98.94 182.45 98.94Q186.42 98.94 188.03 96.55Q189.65 94.16 189.65 89.82L189.65 86.41Q186.67 89.88 181.40 89.88Q178.18 89.88 175.73 88.64Q173.28 87.40 171.91 85.30Q169.25 81.08 169.25 75.38Q169.25 67.25 173.65 63.07Q178.05 58.88 185.37 58.88Q191.44 58.88 196.84 61.18L196.84 84.18Q196.84 89.45 196.71 90.94M189.65 78.35L189.65 65.02Q187.48 64.28 184.69 64.28Q180.90 64.28 178.89 67.07Q176.87 69.86 176.87 74.63Q176.87 84.43 183.32 84.43Q185.99 84.43 187.82 82.78Q189.65 81.14 189.65 78.35M202.98 59.81L214.07 59.81L214.07 85.85L217.61 86.04L217.61 91L202.85 91L202.85 86.29L204.90 86.10Q206.70 85.92 206.70 84.12L206.70 66.88Q206.70 65.83 206.35 65.46Q206.01 65.08 205.15 65.08L202.98 64.96L202.98 59.81M206.26 54.45Q204.96 53.18 204.96 51.20Q204.96 49.21 206.26 47.88Q207.56 46.55 209.67 46.55Q211.78 46.55 213.11 47.88Q214.45 49.21 214.45 51.20Q214.45 53.18 213.11 54.45Q211.78 55.72 209.67 55.72Q207.56 55.72 206.26 54.45M223.44 64.96L220.83 64.77L220.83 59.81L231.31 59.81L231.31 63.84Q232.92 61.55 235.59 60.22Q238.25 58.88 241.35 58.88Q246.07 58.88 248.64 61.58Q251.21 64.28 251.21 69.67L251.21 85.85L254.75 86.04L254.75 91L239.99 91L239.99 86.29L242.04 86.10Q242.97 85.98 243.40 85.58Q243.83 85.17 243.83 84.06L243.83 71.28Q243.83 67.87 242.78 66.23Q241.73 64.59 238.78 64.59Q235.84 64.59 234.10 66.45Q232.36 68.31 232.36 70.85L232.36 85.85L235.90 86.04L235.90 91L221.14 91L221.14 86.29L223.19 86.10Q224.12 85.98 224.55 85.58Q224.99 85.17 224.99 84.06L224.99 66.88Q224.99 65.02 223.44 64.96M274.65 64.53Q273.16 63.97 271.05 63.97Q268.94 63.97 267.67 64.93Q266.40 65.89 266.40 67.28Q266.40 68.68 266.87 69.45Q267.33 70.23 268.32 70.79Q269.87 71.59 272.04 72.18Q274.21 72.77 275.27 73.11Q276.32 73.45 277.90 74.26Q279.48 75.07 280.29 76Q282.46 78.29 282.46 81.89Q282.46 86.54 279.08 89.17Q275.70 91.81 270.49 91.81Q262.93 91.81 259.09 89.88L259.09 81.27L264.67 80.83L264.67 83.81Q264.67 86.54 269.87 86.54Q275.08 86.54 275.08 82.75Q275.08 81.39 274.18 80.52Q273.28 79.65 272.42 79.34Q271.55 79.03 270.34 78.72Q269.13 78.41 267.98 78.10Q266.84 77.79 265.50 77.27Q264.17 76.74 262.56 75.75Q259.40 73.70 259.40 68.90Q259.40 64.09 262.81 61.49Q266.22 58.88 271.39 58.88Q276.57 58.88 281.65 61.36L281.65 68.80L276.07 69.24L276.07 66.63Q276.07 65.08 274.65 64.53" fill="#f0f6fc"/>
</svg>
