<?xml version="1.0" encoding="UTF-8"?>
<svg xmlns="http://www.w3.org/2000/svg" viewBox="0 0 1600 132" width="1600" height="132" role="img" aria-label="Plugins">
  <rect width="1600" height="132" fill="#ffffff"/>
  <rect x="37" y="24" width="6" height="84" rx="4" fill="#8b949e"/>
  <path d="M85.34 91L67.98 91L67.98 85.98L70.03 85.79Q71.83 85.61 71.83 84.06L71.83 55.23L68.29 55.04L68.29 49.77L86.03 49.77Q92.97 49.77 96.84 53.02Q100.72 56.28 100.72 62.79Q100.72 69.30 96.32 72.93Q91.92 76.55 84.66 76.55L79.39 76.55L79.39 85.54L85.34 85.73L85.34 91M79.39 55.78L79.39 70.54L83.86 70.54Q92.91 70.54 92.91 63.16Q92.91 58.70 90.58 57.24Q88.26 55.78 83.17 55.78L79.39 55.78M104.63 46.79L115.72 46.79L115.72 85.85L119.26 86.04L119.26 91L104.50 91L104.50 86.29L106.55 86.10Q108.35 85.92 108.35 84.12L108.35 53.55Q108.35 52.19 106.80 52.06L104.63 51.94L104.63 46.79M153.17 85.92L155.34 86.10L155.34 91L145.30 91L145.30 86.97Q141.89 91.81 135.25 91.81Q125.64 91.81 125.64 81.08L125.64 66.76Q125.64 65.08 124.09 65.02L122.11 64.90L122.11 59.81L133.02 59.81L133.02 79.47Q133.02 82.75 133.95 84.43Q134.88 86.10 137.80 86.10Q140.71 86.10 142.48 84.30Q144.24 82.51 144.24 79.96L144.24 66.88Q144.24 65.89 143.90 65.49Q143.56 65.08 142.69 65.02L140.71 64.90L140.71 59.81L151.62 59.81L151.62 84.12Q151.62 85.11 151.93 85.45Q152.24 85.79 153.17 85.92M186.71 90.94Q186.16 97.82 182.75 101.04Q179.34 104.27 172.08 104.27Q164.83 104.27 160.74 102.22L160.74 93.60L166.63 93.11L166.63 96.08Q166.63 97.76 168.18 98.35Q169.73 98.94 172.45 98.94Q176.42 98.94 178.03 96.55Q179.65 94.16 179.65 89.82L179.65 86.41Q176.67 89.88 171.40 89.88Q168.18 89.88 165.73 88.64Q163.28 87.40 161.91 85.30Q159.25 81.08 159.25 75.38Q159.25 67.25 163.65 63.07Q168.05 58.88 175.37 58.88Q181.44 58.88 186.84 61.18L186.84 84.18Q186.84 89.45 186.71 90.94M179.65 78.35L179.65 65.02Q177.48 64.28 174.69 64.28Q170.90 64.28 168.89 67.07Q166.87 69.86 166.87 74.63Q166.87 84.43 173.32 84.43Q175.99 84.43 177.82 82.78Q179.65 81.14 179.65 78.35M192.98 59.81L204.07 59.81L204.07 85.85L207.61 86.04L207.61 91L192.85 91L192.85 86.29L194.90 86.10Q196.70 85.92 196.70 84.12L196.70 66.88Q196.70 65.83 196.36 65.46Q196.01 65.08 195.15 65.08L192.98 64.96L192.98 59.81M196.26 54.45Q194.96 53.18 194.96 51.20Q194.96 49.21 196.26 47.88Q197.56 46.55 199.67 46.55Q201.78 46.55 203.11 47.88Q204.45 49.21 204.45 51.20Q204.45 53.18 203.11 54.45Q201.78 55.72 199.67 55.72Q197.56 55.72 196.26 54.45M213.44 64.96L210.83 64.77L210.83 59.81L221.31 59.81L221.31 63.84Q222.92 61.55 225.59 60.22Q228.25 58.88 231.35 58.88Q236.07 58.88 238.64 61.58Q241.21 64.28 241.21 69.67L241.21 85.85L244.75 86.04L244.75 91L229.99 91L229.99 86.29L232.04 86.10Q232.97 85.98 233.40 85.58Q233.83 85.17 233.83 84.06L233.83 71.28Q233.83 67.87 232.78 66.23Q231.73 64.59 228.78 64.59Q225.84 64.59 224.10 66.45Q222.36 68.31 222.36 70.85L222.36 85.85L225.90 86.04L225.90 91L211.14 91L211.14 86.29L213.19 86.10Q214.12 85.98 214.55 85.58Q214.99 85.17 214.99 84.06L214.99 66.88Q214.99 65.02 213.44 64.96M264.65 64.53Q263.16 63.97 261.05 63.97Q258.94 63.97 257.67 64.93Q256.40 65.89 256.40 67.28Q256.40 68.68 256.87 69.45Q257.33 70.23 258.32 70.79Q259.87 71.59 262.04 72.18Q264.21 72.77 265.27 73.11Q266.32 73.45 267.90 74.26Q269.48 75.07 270.29 76Q272.46 78.29 272.46 81.89Q272.46 86.54 269.08 89.17Q265.70 91.81 260.49 91.81Q252.93 91.81 249.09 89.88L249.09 81.27L254.67 80.83L254.67 83.81Q254.67 86.54 259.87 86.54Q265.08 86.54 265.08 82.75Q265.08 81.39 264.18 80.52Q263.28 79.65 262.42 79.34Q261.55 79.03 260.34 78.72Q259.13 78.41 257.98 78.10Q256.84 77.79 255.50 77.27Q254.17 76.74 252.56 75.75Q249.40 73.70 249.40 68.90Q249.40 64.09 252.81 61.49Q256.22 58.88 261.39 58.88Q266.57 58.88 271.65 61.36L271.65 68.80L266.07 69.24L266.07 66.63Q266.07 65.08 264.65 64.53" fill="#1f2328"/>
</svg>
