<?xml version="1.0" encoding="UTF-8"?>
<svg xmlns="http://www.w3.org/2000/svg" viewBox="0 0 960 112" width="960" height="112" role="img" aria-label="Themes">
  <rect width="960" height="112" fill="#0d1117"/>
  <rect x="30" y="16" width="8" height="80" rx="4" fill="#6e7681"/>
  <path d="M75.98 72.39L75.98 45.61L71.38 45.61Q70.02 45.61 70.02 47.44L70.02 50.21L64 49.80L64 39.77L94.86 39.77L94.86 49.80L88.84 50.21L88.84 47.44Q88.84 46.43 88.54 46.02Q88.25 45.61 87.13 45.61L83.12 45.61L83.12 73.81L87.78 73.98L87.78 79L71.14 79L71.14 74.22L74.27 74.04Q75.98 73.87 75.98 72.39M101.29 72.39L101.29 43.66Q101.29 42.71 100.96 42.36Q100.64 42.01 99.81 41.95L97.75 41.83L97.75 36.93L108.25 36.93L108.25 52.80Q111.32 48.44 116.86 48.44Q121.35 48.44 123.80 51Q126.25 53.57 126.25 58.70L126.25 74.10L129.61 74.28L129.61 79L115.57 79L115.57 74.52L117.51 74.34Q118.40 74.22 118.81 73.84Q119.22 73.45 119.22 72.39L119.22 60.24Q119.22 57.17 118.25 55.52Q117.28 53.87 114.47 53.87Q111.67 53.87 109.99 55.61Q108.31 57.35 108.31 59.83L108.31 74.10L111.67 74.28L111.67 79L97.63 79L97.63 74.52L99.58 74.34Q100.46 74.22 100.88 73.84Q101.29 73.45 101.29 72.39M147.90 48.44Q152.32 48.44 154.92 50.59Q157.51 52.74 157.51 56.64Q157.51 59.23 156.39 61.21Q155.27 63.19 153.62 64.31Q151.97 65.43 149.61 66.14Q145.66 67.32 140.70 67.32Q140.88 70.44 142.65 72.36Q144.42 74.28 148.07 74.28Q151.73 74.28 155.39 71.68L157.63 76.46Q156.45 77.53 153.65 78.65Q150.85 79.77 147.25 79.77Q140.05 79.77 136.69 75.78Q133.32 71.80 133.32 64.84Q133.32 57.88 137.16 53.16Q141 48.44 147.90 48.44M145.21 61.92Q147.37 61.54 149.20 60.21Q151.03 58.88 151.03 57.05Q151.03 53.45 147.48 53.45Q144.18 53.45 142.41 56.08Q140.64 58.70 140.46 62.36Q143.06 62.30 145.21 61.92M163.77 54.28L161.29 54.10L161.29 49.32L171.26 49.32L171.26 53.16Q174.57 48.44 180.32 48.44Q186.07 48.44 188.08 53.16Q191.38 48.44 197.05 48.44Q201.29 48.44 203.59 51Q205.90 53.57 205.90 58.70L205.90 74.10L209.26 74.28L209.26 79L195.22 79L195.22 74.52L197.16 74.34Q198.05 74.22 198.43 73.84Q198.81 73.45 198.87 72.45L198.87 60.24Q198.87 56.99 198.14 55.43Q197.40 53.87 194.69 53.87Q191.97 53.87 190.53 55.52Q189.08 57.17 189.08 59.94L189.08 74.10L192.33 74.28L192.33 79L178.40 79L178.40 74.52L180.35 74.34Q181.23 74.22 181.65 73.84Q182.06 73.45 182.06 72.39L182.06 60.24Q182.06 56.99 181.32 55.43Q180.58 53.87 177.84 53.87Q175.10 53.87 173.68 55.58Q172.27 57.29 172.27 59.83L172.27 74.10L175.45 74.28L175.45 79L161.53 79L161.53 74.52L163.47 74.34Q164.36 74.22 164.77 73.84Q165.19 73.45 165.19 72.39L165.24 72.39L165.24 56.11Q165.24 55.10 164.92 54.72Q164.59 54.34 163.77 54.28M227.55 48.44Q231.97 48.44 234.57 50.59Q237.16 52.74 237.16 56.64Q237.16 59.23 236.04 61.21Q234.92 63.19 233.27 64.31Q231.62 65.43 229.26 66.14Q225.31 67.32 220.35 67.32Q220.53 70.44 222.30 72.36Q224.07 74.28 227.72 74.28Q231.38 74.28 235.04 71.68L237.28 76.46Q236.10 77.53 233.30 78.65Q230.50 79.77 226.90 79.77Q219.70 79.77 216.34 75.78Q212.97 71.80 212.97 64.84Q212.97 57.88 216.81 53.16Q220.65 48.44 227.55 48.44M224.86 61.92Q227.02 61.54 228.85 60.21Q230.68 58.88 230.68 57.05Q230.68 53.45 227.13 53.45Q223.83 53.45 222.06 56.08Q220.29 58.70 220.11 62.36Q222.71 62.30 224.86 61.92M256.75 53.81Q255.34 53.28 253.33 53.28Q251.33 53.28 250.12 54.19Q248.91 55.10 248.91 56.43Q248.91 57.76 249.35 58.50Q249.79 59.23 250.74 59.77Q252.21 60.53 254.28 61.09Q256.34 61.65 257.34 61.98Q258.35 62.30 259.85 63.07Q261.36 63.84 262.12 64.72Q264.19 66.91 264.19 70.33Q264.19 74.75 260.97 77.26Q257.76 79.77 252.80 79.77Q245.60 79.77 241.94 77.94L241.94 69.74L247.25 69.32L247.25 72.16Q247.25 74.75 252.21 74.75Q257.17 74.75 257.17 71.15Q257.17 69.86 256.31 69.03Q255.46 68.20 254.63 67.91Q253.80 67.61 252.65 67.32Q251.50 67.02 250.41 66.73Q249.32 66.43 248.05 65.93Q246.78 65.43 245.25 64.49Q242.24 62.54 242.24 57.97Q242.24 53.39 245.48 50.92Q248.73 48.44 253.66 48.44Q258.58 48.44 263.42 50.80L263.42 57.88L258.11 58.29L258.11 55.81Q258.11 54.34 256.75 53.81" fill="#f0f6fc"/>
</svg>
