<?xml version="1.0" encoding="UTF-8"?>
<svg xmlns="http://www.w3.org/2000/svg" viewBox="0 0 960 112" width="960" height="112" role="img" aria-label="Containers">
  <rect width="960" height="112" fill="#0d1117"/>
  <rect x="30" y="16" width="8" height="80" rx="4" fill="#6e7681"/>
  <path d="M89.72 46.02Q89.08 44.90 84.89 44.90Q79.40 44.90 76.57 48.61Q73.73 52.33 73.73 59.35Q73.73 73.93 84.65 73.93Q84.83 73.93 86.21 73.93Q87.60 73.93 88.84 73.54Q90.08 73.16 90.31 72.75Q90.55 72.33 90.55 71.45L90.55 66.73L96.57 67.14L96.57 77.35Q91.97 79.77 84.89 79.77Q75.86 79.77 71.11 74.69Q66.36 69.62 66.36 59.59Q66.36 54.04 67.95 49.91Q69.55 45.78 72.26 43.48Q77.57 39.06 84.89 39.06Q90.79 39.06 95.98 41.48L95.98 51.51L89.96 51.92L89.96 47.32Q89.96 46.43 89.72 46.02M115.03 74.69Q121.47 74.69 121.47 64.31Q121.47 59.06 120.02 56.34Q118.58 53.63 115.18 53.63Q111.79 53.63 110.20 56.23Q108.60 58.82 108.60 63.31Q108.60 71.63 111.67 73.75Q113.03 74.69 115.03 74.69M101.47 64.13Q101.47 59.77 102.76 56.55Q104.06 53.33 106.24 51.62Q110.43 48.44 115.51 48.44Q119.05 48.44 121.50 49.59Q123.94 50.74 125.33 52.24Q126.72 53.75 127.69 56.61Q128.66 59.47 128.66 63.36Q128.66 71.51 124.71 75.70Q120.76 79.89 114.59 79.89Q108.43 79.89 104.95 75.90Q101.47 71.92 101.47 64.13M134.74 54.22L132.26 54.04L132.26 49.32L142.23 49.32L142.23 53.16Q143.77 50.97 146.31 49.71Q148.84 48.44 151.79 48.44Q156.28 48.44 158.72 51Q161.17 53.57 161.17 58.70L161.17 74.10L164.54 74.28L164.54 79L150.49 79L150.49 74.52L152.44 74.34Q153.33 74.22 153.74 73.84Q154.15 73.45 154.15 72.39L154.15 60.24Q154.15 56.99 153.15 55.43Q152.15 53.87 149.34 53.87Q146.54 53.87 144.89 55.64Q143.24 57.41 143.24 59.83L143.24 74.10L146.60 74.28L146.60 79L132.56 79L132.56 74.52L134.51 74.34Q135.39 74.22 135.80 73.84Q136.22 73.45 136.22 72.39L136.22 56.05Q136.22 54.28 134.74 54.22M172.21 43.07L176.04 43.07L176.04 49.32L183.89 49.32L183.30 54.28L176.04 54.28L176.04 69.80Q176.04 72.39 176.99 73.42Q177.93 74.46 179.91 74.46Q181.88 74.46 183.89 73.22L185.66 77.76Q182.71 79.83 178.17 79.83Q175.51 79.83 173.68 79.15Q171.85 78.47 170.97 77.64Q170.08 76.82 169.61 75.22Q169.14 73.63 169.08 72.72Q169.02 71.80 169.02 70.03L169.02 54.28L164.83 54.28L165.42 49.97Q168.19 49.74 169.61 48Q171.03 46.25 172.21 43.07M214.39 50.50L214.39 72.45Q214.39 73.39 214.72 73.75Q215.04 74.10 215.87 74.16L217.75 74.28L217.75 79L208.37 79L208.37 75.58L208.20 75.52Q205.25 79.77 200.11 79.77Q194.09 79.77 191.20 75.93Q188.31 72.10 188.31 65.43Q188.31 57.41 192.21 52.92Q196.10 48.44 203.89 48.44Q208.90 48.44 214.39 50.50M207.55 69.62L207.55 54.34Q205.90 53.57 203 53.57Q199.05 53.57 197.28 56.76Q195.51 59.94 195.51 65.19Q195.51 74.75 201.65 74.75Q204.24 74.75 205.90 73.19Q207.55 71.63 207.55 69.62M221.47 49.32L232.03 49.32L232.03 74.10L235.40 74.28L235.40 79L221.35 79L221.35 74.52L223.30 74.34Q225.01 74.16 225.01 72.45L225.01 56.05Q225.01 55.05 224.69 54.69Q224.36 54.34 223.54 54.34L221.47 54.22L221.47 49.32M224.60 44.22Q223.36 43.01 223.36 41.12Q223.36 39.23 224.60 37.97Q225.84 36.70 227.84 36.70Q229.85 36.70 231.12 37.97Q232.39 39.23 232.39 41.12Q232.39 43.01 231.12 44.22Q229.85 45.43 227.84 45.43Q225.84 45.43 224.60 44.22M240.94 54.22L238.46 54.04L238.46 49.32L248.43 49.32L248.43 53.16Q249.97 50.97 252.50 49.71Q255.04 48.44 257.99 48.44Q262.48 48.44 264.92 51Q267.37 53.57 267.37 58.70L267.37 74.10L270.74 74.28L270.74 79L256.69 79L256.69 74.52L258.64 74.34Q259.53 74.22 259.94 73.84Q260.35 73.45 260.35 72.39L260.35 60.24Q260.35 56.99 259.35 55.43Q258.35 53.87 255.54 53.87Q252.74 53.87 251.09 55.64Q249.44 57.41 249.44 59.83L249.44 74.10L252.80 74.28L252.80 79L238.76 79L238.76 74.52L240.71 74.34Q241.59 74.22 242 73.84Q242.42 73.45 242.42 72.39L242.42 56.05Q242.42 54.28 240.94 54.22M289.03 48.44Q293.45 48.44 296.05 50.59Q298.64 52.74 298.64 56.64Q298.64 59.23 297.52 61.21Q296.40 63.19 294.75 64.31Q293.10 65.43 290.74 66.14Q286.78 67.32 281.83 67.32Q282 70.44 283.77 72.36Q285.54 74.28 289.20 74.28Q292.86 74.28 296.52 71.68L298.76 76.46Q297.58 77.53 294.78 78.65Q291.98 79.77 288.38 79.77Q281.18 79.77 277.82 75.78Q274.45 71.80 274.45 64.84Q274.45 57.88 278.29 53.16Q282.12 48.44 289.03 48.44M286.34 61.92Q288.50 61.54 290.32 60.21Q292.15 58.88 292.15 57.05Q292.15 53.45 288.61 53.45Q285.31 53.45 283.54 56.08Q281.77 58.70 281.59 62.36Q284.19 62.30 286.34 61.92M306.43 72.39L306.43 56.05Q306.43 55.10 306.11 54.72Q305.78 54.34 304.96 54.28L302.48 54.10L302.48 49.32L312.45 49.32L312.45 53.75Q313.51 51.45 315.75 49.94Q317.99 48.44 320.92 48.44Q323.84 48.44 326.49 49.74L326.49 58.53L321 58.94L321 56.23Q321 55.05 320.41 54.75Q319.76 54.46 318.82 54.46Q316.46 54.46 314.96 56.14Q313.45 57.82 313.45 60.41L313.45 74.10L318.58 74.34L318.58 79L302.77 79L302.77 74.52L304.72 74.34Q305.60 74.22 306.02 73.84Q306.43 73.45 306.43 72.39M344.60 53.81Q343.19 53.28 341.18 53.28Q339.18 53.28 337.97 54.19Q336.76 55.10 336.76 56.43Q336.76 57.76 337.20 58.50Q337.64 59.23 338.59 59.77Q340.06 60.53 342.13 61.09Q344.19 61.65 345.19 61.98Q346.20 62.30 347.70 63.07Q349.21 63.84 349.97 64.72Q352.04 66.91 352.04 70.33Q352.04 74.75 348.82 77.26Q345.61 79.77 340.65 79.77Q333.45 79.77 329.79 77.94L329.79 69.74L335.10 69.32L335.10 72.16Q335.10 74.75 340.06 74.75Q345.02 74.75 345.02 71.15Q345.02 69.86 344.16 69.03Q343.31 68.20 342.48 67.91Q341.65 67.61 340.50 67.32Q339.35 67.02 338.26 66.73Q337.17 66.43 335.90 65.93Q334.63 65.43 333.10 64.49Q330.09 62.54 330.09 57.97Q330.09 53.39 333.33 50.92Q336.58 48.44 341.51 48.44Q346.43 48.44 351.27 50.80L351.27 57.88L345.96 58.29L345.96 55.81Q345.96 54.34 344.60 53.81" fill="#f0f6fc"/>
</svg>
