<?xml version="1.0" encoding="UTF-8"?>
<svg xmlns="http://www.w3.org/2000/svg" viewBox="0 0 960 112" width="960" height="112" role="img" aria-label="Support">
  <rect width="960" height="112" fill="#ffffff"/>
  <rect x="30" y="16" width="8" height="80" rx="4" fill="#8b949e"/>
  <path d="M78.22 73.69Q85.30 73.69 85.30 68.03Q85.30 65.08 82.17 63.66Q80.52 62.83 77.89 62.13Q75.27 61.42 73.53 60.68Q71.79 59.94 70.02 58.64Q66.54 56.05 66.54 50.65Q66.54 45.25 70.28 42.15Q74.03 39.06 80.08 39.06Q86.13 39.06 91.32 41.48L91.32 50.33L85.30 50.74L85.30 47.32Q85.30 46.43 85.06 46.02Q84.41 44.90 80.90 44.90Q77.39 44.90 75.71 46.14Q74.03 47.38 74.03 49.97Q74.03 51.86 75.45 53.28Q76.39 54.22 78.25 54.84Q80.11 55.46 82.20 56.11Q84.30 56.76 85.92 57.52Q87.54 58.29 89.31 59.65Q92.91 62.30 92.91 67.85Q92.91 73.39 88.93 76.58Q84.94 79.77 78.43 79.77Q71.91 79.77 66.71 77.35L66.71 68.03L72.73 67.61L72.73 71.21Q72.73 72.10 72.97 72.51Q73.20 72.92 74.41 73.31Q75.62 73.69 78.22 73.69M124.77 74.16L126.83 74.34L126.83 79L117.28 79L117.28 75.17Q114.03 79.77 107.72 79.77Q98.57 79.77 98.57 69.56L98.57 55.93Q98.57 54.34 97.10 54.28L95.21 54.16L95.21 49.32L105.59 49.32L105.59 68.03Q105.59 71.15 106.48 72.75Q107.36 74.34 110.14 74.34Q112.91 74.34 114.59 72.63Q116.27 70.92 116.27 68.50L116.27 56.05Q116.27 55.10 115.95 54.72Q115.63 54.34 114.80 54.28L112.91 54.16L112.91 49.32L123.30 49.32L123.30 72.45Q123.30 73.39 123.59 73.72Q123.88 74.04 124.77 74.16M133.15 84.61L133.15 56.05Q133.15 55.05 132.82 54.66Q132.50 54.28 131.67 54.28L129.19 54.10L129.19 49.32L139.17 49.32L139.17 53.16Q140.11 51.39 142.59 49.91Q145.07 48.44 148.49 48.44Q159.17 48.44 159.17 63.42Q159.17 71.39 155.69 75.64Q152.20 79.89 146.25 79.89Q142.71 79.89 139.93 78.17L139.93 86.32L144.71 86.55L144.71 91.21L129.49 91.21L129.49 86.73L131.44 86.55Q132.32 86.43 132.73 86.05Q133.15 85.67 133.15 84.61M151.85 64.01Q151.85 54.16 145.89 54.16Q143.41 54.16 141.67 55.67Q139.93 57.17 139.93 59.23L139.93 72.81Q142.17 74.28 145.39 74.28Q148.61 74.28 150.23 71.33Q151.85 68.38 151.85 64.01M166.66 84.61L166.66 56.05Q166.66 55.05 166.34 54.66Q166.01 54.28 165.19 54.28L162.71 54.10L162.71 49.32L172.68 49.32L172.68 53.16Q173.62 51.39 176.10 49.91Q178.58 48.44 182 48.44Q192.68 48.44 192.68 63.42Q192.68 71.39 189.20 75.64Q185.72 79.89 179.76 79.89Q176.22 79.89 173.44 78.17L173.44 86.32L178.22 86.55L178.22 91.21L163 91.21L163 86.73L164.95 86.55Q165.83 86.43 166.25 86.05Q166.66 85.67 166.66 84.61M185.36 64.01Q185.36 54.16 179.40 54.16Q176.93 54.16 175.19 55.67Q173.44 57.17 173.44 59.23L173.44 72.81Q175.69 74.28 178.90 74.28Q182.12 74.28 183.74 71.33Q185.36 68.38 185.36 64.01M210.44 74.69Q216.87 74.69 216.87 64.31Q216.87 59.06 215.42 56.34Q213.98 53.63 210.59 53.63Q207.19 53.63 205.60 56.23Q204.01 58.82 204.01 63.31Q204.01 71.63 207.07 73.75Q208.43 74.69 210.44 74.69M196.87 64.13Q196.87 59.77 198.17 56.55Q199.46 53.33 201.65 51.62Q205.84 48.44 210.91 48.44Q214.45 48.44 216.90 49.59Q219.35 50.74 220.73 52.24Q222.12 53.75 223.09 56.61Q224.07 59.47 224.07 63.36Q224.07 71.51 220.11 75.70Q216.16 79.89 210 79.89Q203.83 79.89 200.35 75.90Q196.87 71.92 196.87 64.13M231.68 72.39L231.68 56.05Q231.68 55.10 231.35 54.72Q231.03 54.34 230.20 54.28L227.72 54.10L227.72 49.32L237.70 49.32L237.70 53.75Q238.76 51.45 241 49.94Q243.24 48.44 246.16 48.44Q249.08 48.44 251.74 49.74L251.74 58.53L246.25 58.94L246.25 56.23Q246.25 55.05 245.66 54.75Q245.01 54.46 244.07 54.46Q241.71 54.46 240.20 56.14Q238.70 57.82 238.70 60.41L238.70 74.10L243.83 74.34L243.83 79L228.02 79L228.02 74.52L229.97 74.34Q230.85 74.22 231.26 73.84Q231.68 73.45 231.68 72.39M261.83 43.07L265.66 43.07L265.66 49.32L273.51 49.32L272.92 54.28L265.66 54.28L265.66 69.80Q265.66 72.39 266.61 73.42Q267.55 74.46 269.53 74.46Q271.50 74.46 273.51 73.22L275.28 77.76Q272.33 79.83 267.79 79.83Q265.13 79.83 263.30 79.15Q261.47 78.47 260.59 77.64Q259.70 76.82 259.23 75.22Q258.76 73.63 258.70 72.72Q258.64 71.80 258.64 70.03L258.64 54.28L254.45 54.28L255.04 49.97Q257.81 49.74 259.23 48Q260.65 46.25 261.83 43.07" fill="#1f2328"/>
</svg>
