<?xml version="1.0" encoding="UTF-8"?>
<svg xmlns="http://www.w3.org/2000/svg" viewBox="0 0 960 112" width="960" height="112" role="img" aria-label="Plugins">
  <rect width="960" height="112" fill="#0d1117"/>
  <rect x="30" y="16" width="8" height="80" rx="4" fill="#6e7681"/>
  <path d="M80.52 79L64 79L64 74.22L65.95 74.04Q67.66 73.87 67.66 72.39L67.66 44.96L64.30 44.78L64.30 39.77L81.17 39.77Q87.78 39.77 91.46 42.86Q95.15 45.96 95.15 52.16Q95.15 58.35 90.96 61.80Q86.77 65.25 79.87 65.25L74.86 65.25L74.86 73.81L80.52 73.98L80.52 79M74.86 45.49L74.86 59.53L79.10 59.53Q87.72 59.53 87.72 52.51Q87.72 48.26 85.51 46.87Q83.29 45.49 78.45 45.49L74.86 45.49M98.87 36.93L109.43 36.93L109.43 74.10L112.79 74.28L112.79 79L98.75 79L98.75 74.52L100.70 74.34Q102.41 74.16 102.41 72.45L102.41 43.36Q102.41 42.07 100.93 41.95L98.87 41.83L98.87 36.93M145.07 74.16L147.13 74.34L147.13 79L137.57 79L137.57 75.17Q134.33 79.77 128.01 79.77Q118.87 79.77 118.87 69.56L118.87 55.93Q118.87 54.34 117.39 54.28L115.51 54.16L115.51 49.32L125.89 49.32L125.89 68.03Q125.89 71.15 126.78 72.75Q127.66 74.34 130.43 74.34Q133.21 74.34 134.89 72.63Q136.57 70.92 136.57 68.50L136.57 56.05Q136.57 55.10 136.25 54.72Q135.92 54.34 135.09 54.28L133.21 54.16L133.21 49.32L143.59 49.32L143.59 72.45Q143.59 73.39 143.89 73.72Q144.18 74.04 145.07 74.16M176.98 78.94Q176.45 85.49 173.21 88.56Q169.96 91.63 163.06 91.63Q156.16 91.63 152.26 89.68L152.26 81.48L157.87 81.01L157.87 83.84Q157.87 85.43 159.34 85.99Q160.82 86.55 163.41 86.55Q167.19 86.55 168.72 84.28Q170.26 82.01 170.26 77.88L170.26 74.63Q167.43 77.94 162.41 77.94Q159.34 77.94 157.01 76.76Q154.68 75.58 153.38 73.57Q150.85 69.56 150.85 64.13Q150.85 56.40 155.04 52.42Q159.23 48.44 166.19 48.44Q171.97 48.44 177.10 50.62L177.10 72.51Q177.10 77.53 176.98 78.94M170.26 66.96L170.26 54.28Q168.19 53.57 165.54 53.57Q161.94 53.57 160.02 56.23Q158.10 58.88 158.10 63.42Q158.10 72.75 164.24 72.75Q166.78 72.75 168.52 71.18Q170.26 69.62 170.26 66.96M182.94 49.32L193.50 49.32L193.50 74.10L196.87 74.28L196.87 79L182.83 79L182.83 74.52L184.77 74.34Q186.48 74.16 186.48 72.45L186.48 56.05Q186.48 55.05 186.16 54.69Q185.83 54.34 185.01 54.34L182.94 54.22L182.94 49.32M186.07 44.22Q184.83 43.01 184.83 41.12Q184.83 39.23 186.07 37.97Q187.31 36.70 189.32 36.70Q191.32 36.70 192.59 37.97Q193.86 39.23 193.86 41.12Q193.86 43.01 192.59 44.22Q191.32 45.43 189.32 45.43Q187.31 45.43 186.07 44.22M202.41 54.22L199.94 54.04L199.94 49.32L209.91 49.32L209.91 53.16Q211.44 50.97 213.98 49.71Q216.51 48.44 219.46 48.44Q223.95 48.44 226.40 51Q228.85 53.57 228.85 58.70L228.85 74.10L232.21 74.28L232.21 79L218.17 79L218.17 74.52L220.11 74.34Q221 74.22 221.41 73.84Q221.82 73.45 221.82 72.39L221.82 60.24Q221.82 56.99 220.82 55.43Q219.82 53.87 217.02 53.87Q214.21 53.87 212.56 55.64Q210.91 57.41 210.91 59.83L210.91 74.10L214.27 74.28L214.27 79L200.23 79L200.23 74.52L202.18 74.34Q203.06 74.22 203.48 73.84Q203.89 73.45 203.89 72.39L203.89 56.05Q203.89 54.28 202.41 54.22M251.15 53.81Q249.73 53.28 247.73 53.28Q245.72 53.28 244.51 54.19Q243.30 55.10 243.30 56.43Q243.30 57.76 243.74 58.50Q244.19 59.23 245.13 59.77Q246.60 60.53 248.67 61.09Q250.73 61.65 251.74 61.98Q252.74 62.30 254.25 63.07Q255.75 63.84 256.52 64.72Q258.58 66.91 258.58 70.33Q258.58 74.75 255.37 77.26Q252.15 79.77 247.19 79.77Q240 79.77 236.34 77.94L236.34 69.74L241.65 69.32L241.65 72.16Q241.65 74.75 246.60 74.75Q251.56 74.75 251.56 71.15Q251.56 69.86 250.71 69.03Q249.85 68.20 249.02 67.91Q248.20 67.61 247.05 67.32Q245.90 67.02 244.81 66.73Q243.71 66.43 242.45 65.93Q241.18 65.43 239.64 64.49Q236.63 62.54 236.63 57.97Q236.63 53.39 239.88 50.92Q243.12 48.44 248.05 48.44Q252.98 48.44 257.81 50.80L257.81 57.88L252.50 58.29L252.50 55.81Q252.50 54.34 251.15 53.81" fill="#f0f6fc"/>
</svg>
