<?xml version="1.0" encoding="UTF-8"?>
<svg xmlns="http://www.w3.org/2000/svg" viewBox="0 0 960 112" width="960" height="112" role="img" aria-label="Focus">
  <rect width="960" height="112" fill="#ffffff"/>
  <rect x="30" y="16" width="8" height="80" rx="4" fill="#8b949e"/>
  <path d="M82.11 79L66.01 79L66.01 74.22L67.95 74.04Q69.66 73.87 69.66 72.39L69.66 44.96L66.30 44.78L66.30 39.77L94.80 39.77L94.80 49.56L88.78 49.97L88.78 47.61Q88.78 46.61 88.48 46.20Q88.19 45.78 87.07 45.78L76.86 45.78L76.86 56.23L91.38 56.23L91.38 62.24L76.86 62.24L76.86 73.81L82.11 73.98L82.11 79M109.19 74.69Q115.63 74.69 115.63 64.31Q115.63 59.06 114.18 56.34Q112.73 53.63 109.34 53.63Q105.95 53.63 104.36 56.23Q102.76 58.82 102.76 63.31Q102.76 71.63 105.83 73.75Q107.19 74.69 109.19 74.69M95.62 64.13Q95.62 59.77 96.92 56.55Q98.22 53.33 100.40 51.62Q104.59 48.44 109.67 48.44Q113.21 48.44 115.65 49.59Q118.10 50.74 119.49 52.24Q120.88 53.75 121.85 56.61Q122.82 59.47 122.82 63.36Q122.82 71.51 118.87 75.70Q114.92 79.89 108.75 79.89Q102.59 79.89 99.11 75.90Q95.62 71.92 95.62 64.13M133.92 63.84Q133.92 68.85 135.80 71.63Q137.69 74.40 141.26 74.40Q144.83 74.40 148.31 71.86L150.85 76.40Q146.66 79.83 140.35 79.83Q134.03 79.83 130.40 75.84Q126.78 71.86 126.78 64.07Q126.78 56.28 130.94 52.36Q135.09 48.44 140.32 48.44Q145.54 48.44 150.02 50.86L150.02 58.53L144.59 58.94L144.59 56.11Q144.59 54.52 143.44 54.13Q142.29 53.75 141.05 53.75Q133.92 53.75 133.92 63.84M183.18 74.16L185.25 74.34L185.25 79L175.69 79L175.69 75.17Q172.44 79.77 166.13 79.77Q156.98 79.77 156.98 69.56L156.98 55.93Q156.98 54.34 155.51 54.28L153.62 54.16L153.62 49.32L164 49.32L164 68.03Q164 71.15 164.89 72.75Q165.78 74.34 168.55 74.34Q171.32 74.34 173 72.63Q174.68 70.92 174.68 68.50L174.68 56.05Q174.68 55.10 174.36 54.72Q174.03 54.34 173.21 54.28L171.32 54.16L171.32 49.32L181.70 49.32L181.70 72.45Q181.70 73.39 182 73.72Q182.29 74.04 183.18 74.16M203.71 53.81Q202.30 53.28 200.29 53.28Q198.28 53.28 197.07 54.19Q195.86 55.10 195.86 56.43Q195.86 57.76 196.31 58.50Q196.75 59.23 197.69 59.77Q199.17 60.53 201.23 61.09Q203.30 61.65 204.30 61.98Q205.30 62.30 206.81 63.07Q208.31 63.84 209.08 64.72Q211.15 66.91 211.15 70.33Q211.15 74.75 207.93 77.26Q204.71 79.77 199.76 79.77Q192.56 79.77 188.90 77.94L188.90 69.74L194.21 69.32L194.21 72.16Q194.21 74.75 199.17 74.75Q204.13 74.75 204.13 71.15Q204.13 69.86 203.27 69.03Q202.41 68.20 201.59 67.91Q200.76 67.61 199.61 67.32Q198.46 67.02 197.37 66.73Q196.28 66.43 195.01 65.93Q193.74 65.43 192.21 64.49Q189.20 62.54 189.20 57.97Q189.20 53.39 192.44 50.92Q195.69 48.44 200.61 48.44Q205.54 48.44 210.38 50.80L210.38 57.88L205.07 58.29L205.07 55.81Q205.07 54.34 203.71 53.81" fill="#1f2328"/>
</svg>
