<?xml version="1.0" encoding="UTF-8"?>
<svg xmlns="http://www.w3.org/2000/svg" viewBox="0 0 960 112" width="960" height="112" role="img" aria-label="Containers">
  <rect width="960" height="112" fill="#0d1117"/>
  <rect x="30" y="16" width="8" height="80" rx="4" fill="#6e7681"/>
  <path d="M87.36 46.02Q86.72 44.90 82.53 44.90Q77.04 44.90 74.21 48.61Q71.38 52.33 71.38 59.35Q71.38 73.93 82.29 73.93Q82.47 73.93 83.85 73.93Q85.24 73.93 86.48 73.54Q87.72 73.16 87.95 72.75Q88.19 72.33 88.19 71.45L88.19 66.73L94.21 67.14L94.21 77.35Q89.61 79.77 82.53 79.77Q73.50 79.77 68.75 74.69Q64 69.62 64 59.59Q64 54.04 65.59 49.91Q67.19 45.78 69.90 43.48Q75.21 39.06 82.53 39.06Q88.43 39.06 93.62 41.48L93.62 51.51L87.60 51.92L87.60 47.32Q87.60 46.43 87.36 46.02M112.67 74.69Q119.11 74.69 119.11 64.31Q119.11 59.06 117.66 56.34Q116.22 53.63 112.82 53.63Q109.43 53.63 107.84 56.23Q106.24 58.82 106.24 63.31Q106.24 71.63 109.31 73.75Q110.67 74.69 112.67 74.69M99.11 64.13Q99.11 59.77 100.40 56.55Q101.70 53.33 103.88 51.62Q108.07 48.44 113.15 48.44Q116.69 48.44 119.14 49.59Q121.58 50.74 122.97 52.24Q124.36 53.75 125.33 56.61Q126.30 59.47 126.30 63.36Q126.30 71.51 122.35 75.70Q118.40 79.89 112.23 79.89Q106.07 79.89 102.59 75.90Q99.11 71.92 99.11 64.13M132.38 54.22L129.90 54.04L129.90 49.32L139.87 49.32L139.87 53.16Q141.41 50.97 143.94 49.71Q146.48 48.44 149.43 48.44Q153.92 48.44 156.36 51Q158.81 53.57 158.81 58.70L158.81 74.10L162.18 74.28L162.18 79L148.13 79L148.13 74.52L150.08 74.34Q150.97 74.22 151.38 73.84Q151.79 73.45 151.79 72.39L151.79 60.24Q151.79 56.99 150.79 55.43Q149.79 53.87 146.98 53.87Q144.18 53.87 142.53 55.64Q140.88 57.41 140.88 59.83L140.88 74.10L144.24 74.28L144.24 79L130.20 79L130.20 74.52L132.15 74.34Q133.03 74.22 133.44 73.84Q133.86 73.45 133.86 72.39L133.86 56.05Q133.86 54.28 132.38 54.22M169.85 43.07L173.68 43.07L173.68 49.32L181.53 49.32L180.94 54.28L173.68 54.28L173.68 69.80Q173.68 72.39 174.63 73.42Q175.57 74.46 177.55 74.46Q179.52 74.46 181.53 73.22L183.30 77.76Q180.35 79.83 175.81 79.83Q173.15 79.83 171.32 79.15Q169.49 78.47 168.61 77.64Q167.72 76.82 167.25 75.22Q166.78 73.63 166.72 72.72Q166.66 71.80 166.66 70.03L166.66 54.28L162.47 54.28L163.06 49.97Q165.83 49.74 167.25 48Q168.67 46.25 169.85 43.07M212.03 50.50L212.03 72.45Q212.03 73.39 212.36 73.75Q212.68 74.10 213.51 74.16L215.39 74.28L215.39 79L206.01 79L206.01 75.58L205.84 75.52Q202.89 79.77 197.75 79.77Q191.73 79.77 188.84 75.93Q185.95 72.10 185.95 65.43Q185.95 57.41 189.85 52.92Q193.74 48.44 201.53 48.44Q206.54 48.44 212.03 50.50M205.19 69.62L205.19 54.34Q203.53 53.57 200.64 53.57Q196.69 53.57 194.92 56.76Q193.15 59.94 193.15 65.19Q193.15 74.75 199.29 74.75Q201.88 74.75 203.53 73.19Q205.19 71.63 205.19 69.62M219.11 49.32L229.67 49.32L229.67 74.10L233.03 74.28L233.03 79L218.99 79L218.99 74.52L220.94 74.34Q222.65 74.16 222.65 72.45L222.65 56.05Q222.65 55.05 222.33 54.69Q222 54.34 221.18 54.34L219.11 54.22L219.11 49.32M222.24 44.22Q221 43.01 221 41.12Q221 39.23 222.24 37.97Q223.48 36.70 225.48 36.70Q227.49 36.70 228.76 37.97Q230.03 39.23 230.03 41.12Q230.03 43.01 228.76 44.22Q227.49 45.43 225.48 45.43Q223.48 45.43 222.24 44.22M238.58 54.22L236.10 54.04L236.10 49.32L246.07 49.32L246.07 53.16Q247.61 50.97 250.14 49.71Q252.68 48.44 255.63 48.44Q260.12 48.44 262.56 51Q265.01 53.57 265.01 58.70L265.01 74.10L268.38 74.28L268.38 79L254.33 79L254.33 74.52L256.28 74.34Q257.17 74.22 257.58 73.84Q257.99 73.45 257.99 72.39L257.99 60.24Q257.99 56.99 256.99 55.43Q255.99 53.87 253.18 53.87Q250.38 53.87 248.73 55.64Q247.08 57.41 247.08 59.83L247.08 74.10L250.44 74.28L250.44 79L236.40 79L236.40 74.52L238.34 74.34Q239.23 74.22 239.64 73.84Q240.06 73.45 240.06 72.39L240.06 56.05Q240.06 54.28 238.58 54.22M286.67 48.44Q291.09 48.44 293.69 50.59Q296.28 52.74 296.28 56.64Q296.28 59.23 295.16 61.21Q294.04 63.19 292.39 64.31Q290.74 65.43 288.38 66.14Q284.42 67.32 279.47 67.32Q279.64 70.44 281.41 72.36Q283.18 74.28 286.84 74.28Q290.50 74.28 294.16 71.68L296.40 76.46Q295.22 77.53 292.42 78.65Q289.62 79.77 286.02 79.77Q278.82 79.77 275.46 75.78Q272.09 71.80 272.09 64.84Q272.09 57.88 275.93 53.16Q279.76 48.44 286.67 48.44M283.98 61.92Q286.13 61.54 287.96 60.21Q289.79 58.88 289.79 57.05Q289.79 53.45 286.25 53.45Q282.95 53.45 281.18 56.08Q279.41 58.70 279.23 62.36Q281.83 62.30 283.98 61.92M304.07 72.39L304.07 56.05Q304.07 55.10 303.75 54.72Q303.42 54.34 302.60 54.28L300.12 54.10L300.12 49.32L310.09 49.32L310.09 53.75Q311.15 51.45 313.39 49.94Q315.63 48.44 318.56 48.44Q321.48 48.44 324.13 49.74L324.13 58.53L318.64 58.94L318.64 56.23Q318.64 55.05 318.05 54.75Q317.40 54.46 316.46 54.46Q314.10 54.46 312.60 56.14Q311.09 57.82 311.09 60.41L311.09 74.10L316.22 74.34L316.22 79L300.41 79L300.41 74.52L302.36 74.34Q303.24 74.22 303.66 73.84Q304.07 73.45 304.07 72.39M342.24 53.81Q340.83 53.28 338.82 53.28Q336.82 53.28 335.61 54.19Q334.40 55.10 334.40 56.43Q334.40 57.76 334.84 58.50Q335.28 59.23 336.23 59.77Q337.70 60.53 339.77 61.09Q341.83 61.65 342.83 61.98Q343.84 62.30 345.34 63.07Q346.85 63.84 347.61 64.72Q349.68 66.91 349.68 70.33Q349.68 74.75 346.46 77.26Q343.25 79.77 338.29 79.77Q331.09 79.77 327.43 77.94L327.43 69.74L332.74 69.32L332.74 72.16Q332.74 74.75 337.70 74.75Q342.66 74.75 342.66 71.15Q342.66 69.86 341.80 69.03Q340.95 68.20 340.12 67.91Q339.29 67.61 338.14 67.32Q336.99 67.02 335.90 66.73Q334.81 66.43 333.54 65.93Q332.27 65.43 330.74 64.49Q327.73 62.54 327.73 57.97Q327.73 53.39 330.97 50.92Q334.22 48.44 339.15 48.44Q344.07 48.44 348.91 50.80L348.91 57.88L343.60 58.29L343.60 55.81Q343.60 54.34 342.24 53.81" fill="#f0f6fc"/>
</svg>
