<?xml version="1.0" encoding="UTF-8"?>
<svg xmlns="http://www.w3.org/2000/svg" viewBox="0 0 1600 132" width="1600" height="132" role="img" aria-label="Feed &amp; extras">
  <rect width="1600" height="132" fill="#ffffff"/>
  <rect x="40" y="24" width="8" height="84" rx="4" fill="#8b949e"/>
  <path d="M95.03 91L78.11 91L78.11 85.98L80.15 85.79Q81.95 85.61 81.95 84.06L81.95 55.23L78.42 55.04L78.42 49.77L108.36 49.77L108.36 60.06L102.04 60.50L102.04 58.02Q102.04 56.96 101.73 56.53Q101.42 56.09 100.24 56.09L89.52 56.09L89.52 67.07L104.77 67.07L104.77 73.39L89.52 73.39L89.52 85.54L95.03 85.73L95.03 91M127.27 58.88Q131.92 58.88 134.65 61.15Q137.38 63.41 137.38 67.50Q137.38 70.23 136.20 72.31Q135.02 74.38 133.29 75.56Q131.55 76.74 129.07 77.48Q124.92 78.72 119.71 78.72Q119.90 82.01 121.76 84.03Q123.62 86.04 127.46 86.04Q131.30 86.04 135.15 83.31L137.50 88.33Q136.26 89.45 133.32 90.63Q130.37 91.81 126.59 91.81Q119.03 91.81 115.49 87.62Q111.96 83.44 111.96 76.12Q111.96 68.80 115.99 63.84Q120.02 58.88 127.27 58.88M124.45 73.05Q126.72 72.65 128.64 71.25Q130.56 69.86 130.56 67.94Q130.56 64.15 126.84 64.15Q123.37 64.15 121.51 66.91Q119.65 69.67 119.46 73.52Q122.19 73.45 124.45 73.05M157.28 58.88Q161.93 58.88 164.66 61.15Q167.39 63.41 167.39 67.50Q167.39 70.23 166.21 72.31Q165.03 74.38 163.30 75.56Q161.56 76.74 159.08 77.48Q154.93 78.72 149.72 78.72Q149.90 82.01 151.76 84.03Q153.62 86.04 157.47 86.04Q161.31 86.04 165.16 83.31L167.51 88.33Q166.27 89.45 163.33 90.63Q160.38 91.81 156.60 91.81Q149.04 91.81 145.50 87.62Q141.97 83.44 141.97 76.12Q141.97 68.80 146 63.84Q150.03 58.88 157.28 58.88M154.46 73.05Q156.72 72.65 158.65 71.25Q160.57 69.86 160.57 67.94Q160.57 64.15 156.85 64.15Q153.38 64.15 151.52 66.91Q149.66 69.67 149.47 73.52Q152.20 73.45 154.46 73.05M187.29 58.88Q189.96 58.88 192.37 59.63L192.37 53.37Q192.37 52 190.76 51.88L188.10 51.69L188.10 46.79L199.63 46.79L199.63 84.49Q199.69 85.92 201.18 85.92L203.35 86.04L203.35 91L193.30 91L193.30 87.34L193.12 87.28Q190.33 91.81 184.69 91.81Q177.62 91.81 174.77 87.09Q172.16 82.82 172.16 76.62Q172.16 68.56 176.16 63.72Q180.16 58.88 187.29 58.88M192.37 81.33L192.37 65.27Q190.14 64.28 187.66 64.28Q183.57 64.28 181.68 67.56Q179.79 70.85 179.79 75.93Q179.79 86.35 186.48 86.35Q189.03 86.35 190.70 84.89Q192.37 83.44 192.37 81.33M246.75 77.36Q247.93 74.38 247.93 71.66Q247.93 70.79 246.81 70.66L244.83 70.54L244.83 65.70L257.91 65.70L257.91 70.73L254.50 70.85Q254.50 76.80 251.89 81.76Q254.68 84.12 259.71 87.71L255.61 93.11Q251.89 90.63 247.80 87.28Q243.21 91.87 235.40 91.87Q227.59 91.87 223.99 88.21Q220.40 84.55 220.40 79.28Q220.40 71.10 227.96 66.39Q226.04 63.22 226.04 59.57Q226.04 54.85 229.20 51.94Q232.36 49.03 238.10 49.03Q243.83 49.03 249.29 51.57L249.29 60.93L242.97 61.36L242.97 57.58Q242.97 55.85 241.66 55.41Q239.99 54.92 238.38 54.92Q233.36 54.92 233.36 59.69Q233.36 66.01 246.75 77.36M242.59 82.94Q235.15 76.62 231.37 71.53Q227.59 74.20 227.59 78.79Q227.59 81.95 229.54 83.90Q231.50 85.85 235.74 85.85Q239.99 85.85 242.59 82.94M291.57 58.88Q296.22 58.88 298.95 61.15Q301.68 63.41 301.68 67.50Q301.68 70.23 300.50 72.31Q299.32 74.38 297.59 75.56Q295.85 76.74 293.37 77.48Q289.22 78.72 284.01 78.72Q284.20 82.01 286.06 84.03Q287.92 86.04 291.76 86.04Q295.60 86.04 299.45 83.31L301.80 88.33Q300.56 89.45 297.62 90.63Q294.67 91.81 290.89 91.81Q283.33 91.81 279.79 87.62Q276.26 83.44 276.26 76.12Q276.26 68.80 280.29 63.84Q284.32 58.88 291.57 58.88M288.75 73.05Q291.02 72.65 292.94 71.25Q294.86 69.86 294.86 67.94Q294.86 64.15 291.14 64.15Q287.67 64.15 285.81 66.91Q283.95 69.67 283.76 73.52Q286.49 73.45 288.75 73.05M323.75 84.43L319.97 79.47L314.82 85.85L317.74 86.04L317.74 91L304.84 91L304.84 86.10L306.76 85.92Q308.19 85.73 309.24 84.43L316.37 75.50L308.75 64.96L305.59 64.59L305.59 59.81L320.03 59.81L320.03 64.71L318.23 64.84Q317.49 64.90 317.27 65.39Q317.06 65.89 317.49 66.45L321.02 71.16L325.80 64.96L323.26 64.77L323.26 59.81L335.84 59.81L335.84 64.65L333.98 64.77Q332.68 64.84 331.50 66.32L324.68 74.94L332.80 85.73L335.97 86.10L335.97 91L321.21 91L321.21 86.10L323.13 85.98Q323.94 85.92 324.09 85.45Q324.25 84.99 323.75 84.43M346.01 53.24L350.04 53.24L350.04 59.81L358.29 59.81L357.67 65.02L350.04 65.02L350.04 81.33Q350.04 84.06 351.03 85.14Q352.02 86.23 354.10 86.23Q356.18 86.23 358.29 84.92L360.15 89.70Q357.05 91.87 352.27 91.87Q349.48 91.87 347.56 91.16Q345.64 90.44 344.71 89.57Q343.78 88.71 343.28 87.03Q342.79 85.36 342.72 84.40Q342.66 83.44 342.66 81.58L342.66 65.02L338.26 65.02L338.88 60.50Q341.79 60.25 343.28 58.42Q344.77 56.59 346.01 53.24M366.35 84.06L366.35 66.88Q366.35 65.89 366 65.49Q365.66 65.08 364.80 65.02L362.19 64.84L362.19 59.81L372.67 59.81L372.67 64.46Q373.79 62.05 376.14 60.47Q378.50 58.88 381.57 58.88Q384.64 58.88 387.43 60.25L387.43 69.49L381.66 69.92L381.66 67.07Q381.66 65.83 381.04 65.52Q380.36 65.21 379.37 65.21Q376.89 65.21 375.31 66.97Q373.72 68.74 373.72 71.47L373.72 85.85L379.12 86.10L379.12 91L362.50 91L362.50 86.29L364.55 86.10Q365.48 85.98 365.91 85.58Q366.35 85.17 366.35 84.06M418.98 61.05L418.98 84.12Q418.98 85.11 419.33 85.48Q419.67 85.85 420.53 85.92L422.52 86.04L422.52 91L412.66 91L412.66 87.40L412.47 87.34Q409.37 91.81 403.98 91.81Q397.66 91.81 394.62 87.78Q391.58 83.75 391.58 76.74Q391.58 68.31 395.67 63.60Q399.76 58.88 407.95 58.88Q413.22 58.88 418.98 61.05M411.79 81.14L411.79 65.08Q410.06 64.28 407.02 64.28Q402.86 64.28 401 67.63Q399.14 70.97 399.14 76.49Q399.14 86.54 405.59 86.54Q408.32 86.54 410.06 84.89Q411.79 83.25 411.79 81.14M442.54 64.53Q441.06 63.97 438.95 63.97Q436.84 63.97 435.57 64.93Q434.30 65.89 434.30 67.28Q434.30 68.68 434.76 69.45Q435.23 70.23 436.22 70.79Q437.77 71.59 439.94 72.18Q442.11 72.77 443.16 73.11Q444.22 73.45 445.80 74.26Q447.38 75.07 448.19 76Q450.36 78.29 450.36 81.89Q450.36 86.54 446.98 89.17Q443.60 91.81 438.39 91.81Q430.83 91.81 426.98 89.88L426.98 81.27L432.56 80.83L432.56 83.81Q432.56 86.54 437.77 86.54Q442.98 86.54 442.98 82.75Q442.98 81.39 442.08 80.52Q441.18 79.65 440.31 79.34Q439.44 79.03 438.24 78.72Q437.03 78.41 435.88 78.10Q434.73 77.79 433.40 77.27Q432.07 76.74 430.45 75.75Q427.29 73.70 427.29 68.90Q427.29 64.09 430.70 61.49Q434.11 58.88 439.29 58.88Q444.47 58.88 449.55 61.36L449.55 68.80L443.97 69.24L443.97 66.63Q443.97 65.08 442.54 64.53" fill="#1f2328"/>
</svg>
