<?xml version="1.0" encoding="UTF-8"?>
<svg xmlns="http://www.w3.org/2000/svg" viewBox="0 0 960 112" width="960" height="112" role="img" aria-label="Support">
  <rect width="960" height="112" fill="#ffffff"/>
  <rect x="30" y="16" width="8" height="80" rx="4" fill="#8b949e"/>
  <path d="M75.68 73.69Q82.76 73.69 82.76 68.03Q82.76 65.08 79.64 63.66Q77.98 62.83 75.36 62.13Q72.73 61.42 70.99 60.68Q69.25 59.94 67.48 58.64Q64 56.05 64 50.65Q64 45.25 67.75 42.15Q71.49 39.06 77.54 39.06Q83.59 39.06 88.78 41.48L88.78 50.33L82.76 50.74L82.76 47.32Q82.76 46.43 82.53 46.02Q81.88 44.90 78.37 44.90Q74.86 44.90 73.17 46.14Q71.49 47.38 71.49 49.97Q71.49 51.86 72.91 53.28Q73.85 54.22 75.71 54.84Q77.57 55.46 79.66 56.11Q81.76 56.76 83.38 57.52Q85 58.29 86.77 59.65Q90.37 62.30 90.37 67.85Q90.37 73.39 86.39 76.58Q82.41 79.77 75.89 79.77Q69.37 79.77 64.18 77.35L64.18 68.03L70.20 67.61L70.20 71.21Q70.20 72.10 70.43 72.51Q70.67 72.92 71.88 73.31Q73.09 73.69 75.68 73.69M122.23 74.16L124.30 74.34L124.30 79L114.74 79L114.74 75.17Q111.49 79.77 105.18 79.77Q96.04 79.77 96.04 69.56L96.04 55.93Q96.04 54.34 94.56 54.28L92.67 54.16L92.67 49.32L103.06 49.32L103.06 68.03Q103.06 71.15 103.94 72.75Q104.83 74.34 107.60 74.34Q110.37 74.34 112.06 72.63Q113.74 70.92 113.74 68.50L113.74 56.05Q113.74 55.10 113.41 54.72Q113.09 54.34 112.26 54.28L110.37 54.16L110.37 49.32L120.76 49.32L120.76 72.45Q120.76 73.39 121.05 73.72Q121.35 74.04 122.23 74.16M130.61 84.61L130.61 56.05Q130.61 55.05 130.29 54.66Q129.96 54.28 129.14 54.28L126.66 54.10L126.66 49.32L136.63 49.32L136.63 53.16Q137.57 51.39 140.05 49.91Q142.53 48.44 145.95 48.44Q156.63 48.44 156.63 63.42Q156.63 71.39 153.15 75.64Q149.67 79.89 143.71 79.89Q140.17 79.89 137.40 78.17L137.40 86.32L142.17 86.55L142.17 91.21L126.95 91.21L126.95 86.73L128.90 86.55Q129.78 86.43 130.20 86.05Q130.61 85.67 130.61 84.61M149.31 64.01Q149.31 54.16 143.35 54.16Q140.88 54.16 139.14 55.67Q137.40 57.17 137.40 59.23L137.40 72.81Q139.64 74.28 142.85 74.28Q146.07 74.28 147.69 71.33Q149.31 68.38 149.31 64.01M164.12 84.61L164.12 56.05Q164.12 55.05 163.80 54.66Q163.47 54.28 162.65 54.28L160.17 54.10L160.17 49.32L170.14 49.32L170.14 53.16Q171.08 51.39 173.56 49.91Q176.04 48.44 179.46 48.44Q190.14 48.44 190.14 63.42Q190.14 71.39 186.66 75.64Q183.18 79.89 177.22 79.89Q173.68 79.89 170.91 78.17L170.91 86.32L175.69 86.55L175.69 91.21L160.46 91.21L160.46 86.73L162.41 86.55Q163.30 86.43 163.71 86.05Q164.12 85.67 164.12 84.61M182.83 64.01Q182.83 54.16 176.87 54.16Q174.39 54.16 172.65 55.67Q170.91 57.17 170.91 59.23L170.91 72.81Q173.15 74.28 176.37 74.28Q179.58 74.28 181.20 71.33Q182.83 68.38 182.83 64.01M207.90 74.69Q214.33 74.69 214.33 64.31Q214.33 59.06 212.89 56.34Q211.44 53.63 208.05 53.63Q204.66 53.63 203.06 56.23Q201.47 58.82 201.47 63.31Q201.47 71.63 204.54 73.75Q205.89 74.69 207.90 74.69M194.33 64.13Q194.33 59.77 195.63 56.55Q196.93 53.33 199.11 51.62Q203.30 48.44 208.37 48.44Q211.91 48.44 214.36 49.59Q216.81 50.74 218.20 52.24Q219.58 53.75 220.56 56.61Q221.53 59.47 221.53 63.36Q221.53 71.51 217.58 75.70Q213.62 79.89 207.46 79.89Q201.29 79.89 197.81 75.90Q194.33 71.92 194.33 64.13M229.14 72.39L229.14 56.05Q229.14 55.10 228.82 54.72Q228.49 54.34 227.67 54.28L225.19 54.10L225.19 49.32L235.16 49.32L235.16 53.75Q236.22 51.45 238.46 49.94Q240.71 48.44 243.63 48.44Q246.55 48.44 249.20 49.74L249.20 58.53L243.71 58.94L243.71 56.23Q243.71 55.05 243.12 54.75Q242.47 54.46 241.53 54.46Q239.17 54.46 237.67 56.14Q236.16 57.82 236.16 60.41L236.16 74.10L241.30 74.34L241.30 79L225.48 79L225.48 74.52L227.43 74.34Q228.31 74.22 228.73 73.84Q229.14 73.45 229.14 72.39M259.29 43.07L263.13 43.07L263.13 49.32L270.97 49.32L270.38 54.28L263.13 54.28L263.13 69.80Q263.13 72.39 264.07 73.42Q265.01 74.46 266.99 74.46Q268.97 74.46 270.97 73.22L272.74 77.76Q269.79 79.83 265.25 79.83Q262.59 79.83 260.76 79.15Q258.94 78.47 258.05 77.64Q257.17 76.82 256.69 75.22Q256.22 73.63 256.16 72.72Q256.10 71.80 256.10 70.03L256.10 54.28L251.92 54.28L252.51 49.97Q255.28 49.74 256.69 48Q258.11 46.25 259.29 43.07" fill="#1f2328"/>
</svg>
