<?xml version="1.0" encoding="UTF-8"?>
<svg xmlns="http://www.w3.org/2000/svg" viewBox="0 0 1600 132" width="1600" height="132" role="img" aria-label="Feed &amp; extras">
  <rect width="1600" height="132" fill="#0d1117"/>
  <rect x="37" y="24" width="6" height="84" rx="4" fill="#6e7681"/>
  <path d="M85.03 91L68.11 91L68.11 85.98L70.15 85.79Q71.95 85.61 71.95 84.06L71.95 55.23L68.42 55.04L68.42 49.77L98.36 49.77L98.36 60.06L92.04 60.50L92.04 58.02Q92.04 56.96 91.73 56.53Q91.42 56.09 90.24 56.09L79.52 56.09L79.52 67.07L94.77 67.07L94.77 73.39L79.52 73.39L79.52 85.54L85.03 85.73L85.03 91M117.27 58.88Q121.92 58.88 124.65 61.15Q127.38 63.41 127.38 67.50Q127.38 70.23 126.20 72.31Q125.02 74.38 123.29 75.56Q121.55 76.74 119.07 77.48Q114.92 78.72 109.71 78.72Q109.90 82.01 111.76 84.03Q113.62 86.04 117.46 86.04Q121.30 86.04 125.15 83.31L127.50 88.33Q126.26 89.45 123.32 90.63Q120.37 91.81 116.59 91.81Q109.03 91.81 105.49 87.62Q101.96 83.44 101.96 76.12Q101.96 68.80 105.99 63.84Q110.02 58.88 117.27 58.88M114.45 73.05Q116.72 72.65 118.64 71.25Q120.56 69.86 120.56 67.94Q120.56 64.15 116.84 64.15Q113.37 64.15 111.51 66.91Q109.65 69.67 109.46 73.52Q112.19 73.45 114.45 73.05M147.28 58.88Q151.93 58.88 154.66 61.15Q157.39 63.41 157.39 67.50Q157.39 70.23 156.21 72.31Q155.03 74.38 153.30 75.56Q151.56 76.74 149.08 77.48Q144.93 78.72 139.72 78.72Q139.90 82.01 141.76 84.03Q143.62 86.04 147.47 86.04Q151.31 86.04 155.16 83.31L157.51 88.33Q156.27 89.45 153.33 90.63Q150.38 91.81 146.60 91.81Q139.04 91.81 135.50 87.62Q131.97 83.44 131.97 76.12Q131.97 68.80 136 63.84Q140.03 58.88 147.28 58.88M144.46 73.05Q146.72 72.65 148.65 71.25Q150.57 69.86 150.57 67.94Q150.57 64.15 146.85 64.15Q143.38 64.15 141.52 66.91Q139.66 69.67 139.47 73.52Q142.20 73.45 144.46 73.05M177.29 58.88Q179.96 58.88 182.37 59.63L182.37 53.37Q182.37 52 180.76 51.88L178.10 51.69L178.10 46.79L189.63 46.79L189.63 84.49Q189.69 85.92 191.18 85.92L193.35 86.04L193.35 91L183.30 91L183.30 87.34L183.12 87.28Q180.33 91.81 174.69 91.81Q167.62 91.81 164.77 87.09Q162.16 82.82 162.16 76.62Q162.16 68.56 166.16 63.72Q170.16 58.88 177.29 58.88M182.37 81.33L182.37 65.27Q180.14 64.28 177.66 64.28Q173.57 64.28 171.68 67.56Q169.79 70.85 169.79 75.93Q169.79 86.35 176.48 86.35Q179.03 86.35 180.70 84.89Q182.37 83.44 182.37 81.33M236.75 77.36Q237.93 74.38 237.93 71.66Q237.93 70.79 236.81 70.66L234.83 70.54L234.83 65.70L247.91 65.70L247.91 70.73L244.50 70.85Q244.50 76.80 241.89 81.76Q244.68 84.12 249.71 87.71L245.61 93.11Q241.89 90.63 237.80 87.28Q233.21 91.87 225.40 91.87Q217.59 91.87 213.99 88.21Q210.40 84.55 210.40 79.28Q210.40 71.10 217.96 66.39Q216.04 63.22 216.04 59.57Q216.04 54.85 219.20 51.94Q222.36 49.03 228.10 49.03Q233.83 49.03 239.29 51.57L239.29 60.93L232.97 61.36L232.97 57.58Q232.97 55.85 231.66 55.41Q229.99 54.92 228.38 54.92Q223.36 54.92 223.36 59.69Q223.36 66.01 236.75 77.36M232.59 82.94Q225.15 76.62 221.37 71.53Q217.59 74.20 217.59 78.79Q217.59 81.95 219.54 83.90Q221.50 85.85 225.74 85.85Q229.99 85.85 232.59 82.94M281.57 58.88Q286.22 58.88 288.95 61.15Q291.68 63.41 291.68 67.50Q291.68 70.23 290.50 72.31Q289.32 74.38 287.59 75.56Q285.85 76.74 283.37 77.48Q279.22 78.72 274.01 78.72Q274.20 82.01 276.06 84.03Q277.92 86.04 281.76 86.04Q285.60 86.04 289.45 83.31L291.80 88.33Q290.56 89.45 287.62 90.63Q284.67 91.81 280.89 91.81Q273.33 91.81 269.79 87.62Q266.26 83.44 266.26 76.12Q266.26 68.80 270.29 63.84Q274.32 58.88 281.57 58.88M278.75 73.05Q281.02 72.65 282.94 71.25Q284.86 69.86 284.86 67.94Q284.86 64.15 281.14 64.15Q277.67 64.15 275.81 66.91Q273.95 69.67 273.76 73.52Q276.49 73.45 278.75 73.05M313.75 84.43L309.97 79.47L304.82 85.85L307.74 86.04L307.74 91L294.84 91L294.84 86.10L296.76 85.92Q298.19 85.73 299.24 84.43L306.37 75.50L298.75 64.96L295.59 64.59L295.59 59.81L310.03 59.81L310.03 64.71L308.23 64.84Q307.49 64.90 307.27 65.39Q307.06 65.89 307.49 66.45L311.02 71.16L315.80 64.96L313.26 64.77L313.26 59.81L325.84 59.81L325.84 64.65L323.98 64.77Q322.68 64.84 321.50 66.32L314.68 74.94L322.80 85.73L325.97 86.10L325.97 91L311.21 91L311.21 86.10L313.13 85.98Q313.94 85.92 314.09 85.45Q314.25 84.99 313.75 84.43M336.01 53.24L340.04 53.24L340.04 59.81L348.29 59.81L347.67 65.02L340.04 65.02L340.04 81.33Q340.04 84.06 341.03 85.14Q342.02 86.23 344.10 86.23Q346.18 86.23 348.29 84.92L350.15 89.70Q347.05 91.87 342.27 91.87Q339.48 91.87 337.56 91.16Q335.64 90.44 334.71 89.57Q333.78 88.71 333.28 87.03Q332.79 85.36 332.72 84.40Q332.66 83.44 332.66 81.58L332.66 65.02L328.26 65.02L328.88 60.50Q331.79 60.25 333.28 58.42Q334.77 56.59 336.01 53.24M356.35 84.06L356.35 66.88Q356.35 65.89 356 65.49Q355.66 65.08 354.80 65.02L352.19 64.84L352.19 59.81L362.67 59.81L362.67 64.46Q363.79 62.05 366.14 60.47Q368.50 58.88 371.57 58.88Q374.64 58.88 377.43 60.25L377.43 69.49L371.66 69.92L371.66 67.07Q371.66 65.83 371.04 65.52Q370.36 65.21 369.37 65.21Q366.89 65.21 365.31 66.97Q363.72 68.74 363.72 71.47L363.72 85.85L369.12 86.10L369.12 91L352.50 91L352.50 86.29L354.55 86.10Q355.48 85.98 355.91 85.58Q356.35 85.17 356.35 84.06M408.98 61.05L408.98 84.12Q408.98 85.11 409.33 85.48Q409.67 85.85 410.53 85.92L412.52 86.04L412.52 91L402.66 91L402.66 87.40L402.47 87.34Q399.37 91.81 393.98 91.81Q387.66 91.81 384.62 87.78Q381.58 83.75 381.58 76.74Q381.58 68.31 385.67 63.60Q389.76 58.88 397.95 58.88Q403.22 58.88 408.98 61.05M401.79 81.14L401.79 65.08Q400.06 64.28 397.02 64.28Q392.86 64.28 391 67.63Q389.14 70.97 389.14 76.49Q389.14 86.54 395.59 86.54Q398.32 86.54 400.06 84.89Q401.79 83.25 401.79 81.14M432.54 64.53Q431.06 63.97 428.95 63.97Q426.84 63.97 425.57 64.93Q424.30 65.89 424.30 67.28Q424.30 68.68 424.76 69.45Q425.23 70.23 426.22 70.79Q427.77 71.59 429.94 72.18Q432.11 72.77 433.16 73.11Q434.22 73.45 435.80 74.26Q437.38 75.07 438.19 76Q440.36 78.29 440.36 81.89Q440.36 86.54 436.98 89.17Q433.60 91.81 428.39 91.81Q420.83 91.81 416.98 89.88L416.98 81.27L422.56 80.83L422.56 83.81Q422.56 86.54 427.77 86.54Q432.98 86.54 432.98 82.75Q432.98 81.39 432.08 80.52Q431.18 79.65 430.31 79.34Q429.44 79.03 428.24 78.72Q427.03 78.41 425.88 78.10Q424.73 77.79 423.40 77.27Q422.07 76.74 420.45 75.75Q417.29 73.70 417.29 68.90Q417.29 64.09 420.70 61.49Q424.11 58.88 429.29 58.88Q434.47 58.88 439.55 61.36L439.55 68.80L433.97 69.24L433.97 66.63Q433.97 65.08 432.54 64.53" fill="#f0f6fc"/>
</svg>
