<?xml version="1.0" encoding="UTF-8"?>
<svg xmlns="http://www.w3.org/2000/svg" viewBox="0 0 960 112" width="960" height="112" role="img" aria-label="Focus">
  <rect width="960" height="112" fill="#ffffff"/>
  <rect x="30" y="16" width="8" height="80" rx="4" fill="#8b949e"/>
  <path d="M80.11 79L64 79L64 74.22L65.95 74.04Q67.66 73.87 67.66 72.39L67.66 44.96L64.30 44.78L64.30 39.77L92.79 39.77L92.79 49.56L86.77 49.97L86.77 47.61Q86.77 46.61 86.48 46.20Q86.18 45.78 85.06 45.78L74.86 45.78L74.86 56.23L89.37 56.23L89.37 62.24L74.86 62.24L74.86 73.81L80.11 73.98L80.11 79M107.19 74.69Q113.62 74.69 113.62 64.31Q113.62 59.06 112.17 56.34Q110.73 53.63 107.34 53.63Q103.94 53.63 102.35 56.23Q100.76 58.82 100.76 63.31Q100.76 71.63 103.83 73.75Q105.18 74.69 107.19 74.69M93.62 64.13Q93.62 59.77 94.92 56.55Q96.21 53.33 98.40 51.62Q102.59 48.44 107.66 48.44Q111.20 48.44 113.65 49.59Q116.10 50.74 117.48 52.24Q118.87 53.75 119.84 56.61Q120.82 59.47 120.82 63.36Q120.82 71.51 116.86 75.70Q112.91 79.89 106.75 79.89Q100.58 79.89 97.10 75.90Q93.62 71.92 93.62 64.13M131.91 63.84Q131.91 68.85 133.80 71.63Q135.69 74.40 139.25 74.40Q142.82 74.40 146.31 71.86L148.84 76.40Q144.65 79.83 138.34 79.83Q132.03 79.83 128.40 75.84Q124.77 71.86 124.77 64.07Q124.77 56.28 128.93 52.36Q133.09 48.44 138.31 48.44Q143.53 48.44 148.02 50.86L148.02 58.53L142.59 58.94L142.59 56.11Q142.59 54.52 141.44 54.13Q140.29 53.75 139.05 53.75Q131.91 53.75 131.91 63.84M181.17 74.16L183.24 74.34L183.24 79L173.68 79L173.68 75.17Q170.44 79.77 164.12 79.77Q154.98 79.77 154.98 69.56L154.98 55.93Q154.98 54.34 153.50 54.28L151.62 54.16L151.62 49.32L162 49.32L162 68.03Q162 71.15 162.88 72.75Q163.77 74.34 166.54 74.34Q169.32 74.34 171 72.63Q172.68 70.92 172.68 68.50L172.68 56.05Q172.68 55.10 172.35 54.72Q172.03 54.34 171.20 54.28L169.32 54.16L169.32 49.32L179.70 49.32L179.70 72.45Q179.70 73.39 179.99 73.72Q180.29 74.04 181.17 74.16M201.71 53.81Q200.29 53.28 198.28 53.28Q196.28 53.28 195.07 54.19Q193.86 55.10 193.86 56.43Q193.86 57.76 194.30 58.50Q194.74 59.23 195.69 59.77Q197.16 60.53 199.23 61.09Q201.29 61.65 202.30 61.98Q203.30 62.30 204.80 63.07Q206.31 63.84 207.08 64.72Q209.14 66.91 209.14 70.33Q209.14 74.75 205.92 77.26Q202.71 79.77 197.75 79.77Q190.56 79.77 186.90 77.94L186.90 69.74L192.21 69.32L192.21 72.16Q192.21 74.75 197.16 74.75Q202.12 74.75 202.12 71.15Q202.12 69.86 201.26 69.03Q200.41 68.20 199.58 67.91Q198.76 67.61 197.61 67.32Q196.46 67.02 195.36 66.73Q194.27 66.43 193 65.93Q191.74 65.43 190.20 64.49Q187.19 62.54 187.19 57.97Q187.19 53.39 190.44 50.92Q193.68 48.44 198.61 48.44Q203.54 48.44 208.37 50.80L208.37 57.88L203.06 58.29L203.06 55.81Q203.06 54.34 201.71 53.81" fill="#1f2328"/>
</svg>
