<?xml version="1.0" encoding="UTF-8"?>
<svg xmlns="http://www.w3.org/2000/svg" viewBox="0 0 960 112" width="960" height="112" role="img" aria-label="Support">
  <rect width="960" height="112" fill="#0d1117"/>
  <rect x="30" y="15" width="8" height="81" rx="4" fill="#6e7681"/>
  <path d="M78.46 74.60Q85.66 74.60 85.66 68.84Q85.66 65.84 82.48 64.40Q80.80 63.56 78.13 62.84Q75.46 62.12 73.69 61.37Q71.92 60.62 70.12 59.30Q66.58 56.66 66.58 51.17Q66.58 45.68 70.39 42.53Q74.20 39.38 80.35 39.38Q86.50 39.38 91.78 41.84L91.78 50.84L85.66 51.26L85.66 47.78Q85.66 46.88 85.42 46.46Q84.76 45.32 81.19 45.32Q77.62 45.32 75.91 46.58Q74.20 47.84 74.20 50.48Q74.20 52.40 75.64 53.84Q76.60 54.80 78.49 55.43Q80.38 56.06 82.51 56.72Q84.64 57.38 86.29 58.16Q87.94 58.94 89.74 60.32Q93.40 63.02 93.40 68.66Q93.40 74.30 89.35 77.54Q85.30 80.78 78.67 80.78Q72.04 80.78 66.76 78.32L66.76 68.84L72.88 68.42L72.88 72.08Q72.88 72.98 73.12 73.40Q73.36 73.82 74.59 74.21Q75.82 74.60 78.46 74.60M125.80 75.08L127.90 75.26L127.90 80L118.18 80L118.18 76.10Q114.88 80.78 108.46 80.78Q99.16 80.78 99.16 70.40L99.16 56.54Q99.16 54.92 97.66 54.86L95.74 54.74L95.74 49.82L106.30 49.82L106.30 68.84Q106.30 72.02 107.20 73.64Q108.10 75.26 110.92 75.26Q113.74 75.26 115.45 73.52Q117.16 71.78 117.16 69.32L117.16 56.66Q117.16 55.70 116.83 55.31Q116.50 54.92 115.66 54.86L113.74 54.74L113.74 49.82L124.30 49.82L124.30 73.34Q124.30 74.30 124.60 74.63Q124.90 74.96 125.80 75.08M134.32 85.70L134.32 56.66Q134.32 55.64 133.99 55.25Q133.66 54.86 132.82 54.86L130.30 54.68L130.30 49.82L140.44 49.82L140.44 53.72Q141.40 51.92 143.92 50.42Q146.44 48.92 149.92 48.92Q160.78 48.92 160.78 64.16Q160.78 72.26 157.24 76.58Q153.70 80.90 147.64 80.90Q144.04 80.90 141.22 79.16L141.22 87.44L146.08 87.68L146.08 92.42L130.60 92.42L130.60 87.86L132.58 87.68Q133.48 87.56 133.90 87.17Q134.32 86.78 134.32 85.70M153.34 64.76Q153.34 54.74 147.28 54.74Q144.76 54.74 142.99 56.27Q141.22 57.80 141.22 59.90L141.22 73.70Q143.50 75.20 146.77 75.20Q150.04 75.20 151.69 72.20Q153.34 69.20 153.34 64.76M168.40 85.70L168.40 56.66Q168.40 55.64 168.07 55.25Q167.74 54.86 166.90 54.86L164.38 54.68L164.38 49.82L174.52 49.82L174.52 53.72Q175.48 51.92 178 50.42Q180.52 48.92 184 48.92Q194.86 48.92 194.86 64.16Q194.86 72.26 191.32 76.58Q187.78 80.90 181.72 80.90Q178.12 80.90 175.30 79.16L175.30 87.44L180.16 87.68L180.16 92.42L164.68 92.42L164.68 87.86L166.66 87.68Q167.56 87.56 167.98 87.17Q168.40 86.78 168.40 85.70M187.42 64.76Q187.42 54.74 181.36 54.74Q178.84 54.74 177.07 56.27Q175.30 57.80 175.30 59.90L175.30 73.70Q177.58 75.20 180.85 75.20Q184.12 75.20 185.77 72.20Q187.42 69.20 187.42 64.76M212.92 75.62Q219.46 75.62 219.46 65.06Q219.46 59.72 217.99 56.96Q216.52 54.20 213.07 54.20Q209.62 54.20 208 56.84Q206.38 59.48 206.38 64.04Q206.38 72.50 209.50 74.66Q210.88 75.62 212.92 75.62M199.12 64.88Q199.12 60.44 200.44 57.17Q201.76 53.90 203.98 52.16Q208.24 48.92 213.40 48.92Q217 48.92 219.49 50.09Q221.98 51.26 223.39 52.79Q224.80 54.32 225.79 57.23Q226.78 60.14 226.78 64.10Q226.78 72.38 222.76 76.64Q218.74 80.90 212.47 80.90Q206.20 80.90 202.66 76.85Q199.12 72.80 199.12 64.88M234.52 73.28L234.52 56.66Q234.52 55.70 234.19 55.31Q233.86 54.92 233.02 54.86L230.50 54.68L230.50 49.82L240.64 49.82L240.64 54.32Q241.72 51.98 244 50.45Q246.28 48.92 249.25 48.92Q252.22 48.92 254.92 50.24L254.92 59.18L249.34 59.60L249.34 56.84Q249.34 55.64 248.74 55.34Q248.08 55.04 247.12 55.04Q244.72 55.04 243.19 56.75Q241.66 58.46 241.66 61.10L241.66 75.02L246.88 75.26L246.88 80L230.80 80L230.80 75.44L232.78 75.26Q233.68 75.14 234.10 74.75Q234.52 74.36 234.52 73.28M265.18 43.46L269.08 43.46L269.08 49.82L277.06 49.82L276.46 54.86L269.08 54.86L269.08 70.64Q269.08 73.28 270.04 74.33Q271 75.38 273.01 75.38Q275.02 75.38 277.06 74.12L278.86 78.74Q275.86 80.84 271.24 80.84Q268.54 80.84 266.68 80.15Q264.82 79.46 263.92 78.62Q263.02 77.78 262.54 76.16Q262.06 74.54 262 73.61Q261.94 72.68 261.94 70.88L261.94 54.86L257.68 54.86L258.28 50.48Q261.10 50.24 262.54 48.47Q263.98 46.70 265.18 43.46" fill="#f0f6fc"/>
</svg>
