<?xml version="1.0" encoding="UTF-8"?>
<svg xmlns="http://www.w3.org/2000/svg" viewBox="0 0 1600 132" width="1600" height="132" role="img" aria-label="Templates">
  <rect width="1600" height="132" fill="#0d1117"/>
  <rect x="40" y="24" width="8" height="84" rx="4" fill="#6e7681"/>
  <path d="M89.52 84.06L89.52 55.91L84.68 55.91Q83.25 55.91 83.25 57.83L83.25 60.74L76.93 60.31L76.93 49.77L109.36 49.77L109.36 60.31L103.03 60.74L103.03 57.83Q103.03 56.78 102.72 56.34Q102.41 55.91 101.23 55.91L97.02 55.91L97.02 85.54L101.92 85.73L101.92 91L84.43 91L84.43 85.98L87.72 85.79Q89.52 85.61 89.52 84.06M127.89 58.88Q132.54 58.88 135.27 61.15Q138 63.41 138 67.50Q138 70.23 136.82 72.31Q135.64 74.38 133.91 75.56Q132.17 76.74 129.69 77.48Q125.54 78.72 120.33 78.72Q120.52 82.01 122.38 84.03Q124.24 86.04 128.08 86.04Q131.92 86.04 135.77 83.31L138.12 88.33Q136.88 89.45 133.94 90.63Q130.99 91.81 127.21 91.81Q119.65 91.81 116.11 87.62Q112.58 83.44 112.58 76.12Q112.58 68.80 116.61 63.84Q120.64 58.88 127.89 58.88M125.07 73.05Q127.34 72.65 129.26 71.25Q131.18 69.86 131.18 67.94Q131.18 64.15 127.46 64.15Q123.99 64.15 122.13 66.91Q120.27 69.67 120.08 73.52Q122.81 73.45 125.07 73.05M144.57 65.02L141.97 64.84L141.97 59.81L152.45 59.81L152.45 63.84Q155.92 58.88 161.96 58.88Q168.01 58.88 170.12 63.84Q173.59 58.88 179.54 58.88Q184 58.88 186.42 61.58Q188.84 64.28 188.84 69.67L188.84 85.85L192.37 86.04L192.37 91L177.62 91L177.62 86.29L179.66 86.10Q180.59 85.98 181 85.58Q181.40 85.17 181.46 84.12L181.46 71.28Q181.46 67.87 180.69 66.23Q179.91 64.59 177.06 64.59Q174.21 64.59 172.69 66.32Q171.17 68.06 171.17 70.97L171.17 85.85L174.58 86.04L174.58 91L159.95 91L159.95 86.29L161.99 86.10Q162.92 85.98 163.36 85.58Q163.79 85.17 163.79 84.06L163.79 71.28Q163.79 67.87 163.02 66.23Q162.24 64.59 159.36 64.59Q156.48 64.59 154.99 66.39Q153.50 68.18 153.50 70.85L153.50 85.85L156.85 86.04L156.85 91L142.22 91L142.22 86.29L144.26 86.10Q145.19 85.98 145.63 85.58Q146.06 85.17 146.06 84.06L146.12 84.06L146.12 66.94Q146.12 65.89 145.78 65.49Q145.44 65.08 144.57 65.02M199.50 96.89L199.50 66.88Q199.50 65.83 199.16 65.42Q198.82 65.02 197.95 65.02L195.35 64.84L195.35 59.81L205.83 59.81L205.83 63.84Q206.82 61.98 209.42 60.43Q212.03 58.88 215.62 58.88Q226.85 58.88 226.85 74.63Q226.85 83 223.19 87.47Q219.53 91.93 213.27 91.93Q209.55 91.93 206.63 90.13L206.63 98.69L211.66 98.94L211.66 103.83L195.66 103.83L195.66 99.12L197.71 98.94Q198.64 98.81 199.07 98.41Q199.50 98.01 199.50 96.89M219.16 75.25Q219.16 64.90 212.90 64.90Q210.29 64.90 208.46 66.48Q206.63 68.06 206.63 70.23L206.63 84.49Q208.99 86.04 212.37 86.04Q215.75 86.04 217.45 82.94Q219.16 79.84 219.16 75.25M231.25 46.79L242.35 46.79L242.35 85.85L245.88 86.04L245.88 91L231.12 91L231.12 86.29L233.17 86.10Q234.97 85.92 234.97 84.12L234.97 53.55Q234.97 52.19 233.42 52.06L231.25 51.94L231.25 46.79M277.56 61.05L277.56 84.12Q277.56 85.11 277.90 85.48Q278.24 85.85 279.11 85.92L281.10 86.04L281.10 91L271.24 91L271.24 87.40L271.05 87.34Q267.95 91.81 262.56 91.81Q256.23 91.81 253.20 87.78Q250.16 83.75 250.16 76.74Q250.16 68.31 254.25 63.60Q258.34 58.88 266.53 58.88Q271.80 58.88 277.56 61.05M270.37 81.14L270.37 65.08Q268.63 64.28 265.60 64.28Q261.44 64.28 259.58 67.63Q257.72 70.97 257.72 76.49Q257.72 86.54 264.17 86.54Q266.90 86.54 268.63 84.89Q270.37 83.25 270.37 81.14M290.52 53.24L294.55 53.24L294.55 59.81L302.80 59.81L302.18 65.02L294.55 65.02L294.55 81.33Q294.55 84.06 295.54 85.14Q296.53 86.23 298.61 86.23Q300.69 86.23 302.80 84.92L304.66 89.70Q301.56 91.87 296.78 91.87Q293.99 91.87 292.07 91.16Q290.15 90.44 289.22 89.57Q288.29 88.71 287.79 87.03Q287.30 85.36 287.23 84.40Q287.17 83.44 287.17 81.58L287.17 65.02L282.77 65.02L283.39 60.50Q286.30 60.25 287.79 58.42Q289.28 56.59 290.52 53.24M322.57 58.88Q327.22 58.88 329.95 61.15Q332.68 63.41 332.68 67.50Q332.68 70.23 331.50 72.31Q330.32 74.38 328.59 75.56Q326.85 76.74 324.37 77.48Q320.22 78.72 315.01 78.72Q315.20 82.01 317.06 84.03Q318.92 86.04 322.76 86.04Q326.60 86.04 330.45 83.31L332.80 88.33Q331.56 89.45 328.62 90.63Q325.67 91.81 321.89 91.81Q314.33 91.81 310.79 87.62Q307.26 83.44 307.26 76.12Q307.26 68.80 311.29 63.84Q315.32 58.88 322.57 58.88M319.75 73.05Q322.02 72.65 323.94 71.25Q325.86 69.86 325.86 67.94Q325.86 64.15 322.14 64.15Q318.67 64.15 316.81 66.91Q314.95 69.67 314.76 73.52Q317.49 73.45 319.75 73.05M353.26 64.53Q351.78 63.97 349.67 63.97Q347.56 63.97 346.29 64.93Q345.02 65.89 345.02 67.28Q345.02 68.68 345.48 69.45Q345.95 70.23 346.94 70.79Q348.49 71.59 350.66 72.18Q352.83 72.77 353.88 73.11Q354.94 73.45 356.52 74.26Q358.10 75.07 358.91 76Q361.08 78.29 361.08 81.89Q361.08 86.54 357.70 89.17Q354.32 91.81 349.11 91.81Q341.55 91.81 337.70 89.88L337.70 81.27L343.28 80.83L343.28 83.81Q343.28 86.54 348.49 86.54Q353.70 86.54 353.70 82.75Q353.70 81.39 352.80 80.52Q351.90 79.65 351.03 79.34Q350.16 79.03 348.95 78.72Q347.75 78.41 346.60 78.10Q345.45 77.79 344.12 77.27Q342.79 76.74 341.17 75.75Q338.01 73.70 338.01 68.90Q338.01 64.09 341.42 61.49Q344.83 58.88 350.01 58.88Q355.19 58.88 360.27 61.36L360.27 68.80L354.69 69.24L354.69 66.63Q354.69 65.08 353.26 64.53" fill="#f0f6fc"/>
</svg>
