<?xml version="1.0" encoding="UTF-8"?>
<svg xmlns="http://www.w3.org/2000/svg" viewBox="0 0 960 112" width="960" height="112" role="img" aria-label="Containers">
  <rect width="960" height="112" fill="#ffffff"/>
  <rect x="30" y="15" width="8" height="81" rx="4" fill="#8b949e"/>
  <path d="M90.16 46.46Q89.50 45.32 85.24 45.32Q79.66 45.32 76.78 49.10Q73.90 52.88 73.90 60.02Q73.90 74.84 85 74.84Q85.18 74.84 86.59 74.84Q88 74.84 89.26 74.45Q90.52 74.06 90.76 73.64Q91 73.22 91 72.32L91 67.52L97.12 67.94L97.12 78.32Q92.44 80.78 85.24 80.78Q76.06 80.78 71.23 75.62Q66.40 70.46 66.40 60.26Q66.40 54.62 68.02 50.42Q69.64 46.22 72.40 43.88Q77.80 39.38 85.24 39.38Q91.24 39.38 96.52 41.84L96.52 52.04L90.40 52.46L90.40 47.78Q90.40 46.88 90.16 46.46M115.90 75.62Q122.44 75.62 122.44 65.06Q122.44 59.72 120.97 56.96Q119.50 54.20 116.05 54.20Q112.60 54.20 110.98 56.84Q109.36 59.48 109.36 64.04Q109.36 72.50 112.48 74.66Q113.86 75.62 115.90 75.62M102.10 64.88Q102.10 60.44 103.42 57.17Q104.74 53.90 106.96 52.16Q111.22 48.92 116.38 48.92Q119.98 48.92 122.47 50.09Q124.96 51.26 126.37 52.79Q127.78 54.32 128.77 57.23Q129.76 60.14 129.76 64.10Q129.76 72.38 125.74 76.64Q121.72 80.90 115.45 80.90Q109.18 80.90 105.64 76.85Q102.10 72.80 102.10 64.88M135.94 54.80L133.42 54.62L133.42 49.82L143.56 49.82L143.56 53.72Q145.12 51.50 147.70 50.21Q150.28 48.92 153.28 48.92Q157.84 48.92 160.33 51.53Q162.82 54.14 162.82 59.36L162.82 75.02L166.24 75.20L166.24 80L151.96 80L151.96 75.44L153.94 75.26Q154.84 75.14 155.26 74.75Q155.68 74.36 155.68 73.28L155.68 60.92Q155.68 57.62 154.66 56.03Q153.64 54.44 150.79 54.44Q147.94 54.44 146.26 56.24Q144.58 58.04 144.58 60.50L144.58 75.02L148 75.20L148 80L133.72 80L133.72 75.44L135.70 75.26Q136.60 75.14 137.02 74.75Q137.44 74.36 137.44 73.28L137.44 56.66Q137.44 54.86 135.94 54.80M174.04 43.46L177.94 43.46L177.94 49.82L185.92 49.82L185.32 54.86L177.94 54.86L177.94 70.64Q177.94 73.28 178.90 74.33Q179.86 75.38 181.87 75.38Q183.88 75.38 185.92 74.12L187.72 78.74Q184.72 80.84 180.10 80.84Q177.40 80.84 175.54 80.15Q173.68 79.46 172.78 78.62Q171.88 77.78 171.40 76.16Q170.92 74.54 170.86 73.61Q170.80 72.68 170.80 70.88L170.80 54.86L166.54 54.86L167.14 50.48Q169.96 50.24 171.40 48.47Q172.84 46.70 174.04 43.46M216.94 51.02L216.94 73.34Q216.94 74.30 217.27 74.66Q217.60 75.02 218.44 75.08L220.36 75.20L220.36 80L210.82 80L210.82 76.52L210.64 76.46Q207.64 80.78 202.42 80.78Q196.30 80.78 193.36 76.88Q190.42 72.98 190.42 66.20Q190.42 58.04 194.38 53.48Q198.34 48.92 206.26 48.92Q211.36 48.92 216.94 51.02M209.98 70.46L209.98 54.92Q208.30 54.14 205.36 54.14Q201.34 54.14 199.54 57.38Q197.74 60.62 197.74 65.96Q197.74 75.68 203.98 75.68Q206.62 75.68 208.30 74.09Q209.98 72.50 209.98 70.46M224.14 49.82L234.88 49.82L234.88 75.02L238.30 75.20L238.30 80L224.02 80L224.02 75.44LNaN 75.26Q227.74 75.08 227.74 73.34L227.74 56.66Q227.74 55.64 227.41 55.28Q227.08 54.92 226.24 54.92L224.14 54.80L224.14 49.82M227.32 44.63Q226.06 43.40 226.06 41.48Q226.06 39.56 227.32 38.27Q228.58 36.98 230.62 36.98Q232.66 36.98 233.95 38.27Q235.24 39.56 235.24 41.48Q235.24 43.40 233.95 44.63Q232.66 45.86 230.62 45.86Q228.58 45.86 227.32 44.63M243.94 54.80L241.42 54.62L241.42 49.82L251.56 49.82L251.56 53.72Q253.12 51.50 255.70 50.21Q258.28 48.92 261.28 48.92Q265.84 48.92 268.33 51.53Q270.82 54.14 270.82 59.36L270.82 75.02L274.24 75.20L274.24 80L259.96 80L259.96 75.44L261.94 75.26Q262.84 75.14 263.26 74.75Q263.68 74.36 263.68 73.28L263.68 60.92Q263.68 57.62 262.66 56.03Q261.64 54.44 258.79 54.44Q255.94 54.44 254.26 56.24Q252.58 58.04 252.58 60.50L252.58 75.02L256 75.20L256 80L241.72 80L241.72 75.44L243.70 75.26Q244.60 75.14 245.02 74.75Q245.44 74.36 245.44 73.28L245.44 56.66Q245.44 54.86 243.94 54.80M292.84 48.92Q297.34 48.92 299.98 51.11Q302.62 53.30 302.62 57.26Q302.62 59.90 301.48 61.91Q300.34 63.92 298.66 65.06Q296.98 66.20 294.58 66.92Q290.56 68.12 285.52 68.12Q285.70 71.30 287.50 73.25Q289.30 75.20 293.02 75.20Q296.74 75.20 300.46 72.56L302.74 77.42Q301.54 78.50 298.69 79.64Q295.84 80.78 292.18 80.78Q284.86 80.78 281.44 76.73Q278.02 72.68 278.02 65.60Q278.02 58.52 281.92 53.72Q285.82 48.92 292.84 48.92M290.11 62.63Q292.30 62.24 294.16 60.89Q296.02 59.54 296.02 57.68Q296.02 54.02 292.42 54.02Q289.06 54.02 287.26 56.69Q285.46 59.36 285.28 63.08Q287.92 63.02 290.11 62.63M310.54 73.28L310.54 56.66Q310.54 55.70 310.21 55.31Q309.88 54.92 309.04 54.86L306.52 54.68L306.52 49.82L316.66 49.82L316.66 54.32Q317.74 51.98 320.02 50.45Q322.30 48.92 325.27 48.92Q328.24 48.92 330.94 50.24L330.94 59.18L325.36 59.60L325.36 56.84Q325.36 55.64 324.76 55.34Q324.10 55.04 323.14 55.04Q320.74 55.04 319.21 56.75Q317.68 58.46 317.68 61.10L317.68 75.02L322.90 75.26L322.90 80L306.82 80L306.82 75.44L308.80 75.26Q309.70 75.14 310.12 74.75Q310.54 74.36 310.54 73.28M349.36 54.38Q347.92 53.84 345.88 53.84Q343.84 53.84 342.61 54.77Q341.38 55.70 341.38 57.05Q341.38 58.40 341.83 59.15Q342.28 59.90 343.24 60.44Q344.74 61.22 346.84 61.79Q348.94 62.36 349.96 62.69Q350.98 63.02 352.51 63.80Q354.04 64.58 354.82 65.48Q356.92 67.70 356.92 71.18Q356.92 75.68 353.65 78.23Q350.38 80.78 345.34 80.78Q338.02 80.78 334.30 78.92L334.30 70.58L339.70 70.16L339.70 73.04Q339.70 75.68 344.74 75.68Q349.78 75.68 349.78 72.02Q349.78 70.70 348.91 69.86Q348.04 69.02 347.20 68.72Q346.36 68.42 345.19 68.12Q344.02 67.82 342.91 67.52Q341.80 67.22 340.51 66.71Q339.22 66.20 337.66 65.24Q334.60 63.26 334.60 58.61Q334.60 53.96 337.90 51.44Q341.20 48.92 346.21 48.92Q351.22 48.92 356.14 51.32L356.14 58.52L350.74 58.94L350.74 56.42Q350.74 54.92 349.36 54.38" fill="#1f2328"/>
</svg>
