<?xml version="1.0" encoding="UTF-8"?>
<svg xmlns="http://www.w3.org/2000/svg" viewBox="0 0 1600 132" width="1600" height="132" role="img" aria-label="Containers">
  <rect width="1600" height="132" fill="#ffffff"/>
  <rect x="40" y="24" width="8" height="84" rx="4" fill="#8b949e"/>
  <path d="M103.03 56.34Q102.35 55.16 97.95 55.16Q92.18 55.16 89.21 59.07Q86.23 62.98 86.23 70.35Q86.23 85.67 97.70 85.67Q97.89 85.67 99.34 85.67Q100.80 85.67 102.10 85.27Q103.40 84.86 103.65 84.43Q103.90 83.99 103.90 83.06L103.90 78.10L110.22 78.54L110.22 89.26Q105.39 91.81 97.95 91.81Q88.46 91.81 83.47 86.47Q78.48 81.14 78.48 70.60Q78.48 64.77 80.15 60.43Q81.83 56.09 84.68 53.68Q90.26 49.03 97.95 49.03Q104.15 49.03 109.60 51.57L109.60 62.11L103.28 62.54L103.28 57.71Q103.28 56.78 103.03 56.34M129.63 86.47Q136.39 86.47 136.39 75.56Q136.39 70.04 134.87 67.19Q133.35 64.34 129.78 64.34Q126.22 64.34 124.55 67.07Q122.87 69.80 122.87 74.51Q122.87 83.25 126.10 85.48Q127.52 86.47 129.63 86.47M115.37 75.38Q115.37 70.79 116.73 67.41Q118.10 64.03 120.39 62.23Q124.79 58.88 130.13 58.88Q133.85 58.88 136.42 60.09Q138.99 61.30 140.45 62.88Q141.91 64.46 142.93 67.47Q143.95 70.48 143.95 74.57Q143.95 83.13 139.80 87.53Q135.64 91.93 129.16 91.93Q122.69 91.93 119.03 87.75Q115.37 83.56 115.37 75.38M150.34 64.96L147.73 64.77L147.73 59.81L158.21 59.81L158.21 63.84Q159.82 61.55 162.49 60.22Q165.16 58.88 168.26 58.88Q172.97 58.88 175.54 61.58Q178.11 64.28 178.11 69.67L178.11 85.85L181.65 86.04L181.65 91L166.89 91L166.89 86.29L168.94 86.10Q169.87 85.98 170.30 85.58Q170.74 85.17 170.74 84.06L170.74 71.28Q170.74 67.87 169.68 66.23Q168.63 64.59 165.68 64.59Q162.74 64.59 161 66.45Q159.27 68.31 159.27 70.85L159.27 85.85L162.80 86.04L162.80 91L148.04 91L148.04 86.29L150.09 86.10Q151.02 85.98 151.45 85.58Q151.89 85.17 151.89 84.06L151.89 66.88Q151.89 65.02 150.34 64.96M189.71 53.24L193.74 53.24L193.74 59.81L201.98 59.81L201.36 65.02L193.74 65.02L193.74 81.33Q193.74 84.06 194.73 85.14Q195.72 86.23 197.80 86.23Q199.88 86.23 201.98 84.92L203.84 89.70Q200.74 91.87 195.97 91.87Q193.18 91.87 191.26 91.16Q189.34 90.44 188.41 89.57Q187.48 88.71 186.98 87.03Q186.48 85.36 186.42 84.40Q186.36 83.44 186.36 81.58L186.36 65.02L181.96 65.02L182.58 60.50Q185.49 60.25 186.98 58.42Q188.47 56.59 189.71 53.24M234.04 61.05L234.04 84.12Q234.04 85.11 234.38 85.48Q234.72 85.85 235.59 85.92L237.57 86.04L237.57 91L227.71 91L227.71 87.40L227.53 87.34Q224.43 91.81 219.03 91.81Q212.71 91.81 209.67 87.78Q206.63 83.75 206.63 76.74Q206.63 68.31 210.73 63.60Q214.82 58.88 223 58.88Q228.27 58.88 234.04 61.05M226.85 81.14L226.85 65.08Q225.11 64.28 222.07 64.28Q217.92 64.28 216.06 67.63Q214.20 70.97 214.20 76.49Q214.20 86.54 220.65 86.54Q223.37 86.54 225.11 84.89Q226.85 83.25 226.85 81.14M241.48 59.81L252.58 59.81L252.58 85.85L256.11 86.04L256.11 91L241.35 91L241.35 86.29L243.40 86.10Q245.20 85.92 245.20 84.12L245.20 66.88Q245.20 65.83 244.86 65.46Q244.52 65.08 243.65 65.08L241.48 64.96L241.48 59.81M244.76 54.45Q243.46 53.18 243.46 51.20Q243.46 49.21 244.76 47.88Q246.07 46.55 248.17 46.55Q250.28 46.55 251.61 47.88Q252.95 49.21 252.95 51.20Q252.95 53.18 251.61 54.45Q250.28 55.72 248.17 55.72Q246.07 55.72 244.76 54.45M261.94 64.96L259.33 64.77L259.33 59.81L269.81 59.81L269.81 63.84Q271.42 61.55 274.09 60.22Q276.76 58.88 279.86 58.88Q284.57 58.88 287.14 61.58Q289.71 64.28 289.71 69.67L289.71 85.85L293.25 86.04L293.25 91L278.49 91L278.49 86.29L280.54 86.10Q281.47 85.98 281.90 85.58Q282.34 85.17 282.34 84.06L282.34 71.28Q282.34 67.87 281.28 66.23Q280.23 64.59 277.28 64.59Q274.34 64.59 272.60 66.45Q270.87 68.31 270.87 70.85L270.87 85.85L274.40 86.04L274.40 91L259.64 91L259.64 86.29L261.69 86.10Q262.62 85.98 263.05 85.58Q263.49 85.17 263.49 84.06L263.49 66.88Q263.49 65.02 261.94 64.96M312.47 58.88Q317.12 58.88 319.85 61.15Q322.57 63.41 322.57 67.50Q322.57 70.23 321.40 72.31Q320.22 74.38 318.48 75.56Q316.75 76.74 314.27 77.48Q310.11 78.72 304.90 78.72Q305.09 82.01 306.95 84.03Q308.81 86.04 312.65 86.04Q316.50 86.04 320.34 83.31L322.70 88.33Q321.46 89.45 318.51 90.63Q315.57 91.81 311.79 91.81Q304.22 91.81 300.69 87.62Q297.15 83.44 297.15 76.12Q297.15 68.80 301.18 63.84Q305.21 58.88 312.47 58.88M309.65 73.05Q311.91 72.65 313.83 71.25Q315.75 69.86 315.75 67.94Q315.75 64.15 312.03 64.15Q308.56 64.15 306.70 66.91Q304.84 69.67 304.66 73.52Q307.38 73.45 309.65 73.05M330.76 84.06L330.76 66.88Q330.76 65.89 330.42 65.49Q330.08 65.08 329.21 65.02L326.60 64.84L326.60 59.81L337.08 59.81L337.08 64.46Q338.20 62.05 340.55 60.47Q342.91 58.88 345.98 58.88Q349.05 58.88 351.84 60.25L351.84 69.49L346.07 69.92L346.07 67.07Q346.07 65.83 345.45 65.52Q344.77 65.21 343.78 65.21Q341.30 65.21 339.72 66.97Q338.14 68.74 338.14 71.47L338.14 85.85L343.53 86.10L343.53 91L326.91 91L326.91 86.29L328.96 86.10Q329.89 85.98 330.32 85.58Q330.76 85.17 330.76 84.06M370.87 64.53Q369.38 63.97 367.28 63.97Q365.17 63.97 363.90 64.93Q362.63 65.89 362.63 67.28Q362.63 68.68 363.09 69.45Q363.56 70.23 364.55 70.79Q366.10 71.59 368.27 72.18Q370.44 72.77 371.49 73.11Q372.55 73.45 374.13 74.26Q375.71 75.07 376.51 76Q378.68 78.29 378.68 81.89Q378.68 86.54 375.30 89.17Q371.93 91.81 366.72 91.81Q359.15 91.81 355.31 89.88L355.31 81.27L360.89 80.83L360.89 83.81Q360.89 86.54 366.10 86.54Q371.31 86.54 371.31 82.75Q371.31 81.39 370.41 80.52Q369.51 79.65 368.64 79.34Q367.77 79.03 366.56 78.72Q365.35 78.41 364.21 78.10Q363.06 77.79 361.73 77.27Q360.39 76.74 358.78 75.75Q355.62 73.70 355.62 68.90Q355.62 64.09 359.03 61.49Q362.44 58.88 367.62 58.88Q372.79 58.88 377.88 61.36L377.88 68.80L372.30 69.24L372.30 66.63Q372.30 65.08 370.87 64.53" fill="#1f2328"/>
</svg>
