<?xml version="1.0" encoding="UTF-8"?>
<svg xmlns="http://www.w3.org/2000/svg" viewBox="0 0 1600 132" width="1600" height="132" role="img" aria-label="Focus">
  <rect width="1600" height="132" fill="#ffffff"/>
  <rect x="40" y="24" width="8" height="84" rx="4" fill="#8b949e"/>
  <path d="M95.03 91L78.11 91L78.11 85.98L80.15 85.79Q81.95 85.61 81.95 84.06L81.95 55.23L78.42 55.04L78.42 49.77L108.36 49.77L108.36 60.06L102.04 60.50L102.04 58.02Q102.04 56.96 101.73 56.53Q101.42 56.09 100.24 56.09L89.52 56.09L89.52 67.07L104.77 67.07L104.77 73.39L89.52 73.39L89.52 85.54L95.03 85.73L95.03 91M123.49 86.47Q130.25 86.47 130.25 75.56Q130.25 70.04 128.73 67.19Q127.21 64.34 123.65 64.34Q120.08 64.34 118.41 67.07Q116.73 69.80 116.73 74.51Q116.73 83.25 119.96 85.48Q121.38 86.47 123.49 86.47M109.23 75.38Q109.23 70.79 110.60 67.41Q111.96 64.03 114.25 62.23Q118.66 58.88 123.99 58.88Q127.71 58.88 130.28 60.09Q132.85 61.30 134.31 62.88Q135.77 64.46 136.79 67.47Q137.81 70.48 137.81 74.57Q137.81 83.13 133.66 87.53Q129.51 91.93 123.03 91.93Q116.55 91.93 112.89 87.75Q109.23 83.56 109.23 75.38M149.47 75.07Q149.47 80.34 151.45 83.25Q153.44 86.16 157.19 86.16Q160.94 86.16 164.60 83.50L167.26 88.27Q162.86 91.87 156.23 91.87Q149.59 91.87 145.78 87.68Q141.97 83.50 141.97 75.31Q141.97 67.13 146.34 63.01Q150.71 58.88 156.20 58.88Q161.68 58.88 166.40 61.43L166.40 69.49L160.69 69.92L160.69 66.94Q160.69 65.27 159.48 64.87Q158.27 64.46 156.97 64.46Q149.47 64.46 149.47 75.07M201.24 85.92L203.41 86.10L203.41 91L193.37 91L193.37 86.97Q189.96 91.81 183.32 91.81Q173.71 91.81 173.71 81.08L173.71 66.76Q173.71 65.08 172.16 65.02L170.18 64.90L170.18 59.81L181.09 59.81L181.09 79.47Q181.09 82.75 182.02 84.43Q182.95 86.10 185.86 86.10Q188.78 86.10 190.54 84.30Q192.31 82.51 192.31 79.96L192.31 66.88Q192.31 65.89 191.97 65.49Q191.63 65.08 190.76 65.02L188.78 64.90L188.78 59.81L199.69 59.81L199.69 84.12Q199.69 85.11 200 85.45Q200.31 85.79 201.24 85.92M222.82 64.53Q221.33 63.97 219.22 63.97Q217.11 63.97 215.84 64.93Q214.57 65.89 214.57 67.28Q214.57 68.68 215.03 69.45Q215.50 70.23 216.49 70.79Q218.04 71.59 220.21 72.18Q222.38 72.77 223.44 73.11Q224.49 73.45 226.07 74.26Q227.65 75.07 228.46 76Q230.63 78.29 230.63 81.89Q230.63 86.54 227.25 89.17Q223.87 91.81 218.66 91.81Q211.10 91.81 207.25 89.88L207.25 81.27L212.83 80.83L212.83 83.81Q212.83 86.54 218.04 86.54Q223.25 86.54 223.25 82.75Q223.25 81.39 222.35 80.52Q221.45 79.65 220.58 79.34Q219.72 79.03 218.51 78.72Q217.30 78.41 216.15 78.10Q215 77.79 213.67 77.27Q212.34 76.74 210.73 75.75Q207.56 73.70 207.56 68.90Q207.56 64.09 210.97 61.49Q214.38 58.88 219.56 58.88Q224.74 58.88 229.82 61.36L229.82 68.80L224.24 69.24L224.24 66.63Q224.24 65.08 222.82 64.53" fill="#1f2328"/>
</svg>
