<?xml version="1.0" encoding="UTF-8"?>
<svg xmlns="http://www.w3.org/2000/svg" viewBox="0 0 960 112" width="960" height="112" role="img" aria-label="Plugins">
  <rect width="960" height="112" fill="#ffffff"/>
  <rect x="30" y="16" width="8" height="80" rx="4" fill="#8b949e"/>
  <path d="M82.41 79L65.89 79L65.89 74.22L67.83 74.04Q69.55 73.87 69.55 72.39L69.55 44.96L66.18 44.78L66.18 39.77L83.06 39.77Q89.67 39.77 93.35 42.86Q97.04 45.96 97.04 52.16Q97.04 58.35 92.85 61.80Q88.66 65.25 81.76 65.25L76.74 65.25L76.74 73.81L82.41 73.98L82.41 79M76.74 45.49L76.74 59.53L80.99 59.53Q89.61 59.53 89.61 52.51Q89.61 48.26 87.39 46.87Q85.18 45.49 80.34 45.49L76.74 45.49M100.76 36.93L111.32 36.93L111.32 74.10L114.68 74.28L114.68 79L100.64 79L100.64 74.52L102.59 74.34Q104.30 74.16 104.30 72.45L104.30 43.36Q104.30 42.07 102.82 41.95L100.76 41.83L100.76 36.93M146.95 74.16L149.02 74.34L149.02 79L139.46 79L139.46 75.17Q136.22 79.77 129.90 79.77Q120.76 79.77 120.76 69.56L120.76 55.93Q120.76 54.34 119.28 54.28L117.39 54.16L117.39 49.32L127.78 49.32L127.78 68.03Q127.78 71.15 128.66 72.75Q129.55 74.34 132.32 74.34Q135.09 74.34 136.78 72.63Q138.46 70.92 138.46 68.50L138.46 56.05Q138.46 55.10 138.13 54.72Q137.81 54.34 136.98 54.28L135.09 54.16L135.09 49.32L145.48 49.32L145.48 72.45Q145.48 73.39 145.77 73.72Q146.07 74.04 146.95 74.16M178.87 78.94Q178.34 85.49 175.10 88.56Q171.85 91.63 164.95 91.63Q158.05 91.63 154.15 89.68L154.15 81.48L159.76 81.01L159.76 83.84Q159.76 85.43 161.23 85.99Q162.71 86.55 165.30 86.55Q169.08 86.55 170.61 84.28Q172.15 82.01 172.15 77.88L172.15 74.63Q169.31 77.94 164.30 77.94Q161.23 77.94 158.90 76.76Q156.57 75.58 155.27 73.57Q152.74 69.56 152.74 64.13Q152.74 56.40 156.92 52.42Q161.11 48.44 168.08 48.44Q173.86 48.44 178.99 50.62L178.99 72.51Q178.99 77.53 178.87 78.94M172.15 66.96L172.15 54.28Q170.08 53.57 167.43 53.57Q163.83 53.57 161.91 56.23Q159.99 58.88 159.99 63.42Q159.99 72.75 166.13 72.75Q168.67 72.75 170.41 71.18Q172.15 69.62 172.15 66.96M184.83 49.32L195.39 49.32L195.39 74.10L198.76 74.28L198.76 79L184.71 79L184.71 74.52L186.66 74.34Q188.37 74.16 188.37 72.45L188.37 56.05Q188.37 55.05 188.05 54.69Q187.72 54.34 186.90 54.34L184.83 54.22L184.83 49.32M187.96 44.22Q186.72 43.01 186.72 41.12Q186.72 39.23 187.96 37.97Q189.20 36.70 191.20 36.70Q193.21 36.70 194.48 37.97Q195.75 39.23 195.75 41.12Q195.75 43.01 194.48 44.22Q193.21 45.43 191.20 45.43Q189.20 45.43 187.96 44.22M204.30 54.22L201.82 54.04L201.82 49.32L211.79 49.32L211.79 53.16Q213.33 50.97 215.87 49.71Q218.40 48.44 221.35 48.44Q225.84 48.44 228.29 51Q230.73 53.57 230.73 58.70L230.73 74.10L234.10 74.28L234.10 79L220.06 79L220.06 74.52L222 74.34Q222.89 74.22 223.30 73.84Q223.71 73.45 223.71 72.39L223.71 60.24Q223.71 56.99 222.71 55.43Q221.71 53.87 218.90 53.87Q216.10 53.87 214.45 55.64Q212.80 57.41 212.80 59.83L212.80 74.10L216.16 74.28L216.16 79L202.12 79L202.12 74.52L204.07 74.34Q204.95 74.22 205.36 73.84Q205.78 73.45 205.78 72.39L205.78 56.05Q205.78 54.28 204.30 54.22M253.04 53.81Q251.62 53.28 249.61 53.28Q247.61 53.28 246.40 54.19Q245.19 55.10 245.19 56.43Q245.19 57.76 245.63 58.50Q246.07 59.23 247.02 59.77Q248.49 60.53 250.56 61.09Q252.62 61.65 253.63 61.98Q254.63 62.30 256.13 63.07Q257.64 63.84 258.40 64.72Q260.47 66.91 260.47 70.33Q260.47 74.75 257.25 77.26Q254.04 79.77 249.08 79.77Q241.88 79.77 238.23 77.94L238.23 69.74L243.54 69.32L243.54 72.16Q243.54 74.75 248.49 74.75Q253.45 74.75 253.45 71.15Q253.45 69.86 252.59 69.03Q251.74 68.20 250.91 67.91Q250.09 67.61 248.94 67.32Q247.78 67.02 246.69 66.73Q245.60 66.43 244.33 65.93Q243.06 65.43 241.53 64.49Q238.52 62.54 238.52 57.97Q238.52 53.39 241.77 50.92Q245.01 48.44 249.94 48.44Q254.87 48.44 259.70 50.80L259.70 57.88L254.39 58.29L254.39 55.81Q254.39 54.34 253.04 53.81" fill="#1f2328"/>
</svg>
