<?xml version="1.0" encoding="UTF-8"?>
<svg xmlns="http://www.w3.org/2000/svg" viewBox="0 0 1600 132" width="1600" height="132" role="img" aria-label="Support">
  <rect width="1600" height="132" fill="#0d1117"/>
  <rect x="40" y="24" width="8" height="84" rx="4" fill="#6e7681"/>
  <path d="M90.94 85.42Q98.38 85.42 98.38 79.47Q98.38 76.37 95.10 74.88Q93.36 74.01 90.60 73.27Q87.84 72.52 86.01 71.75Q84.18 70.97 82.32 69.61Q78.67 66.88 78.67 61.21Q78.67 55.54 82.60 52.28Q86.54 49.03 92.89 49.03Q99.25 49.03 104.71 51.57L104.71 60.87L98.38 61.30L98.38 57.71Q98.38 56.78 98.13 56.34Q97.45 55.16 93.76 55.16Q90.07 55.16 88.31 56.47Q86.54 57.77 86.54 60.50Q86.54 62.48 88.03 63.97Q89.02 64.96 90.97 65.61Q92.93 66.26 95.13 66.94Q97.33 67.63 99.03 68.43Q100.74 69.24 102.60 70.66Q106.38 73.45 106.38 79.28Q106.38 85.11 102.19 88.46Q98.01 91.81 91.16 91.81Q84.31 91.81 78.85 89.26L78.85 79.47L85.18 79.03L85.18 82.82Q85.18 83.75 85.42 84.18Q85.67 84.61 86.94 85.02Q88.21 85.42 90.94 85.42M139.86 85.92L142.03 86.10L142.03 91L131.99 91L131.99 86.97Q128.58 91.81 121.94 91.81Q112.33 91.81 112.33 81.08L112.33 66.76Q112.33 65.08 110.78 65.02L108.80 64.90L108.80 59.81L119.71 59.81L119.71 79.47Q119.71 82.75 120.64 84.43Q121.57 86.10 124.48 86.10Q127.40 86.10 129.17 84.30Q130.93 82.51 130.93 79.96L130.93 66.88Q130.93 65.89 130.59 65.49Q130.25 65.08 129.38 65.02L127.40 64.90L127.40 59.81L138.31 59.81L138.31 84.12Q138.31 85.11 138.62 85.45Q138.93 85.79 139.86 85.92M148.66 96.89L148.66 66.88Q148.66 65.83 148.32 65.42Q147.98 65.02 147.11 65.02L144.51 64.84L144.51 59.81L154.99 59.81L154.99 63.84Q155.98 61.98 158.58 60.43Q161.19 58.88 164.78 58.88Q176.01 58.88 176.01 74.63Q176.01 83 172.35 87.47Q168.69 91.93 162.43 91.93Q158.71 91.93 155.79 90.13L155.79 98.69L160.82 98.94L160.82 103.83L144.82 103.83L144.82 99.12L146.87 98.94Q147.80 98.81 148.23 98.41Q148.66 98.01 148.66 96.89M168.32 75.25Q168.32 64.90 162.06 64.90Q159.45 64.90 157.62 66.48Q155.79 68.06 155.79 70.23L155.79 84.49Q158.15 86.04 161.53 86.04Q164.91 86.04 166.61 82.94Q168.32 79.84 168.32 75.25M183.88 96.89L183.88 66.88Q183.88 65.83 183.54 65.42Q183.20 65.02 182.33 65.02L179.73 64.84L179.73 59.81L190.20 59.81L190.20 63.84Q191.20 61.98 193.80 60.43Q196.40 58.88 NaN 58.88Q211.22 58.88 211.22 74.63Q211.22 83 207.56 87.47Q203.91 91.93 197.64 91.93Q193.92 91.93 191.01 90.13L191.01 98.69L196.03 98.94L196.03 103.83L180.04 103.83L180.04 99.12L182.08 98.94Q183.01 98.81 183.45 98.41Q183.88 98.01 183.88 96.89M203.53 75.25Q203.53 64.90 197.27 64.90Q194.67 64.90 192.84 66.48Q191.01 68.06 191.01 70.23L191.01 84.49Q193.37 86.04 196.75 86.04Q200.12 86.04 201.83 82.94Q203.53 79.84 203.53 75.25M229.88 86.47Q236.64 86.47 236.64 75.56Q236.64 70.04 235.12 67.19Q233.60 64.34 230.04 64.34Q226.47 64.34 224.80 67.07Q223.13 69.80 223.13 74.51Q223.13 83.25 226.35 85.48Q227.78 86.47 229.88 86.47M215.62 75.38Q215.62 70.79 216.99 67.41Q218.35 64.03 220.65 62.23Q225.05 58.88 230.38 58.88Q234.10 58.88 236.67 60.09Q239.25 61.30 240.70 62.88Q242.16 64.46 243.18 67.47Q244.21 70.48 244.21 74.57Q244.21 83.13 240.05 87.53Q235.90 91.93 229.42 91.93Q222.94 91.93 219.28 87.75Q215.62 83.56 215.62 75.38M252.20 84.06L252.20 66.88Q252.20 65.89 251.86 65.49Q251.52 65.08 250.65 65.02L248.05 64.84L248.05 59.81L258.53 59.81L258.53 64.46Q259.64 62.05 262 60.47Q264.36 58.88 267.43 58.88Q270.49 58.88 273.28 60.25L273.28 69.49L267.52 69.92L267.52 67.07Q267.52 65.83 266.90 65.52Q266.22 65.21 265.22 65.21Q262.74 65.21 261.16 66.97Q259.58 68.74 259.58 71.47L259.58 85.85L264.98 86.10L264.98 91L248.36 91L248.36 86.29L250.41 86.10Q251.34 85.98 251.77 85.58Q252.20 85.17 252.20 84.06M283.89 53.24L287.92 53.24L287.92 59.81L296.16 59.81L295.54 65.02L287.92 65.02L287.92 81.33Q287.92 84.06 288.91 85.14Q289.90 86.23 291.98 86.23Q294.05 86.23 296.16 84.92L298.02 89.70Q294.92 91.87 290.15 91.87Q287.36 91.87 285.44 91.16Q283.51 90.44 282.58 89.57Q281.65 88.71 281.16 87.03Q280.66 85.36 280.60 84.40Q280.54 83.44 280.54 81.58L280.54 65.02L276.14 65.02L276.76 60.50Q279.67 60.25 281.16 58.42Q282.65 56.59 283.89 53.24" fill="#f0f6fc"/>
</svg>
