<?xml version="1.0" encoding="UTF-8"?>
<svg xmlns="http://www.w3.org/2000/svg" viewBox="0 0 1600 132" width="1600" height="132" role="img" aria-label="Focus">
  <rect width="1600" height="132" fill="#ffffff"/>
  <rect x="37" y="24" width="6" height="84" rx="4" fill="#8b949e"/>
  <path d="M85.03 91L68.11 91L68.11 85.98L70.15 85.79Q71.95 85.61 71.95 84.06L71.95 55.23L68.42 55.04L68.42 49.77L98.36 49.77L98.36 60.06L92.04 60.50L92.04 58.02Q92.04 56.96 91.73 56.53Q91.42 56.09 90.24 56.09L79.52 56.09L79.52 67.07L94.77 67.07L94.77 73.39L79.52 73.39L79.52 85.54L85.03 85.73L85.03 91M113.49 86.47Q120.25 86.47 120.25 75.56Q120.25 70.04 118.73 67.19Q117.21 64.34 113.65 64.34Q110.08 64.34 108.41 67.07Q106.73 69.80 106.73 74.51Q106.73 83.25 109.96 85.48Q111.38 86.47 113.49 86.47M99.23 75.38Q99.23 70.79 100.60 67.41Q101.96 64.03 104.25 62.23Q108.66 58.88 113.99 58.88Q117.71 58.88 120.28 60.09Q122.85 61.30 124.31 62.88Q125.77 64.46 126.79 67.47Q127.81 70.48 127.81 74.57Q127.81 83.13 123.66 87.53Q119.51 91.93 113.03 91.93Q106.55 91.93 102.89 87.75Q99.23 83.56 99.23 75.38M139.47 75.07Q139.47 80.34 141.45 83.25Q143.44 86.16 147.19 86.16Q150.94 86.16 154.60 83.50L157.26 88.27Q152.86 91.87 146.23 91.87Q139.59 91.87 135.78 87.68Q131.97 83.50 131.97 75.31Q131.97 67.13 136.34 63.01Q140.71 58.88 146.20 58.88Q151.68 58.88 156.40 61.43L156.40 69.49L150.69 69.92L150.69 66.94Q150.69 65.27 149.48 64.87Q148.27 64.46 146.97 64.46Q139.47 64.46 139.47 75.07M191.24 85.92L193.41 86.10L193.41 91L183.37 91L183.37 86.97Q179.96 91.81 173.32 91.81Q163.71 91.81 163.71 81.08L163.71 66.76Q163.71 65.08 162.16 65.02L160.18 64.90L160.18 59.81L171.09 59.81L171.09 79.47Q171.09 82.75 172.02 84.43Q172.95 86.10 175.86 86.10Q178.78 86.10 180.54 84.30Q182.31 82.51 182.31 79.96L182.31 66.88Q182.31 65.89 181.97 65.49Q181.63 65.08 180.76 65.02L178.78 64.90L178.78 59.81L189.69 59.81L189.69 84.12Q189.69 85.11 190 85.45Q190.31 85.79 191.24 85.92M212.82 64.53Q211.33 63.97 209.22 63.97Q207.11 63.97 205.84 64.93Q204.57 65.89 204.57 67.28Q204.57 68.68 205.03 69.45Q205.50 70.23 206.49 70.79Q208.04 71.59 210.21 72.18Q212.38 72.77 213.44 73.11Q214.49 73.45 216.07 74.26Q217.65 75.07 218.46 76Q220.63 78.29 220.63 81.89Q220.63 86.54 217.25 89.17Q213.87 91.81 208.66 91.81Q201.10 91.81 197.25 89.88L197.25 81.27L202.83 80.83L202.83 83.81Q202.83 86.54 208.04 86.54Q213.25 86.54 213.25 82.75Q213.25 81.39 212.35 80.52Q211.45 79.65 210.58 79.34Q209.72 79.03 208.51 78.72Q207.30 78.41 206.15 78.10Q205 77.79 203.67 77.27Q202.34 76.74 200.73 75.75Q197.56 73.70 197.56 68.90Q197.56 64.09 200.97 61.49Q204.38 58.88 209.56 58.88Q214.74 58.88 219.82 61.36L219.82 68.80L214.24 69.24L214.24 66.63Q214.24 65.08 212.82 64.53" fill="#1f2328"/>
</svg>
